<?xml version="1.0" encoding="UTF-8"?>
<svg width="126px" height="126px" viewBox="0 0 126 126" version="1.1" xmlns="http://www.w3.org/2000/svg" xmlns:xlink="http://www.w3.org/1999/xlink">
    <!-- Generator: Sketch 54.1 (76490) - https://sketchapp.com -->
    <title>Group 4</title>
    <desc>Created with Sketch.</desc>
    <defs>
        <circle id="path-1" cx="49" cy="49" r="49"></circle>
        <filter x="-21.4%" y="-21.4%" width="142.9%" height="142.9%" filterUnits="objectBoundingBox" id="filter-2">
            <feOffset dx="0" dy="0" in="SourceAlpha" result="shadowOffsetOuter1"></feOffset>
            <feGaussianBlur stdDeviation="7" in="shadowOffsetOuter1" result="shadowBlurOuter1"></feGaussianBlur>
            <feColorMatrix values="0 0 0 0 0   0 0 0 0 0   0 0 0 0 0  0 0 0 0.5 0" type="matrix" in="shadowBlurOuter1"></feColorMatrix>
        </filter>
        <linearGradient x1="143.5573%" y1="143.851616%" x2="-31.821505%" y2="-32.0559627%" id="linearGradient-3">
            <stop stop-color="#BAD8ED" offset="0%"></stop>
            <stop stop-color="#FFFFFF" offset="99.94%"></stop>
        </linearGradient>
        <linearGradient x1="142.908724%" y1="144.490964%" x2="-31.3588471%" y2="-32.7212822%" id="linearGradient-4">
            <stop stop-color="#BAD8ED" offset="0%"></stop>
            <stop stop-color="#FFFFFF" offset="99.94%"></stop>
        </linearGradient>
        <linearGradient x1="143.5573%" y1="141.65912%" x2="-31.9267954%" y2="-30.242169%" id="linearGradient-5">
            <stop stop-color="#BAD8ED" offset="0%"></stop>
            <stop stop-color="#FFFFFF" offset="99.94%"></stop>
        </linearGradient>
    </defs>
    <g id="Page-2" stroke="none" stroke-width="1" fill="none" fill-rule="evenodd">
        <g id="Page-principal" transform="translate(-955.000000, -565.000000)">
            <g id="Group-4" transform="translate(969.000000, 579.000000)">
                <g id="Oval">
                    <use fill="black" fill-opacity="1" filter="url(#filter-2)" xlink:href="#path-1"></use>
                    <use fill="#0B0A0D" fill-rule="evenodd" xlink:href="#path-1"></use>
                </g>
                <path d="M49.5590239,73.4143177 C35.8629383,73.3458588 24.7771406,62.1870522 24.8405484,48.5373936 C24.9092402,34.887735 36.1060016,23.8395159 49.8020872,23.9027088 C63.4981728,23.9711677 74.5839705,35.1299743 74.5205627,48.7796329 C74.4518709,62.4345576 63.2551095,73.4827766 49.5590239,73.4143177 Z M49.788653,26.6343996 C37.5920923,26.5766417 27.6260309,36.4059859 27.5627543,48.5508969 C27.5047508,60.6958078 37.3758973,70.619665 49.5724581,70.6826736 C61.7690189,70.7404315 71.7350802,60.9110872 71.7983568,48.7661763 C71.8563603,36.6212654 61.9852138,26.6921575 49.788653,26.6343996 Z" id="Shape" fill="url(#linearGradient-3)" fill-rule="nonzero"></path>
                <path d="M49.5305851,78.5362363 C33.0233132,78.4570221 19.6575271,64.9113851 19.7364589,48.3397637 L22.0360056,48.3503256 C21.9623359,63.649238 34.3020084,76.1545278 49.5463715,76.2284611 C64.7907345,76.3023944 77.2514359,63.9185665 77.3251055,48.6196541 C77.3987752,33.3207417 65.0591027,20.8154519 49.8200017,20.7415186 L49.830526,18.4390244 C66.337798,18.5182386 79.703584,32.0638756 79.6246522,48.635497 C79.5351961,65.2018374 66.0378571,78.6154506 49.5305851,78.5362363 Z" id="Path" fill="url(#linearGradient-4)" fill-rule="nonzero"></path>
                <path d="M40.1527778,22.6855912 L39.3565976,20.4878049 C31.3109876,23.4322076 24.883928,29.7468998 21.7777778,37.7335922 L23.9515591,38.5853659 C26.8115221,31.2191012 32.735731,25.398648 40.1527778,22.6855912 Z" id="Path" fill="url(#linearGradient-5)" fill-rule="nonzero"></path>
                <g id="global" transform="translate(35.000000, 34.000000)" fill="#D4E7F4" fill-rule="nonzero">
                    <path d="M15.52342,29.9364362 C17.815639,29.6107701 19.8250907,27.2183664 21.0895647,23.6852156 C19.261649,23.2758441 17.3963274,23.0561175 15.52342,23.0299595 L15.52342,29.9364362 Z" id="Path"></path>
                    <path d="M19.1855294,29.374564 C19.3210275,29.3353272 19.4560024,29.2958287 19.589931,29.2524066 C19.7029332,29.216047 19.8143659,29.1768101 19.9257987,29.1378348 C20.0576346,29.09232 20.1889474,29.0454974 20.319737,28.9957973 C20.4311698,28.9534215 20.5415562,28.9084298 20.6522042,28.8634382 C20.7798549,28.8098144 20.907244,28.7564523 21.0333252,28.7028285 C21.1434501,28.6544364 21.2527902,28.60369 21.3621303,28.5526821 C21.4858573,28.4943499 21.6090611,28.4349714 21.7312186,28.3732387 C21.8384661,28.3185686 21.945452,28.2628523 22.0526995,28.2055664 C22.1727644,28.1412179 22.2920445,28.0755615 22.4105399,28.0080741 C22.5177874,27.9473877 22.6211112,27.8864397 22.7254813,27.8236607 C22.8416225,27.7522496 22.9572405,27.6808385 23.0720738,27.6094273 C23.1748744,27.5440325 23.2774135,27.4775914 23.3786447,27.4090576 C23.4916469,27.3329381 23.6030796,27.2536795 23.7139892,27.1744211 C23.813651,27.1030099 23.9127895,27.0318603 24.0100969,26.9601877 C24.1173445,26.8775286 24.2272077,26.7919922 24.3347168,26.7061942 C24.4301932,26.6300746 24.5254081,26.5544782 24.619315,26.476266 C24.7263009,26.3873291 24.82884,26.2952532 24.9326869,26.2031773 C25.0237165,26.1223493 25.1152693,26.0423061 25.2042062,25.9593854 C25.3064837,25.863909 25.4061454,25.7650321 25.5058071,25.6669399 C25.5921282,25.581665 25.6794957,25.4976981 25.7639858,25.4103307 C25.7796805,25.3941127 25.7945906,25.3765869 25.8108084,25.3598458 C24.642334,24.7563825 23.4116036,24.2826625 22.140067,23.9473179 C21.4787946,26.0561698 20.3019496,27.9672677 18.7162563,29.5069231 C18.7596784,29.4956752 18.8031006,29.4865199 18.8465227,29.475272 C18.9610945,29.4430978 19.0735735,29.4077846 19.1855294,29.374564 L19.1855294,29.374564 Z" id="Path"></path>
                    <path d="M29.9754115,15.5145264 L23.5520717,15.5145264 C23.5277448,18.0225481 23.1638881,20.5156599 22.4704416,22.9261126 C23.8845389,23.303833 25.2491979,23.8468715 26.5361677,24.5439802 C28.6492048,21.9972447 29.8587472,18.8219343 29.9754115,15.5145264 L29.9754115,15.5145264 Z" id="Path"></path>
                    <path d="M15.52342,14.4430978 L22.4806432,14.4430978 C22.4534389,12.0237514 22.0984758,9.61931504 21.4259557,7.29518344 C19.4886998,7.73699076 17.5101144,7.97293527 15.52342,7.99909319 L15.52342,14.4430978 Z" id="Path"></path>
                    <path d="M15.52342,0.0211879018 L15.52342,6.92766462 C17.3963274,6.90124513 19.261649,6.68178013 21.0895647,6.27240864 C19.8250907,2.73925781 17.815639,0.346854107 15.52342,0.0211879018 Z" id="Path"></path>
                    <path d="M15.52342,21.9585309 C17.5101144,21.9849505 19.4886998,22.2208949 21.4259557,22.6627023 C22.0984758,20.3385707 22.4534389,17.9338728 22.4806432,15.5145264 L15.52342,15.5145264 L15.52342,21.9585309 Z" id="Path"></path>
                    <path d="M26.5361677,5.41364397 C25.2491979,6.11075263 23.8845389,6.65379114 22.4704416,7.03151156 C23.1638881,9.44196429 23.5277448,11.935076 23.5520717,14.4430978 L29.9754115,14.4430978 C29.8584856,11.1359515 28.6489432,7.96064103 26.5361677,5.41364397 L26.5361677,5.41364397 Z" id="Path"></path>
                    <path d="M25.8123779,4.60091725 C25.7966832,4.58496094 25.7817731,4.56769674 25.76634,4.55121723 C25.6815883,4.46384973 25.5936977,4.37962125 25.5073765,4.29460795 C25.4079764,4.19651578 25.3088379,4.09737723 25.2062988,4.00216239 C25.1176235,3.91950335 25.0258092,3.84129114 24.9347796,3.75889366 C24.8309326,3.66681777 24.7270856,3.57395719 24.6203613,3.48502025 C24.5277623,3.40680804 24.432809,3.33199634 24.3386405,3.25692315 C24.231393,3.17007884 24.1215297,3.08375766 24.0111433,3.00083705 C23.914359,2.92785643 23.8162667,2.85723007 23.7176514,2.78660364 C23.6056955,2.70603723 23.4932164,2.62573246 23.3791678,2.54908969 C23.2789829,2.48160228 23.1772286,2.41568431 23.0754743,2.35107422 C22.9595947,2.27652415 22.8439767,2.20354353 22.7260045,2.1329171 C22.6226806,2.07092283 22.5183106,2.00971333 22.4136789,1.95033482 C22.2938756,1.88180103 22.1738107,1.81535993 22.0526995,1.75048828 C21.945452,1.69686455 21.8384661,1.63853237 21.7312186,1.58490864 C21.6080148,1.52265275 21.4837647,1.46275112 21.3563756,1.4038958 C21.249128,1.35288783 21.1403111,1.30318781 21.0299247,1.2547956 C20.9030588,1.19855612 20.7748849,1.14780971 20.6469727,1.09418598 C20.5365863,1.04919435 20.4267229,1.00472585 20.3152902,0.962350045 C20.1852853,0.912649955 20.0534494,0.866088884 19.9216134,0.820574062 C19.8101806,0.78133721 19.6987479,0.74236192 19.5857457,0.705740759 C19.4518171,0.662318638 19.3178885,0.622820156 19.1802978,0.583060112 C19.0688651,0.550362723 18.9569092,0.517142143 18.8441685,0.487322143 C18.801008,0.475551027 18.7570627,0.466395804 18.7136405,0.455147879 C20.2993339,1.99480326 21.4759173,3.90563967 22.1374512,6.01475304 C23.4102958,5.67940848 24.6428571,5.2054269 25.8123779,4.60091725 L25.8123779,4.60091725 Z" id="Path"></path>
                    <path d="M0,14.4430978 L6.42333984,14.4430978 C6.4476667,11.935076 6.81152344,9.44196429 7.50470839,7.03151156 C6.09087261,6.65405277 4.72621373,6.1110142 3.43924386,5.41364397 C1.32620679,7.96037946 0.116664375,11.1359515 0,14.4430978 Z" id="Path"></path>
                    <path d="M14.4519915,29.9364362 L14.4519915,23.0299595 C12.5790841,23.0563791 10.7137626,23.2758441 8.88584679,23.6852156 C10.1500593,27.2183664 12.1597726,29.6107701 14.4519915,29.9364362 Z" id="Path"></path>
                    <path d="M14.4519915,15.5145264 L7.49476842,15.5145264 C7.52197266,17.9338728 7.87667411,20.3385707 8.54945592,22.6627023 C10.4867117,22.2206334 12.4650356,21.9846889 14.4519915,21.9585309 L14.4519915,15.5145264 Z" id="Path"></path>
                    <path d="M14.4519915,0.0211879018 C12.1597726,0.346854107 10.1500593,2.73925781 8.88584679,6.27240864 C10.7137626,6.6820417 12.5790841,6.9015067 14.4519915,6.92766462 L14.4519915,0.0211879018 Z" id="Path"></path>
                    <path d="M14.4519915,7.99909319 C12.4652972,7.97293527 10.4867117,7.73699076 8.54945592,7.29518344 C7.87667411,9.61931504 7.52197266,12.0237514 7.49476842,14.4430978 L14.4519915,14.4430978 L14.4519915,7.99909319 Z" id="Path"></path>
                    <path d="M11.2575858,0.454624688 C11.2141637,0.465872612 11.1707415,0.475027902 11.1273194,0.486275826 C11.0137939,0.516619018 10.901838,0.550362723 10.7888358,0.583060112 C10.6543841,0.622297031 10.5209786,0.661795446 10.3860037,0.704694509 C10.2722168,0.741577165 10.1602608,0.780814018 10.048305,0.819789375 C9.91725375,0.866088884 9.785941,0.91212683 9.6561977,0.961303728 C9.54424179,1.00420272 9.43385531,1.04867116 9.32294571,1.09418598 C9.19555661,1.14780971 9.06790594,1.20143344 8.94208634,1.2547956 C8.83169993,1.30318781 8.72262134,1.35393415 8.61328125,1.40494212 C8.48955429,1.46327424 8.36635045,1.52265275 8.24419292,1.58438545 C8.13694547,1.63905549 8.02969795,1.69503348 7.92271205,1.75205772 C7.80264717,1.81640625 7.68362866,1.88232422 7.56539478,1.9498117 C7.45814732,2.00971333 7.35273087,2.07118446 7.24940705,2.13396348 C7.13300431,2.20406665 7.01790944,2.27652415 6.90333777,2.34819683 C6.80027551,2.4141148 6.69799808,2.48055596 6.5967669,2.54908969 C6.48376467,2.62520926 6.37233187,2.70446779 6.26142228,2.78372625 C6.1617606,2.85513743 6.06262205,2.92628699 5.96505301,2.99822129 C5.85545129,3.08061871 5.7508196,3.1664167 5.64043319,3.25195313 C5.54521835,3.3280727 5.44921875,3.40366908 5.35609654,3.48240442 C5.24884902,3.57081824 5.14709471,3.66237094 5.04377089,3.75392371 C4.95221819,3.83553643 4.85988074,3.91479496 4.7704206,3.999285 C4.66866629,4.09423828 4.56952775,4.19285364 4.47012763,4.29068431 C4.38380652,4.37595911 4.29591589,4.46018766 4.21116422,4.54781665 C4.19573103,4.5640346 4.18082103,4.58182199 4.16460308,4.5983015 C5.332816,5.20202638 6.56380788,5.67574634 7.83534455,6.01109096 C8.49661687,3.9032854 9.67267714,1.99349538 11.2575858,0.454624688 Z" id="Path"></path>
                    <path d="M4.46777344,25.6630162 C4.56743511,25.7611084 4.66657366,25.860247 4.76885116,25.9557234 C4.8577881,26.0381208 4.9493408,26.116333 5.04063201,26.1987305 C5.14447895,26.2910679 5.24832589,26.383667 5.35505022,26.472604 C5.44764924,26.550293 5.5420794,26.6253662 5.63677105,26.700701 C5.74401857,26.7875454 5.85100446,26.8738665 5.96452982,26.9573103 C6.06105261,27.0297677 6.15914478,27.0998709 6.25723701,27.1718052 C6.36919292,27.2521101 6.48219516,27.3324149 6.59624371,27.4095808 C6.69642857,27.4770682 6.79818288,27.5429862 6.89993719,27.6078579 C7.01581681,27.6821464 7.13143487,27.7551269 7.24940705,27.8257533 C7.35273087,27.8880092 7.457101,27.9489572 7.5617327,28.0085973 C7.68153603,28.077131 7.80160085,28.1435721 7.92271205,28.2081822 C8.02969795,28.261806 8.13694547,28.3201381 8.24419292,28.3737619 C8.36739676,28.4360177 8.49164692,28.4959193 8.61903603,28.5550363 C8.72628348,28.605521 8.83510045,28.6552211 8.94548692,28.7038748 C9.07235283,28.7601144 9.20026507,28.8108608 9.32843893,28.8644845 C9.43882533,28.9094762 9.54868862,28.9539446 9.66012134,28.9963205 C9.79012627,29.0462821 9.92196221,29.0928432 10.0537981,29.1383579 C10.1652309,29.1773333 10.2766637,29.2165702 10.3896659,29.2529297 C10.5235945,29.2963519 10.657523,29.3361119 10.7951137,29.3756103 C10.9065465,29.4083077 11.0185024,29.4415283 11.1309814,29.4716099 C11.1744036,29.483381 11.2183489,29.4925363 11.261771,29.5037842 C9.67607772,27.9638672 8.49949426,26.0530308 7.83796038,23.9439174 C6.56642371,24.2795236 5.33543176,24.7532436 4.16721891,25.3572301 C4.18291366,25.3731864 4.19782366,25.3904506 4.21351842,25.4069301 C4.29382326,25.4937744 4.38040594,25.5780029 4.46777344,25.6630162 L4.46777344,25.6630162 Z" id="Path"></path>
                    <path d="M3.43924386,24.5439802 C4.72621373,23.8468715 6.09087261,23.303833 7.50470839,22.9261126 C6.81152344,20.5156599 6.4476667,18.0225481 6.42333984,15.5145264 L0,15.5145264 C0.116925937,18.8216727 1.32620679,21.9969831 3.43924386,24.5439802 L3.43924386,24.5439802 Z" id="Path"></path>
                </g>
            </g>
        </g>
    </g>
</svg>