<?xml version="1.0" encoding="UTF-8"?>
<svg width="126px" height="126px" viewBox="0 0 126 126" version="1.1" xmlns="http://www.w3.org/2000/svg" xmlns:xlink="http://www.w3.org/1999/xlink">
    <!-- Generator: Sketch 54.1 (76490) - https://sketchapp.com -->
    <title>Group 2</title>
    <desc>Created with Sketch.</desc>

    <style type="text/css">
        .fingerPrint {
        opacity: 1;
        cursor: pointer;
        }

        .fingerPrint:hover {
        opacity: 0.9;
        transition: 1s all;
        }

    </style>

    <defs>
        <circle id="path-1" cx="49" cy="49" r="49"></circle>
        <filter x="-21.4%" y="-21.4%" width="142.9%" height="142.9%" filterUnits="objectBoundingBox" id="filter-2">
            <feOffset dx="0" dy="0" in="SourceAlpha" result="shadowOffsetOuter1"></feOffset>
            <feGaussianBlur stdDeviation="7" in="shadowOffsetOuter1" result="shadowBlurOuter1"></feGaussianBlur>
            <feColorMatrix values="0 0 0 0 0   0 0 0 0 0   0 0 0 0 0  0 0 0 0.5 0" type="matrix" in="shadowBlurOuter1"></feColorMatrix>
        </filter>
        <!-- rotate border-->
        <linearGradient  x1="143.5573%" y1="144.490964%" x2="-32.0321491%" y2="-32.8276734%" id="linearGradient-3">
            <stop id="1" stop-color="#83A4D4" offset="0%"></stop>
            <stop id="2" stop-color="#FFFFFF" offset="99.94%"></stop>
        </linearGradient>
        <linearGradient x1="143.5573%" y1="144.473263%" x2="-32.3485898%" y2="-33.1316539%" id="linearGradient-4">
            <stop stop-color="#83A4D4" offset="0%"></stop>
            <stop stop-color="#FFFFFF" offset="99.94%"></stop>
        </linearGradient>
        <linearGradient x1="143.5573%" y1="140.968879%" x2="-32.3485898%" y2="-30.047975%" id="linearGradient-5">
            <stop stop-color="#83A4D4" offset="0%"></stop>
            <stop stop-color="#FFFFFF" offset="99.94%"></stop>
        </linearGradient>
        <!--border rotate end-->
        <linearGradient x1="62.4234285%" y1="144.490964%" x2="39.0649706%" y2="-33.1472304%" id="linearGradient-6">
            <stop stop-color="#83A4D4" offset="0%"></stop>
            <stop stop-color="#FFFFFF" offset="99.94%"></stop>
        </linearGradient>
        <linearGradient x1="70.3878287%" y1="144.490964%" x2="32.054752%" y2="-33.1472304%" id="linearGradient-7">
            <stop stop-color="#83A4D4" offset="0%"></stop>
            <stop stop-color="#FFFFFF" offset="99.94%"></stop>
        </linearGradient>
        <linearGradient x1="95.2041177%" y1="144.490964%" x2="10.2115991%" y2="-33.1472304%" id="linearGradient-8">
            <stop stop-color="#83A4D4" offset="0%"></stop>
            <stop stop-color="#FFFFFF" offset="99.94%"></stop>
        </linearGradient>
        <linearGradient x1="143.5573%" y1="101.48114%" x2="-32.3485898%" y2="4.69922158%" id="linearGradient-9">
            <stop stop-color="#83A4D4" offset="0%"></stop>
            <stop stop-color="#FFFFFF" offset="99.94%"></stop>
        </linearGradient>
        <linearGradient x1="79.2664884%" y1="144.490964%" x2="24.2398075%" y2="-33.1472304%" id="linearGradient-10">
            <stop stop-color="#83A4D4" offset="0%"></stop>
            <stop stop-color="#FFFFFF" offset="99.94%"></stop>
        </linearGradient>
        <linearGradient x1="143.5573%" y1="63.5986505%" x2="-32.3485898%" y2="38.033881%" id="linearGradient-11">
            <stop stop-color="#83A4D4" offset="0%"></stop>
            <stop stop-color="#FFFFFF" offset="99.94%"></stop>
        </linearGradient>
        <linearGradient x1="57.0688603%" y1="144.490964%" x2="43.7780304%" y2="-33.1472304%" id="linearGradient-12">
            <stop stop-color="#83A4D4" offset="0%"></stop>
            <stop stop-color="#FFFFFF" offset="99.94%"></stop>
        </linearGradient>
        <linearGradient x1="62.5527063%" y1="144.490964%" x2="38.951181%" y2="-33.1472304%" id="linearGradient-13">
            <stop stop-color="#83A4D4" offset="0%"></stop>
            <stop stop-color="#FFFFFF" offset="99.94%"></stop>
        </linearGradient>
        <linearGradient x1="61.7840006%" y1="144.490964%" x2="39.6277914%" y2="-33.1472304%" id="linearGradient-14">
            <stop stop-color="#83A4D4" offset="0%"></stop>
            <stop stop-color="#FFFFFF" offset="99.94%"></stop>
        </linearGradient>
        <linearGradient x1="58.8044085%" y1="144.490964%" x2="42.2504109%" y2="-33.1472304%" id="linearGradient-15">
            <stop stop-color="#83A4D4" offset="0%"></stop>
            <stop stop-color="#FFFFFF" offset="99.94%"></stop>
        </linearGradient>
        <linearGradient x1="84.273839%" y1="144.490964%" x2="19.8323667%" y2="-33.1472304%" id="linearGradient-16">
            <stop stop-color="#83A4D4" offset="0%"></stop>
            <stop stop-color="#FFFFFF" offset="99.94%"></stop>
        </linearGradient>
        <linearGradient x1="143.5573%" y1="129.786963%" x2="-32.3485898%" y2="-20.2084591%" id="linearGradient-17">
            <stop stop-color="#83A4D4" offset="0%"></stop>
            <stop stop-color="#FFFFFF" offset="99.94%"></stop>
        </linearGradient>
        <linearGradient x1="55.2230274%" y1="144.490964%" x2="45.4027217%" y2="-33.1472304%" id="linearGradient-18">
            <stop stop-color="#83A4D4" offset="0%"></stop>
            <stop stop-color="#FFFFFF" offset="99.94%"></stop>
        </linearGradient>
        <linearGradient x1="90.0146318%" y1="144.490964%" x2="14.7793543%" y2="-33.1472304%" id="linearGradient-19">
            <stop stop-color="#83A4D4" offset="0%"></stop>
            <stop stop-color="#FFFFFF" offset="99.94%"></stop>
        </linearGradient>
        <linearGradient x1="143.5573%" y1="67.8460077%" x2="-32.3485898%" y2="34.2964232%" id="linearGradient-20">
            <stop stop-color="#83A4D4" offset="0%"></stop>
            <stop stop-color="#FFFFFF" offset="99.94%"></stop>
        </linearGradient>
        <linearGradient x1="58.2964009%" y1="144.490964%" x2="42.6975563%" y2="-33.1472304%" id="linearGradient-21">
            <stop stop-color="#83A4D4" offset="0%"></stop>
            <stop stop-color="#FFFFFF" offset="99.94%"></stop>
        </linearGradient>
        <linearGradient x1="74.1904945%" y1="144.490964%" x2="28.7076677%" y2="-33.1472304%" id="linearGradient-22">
            <stop stop-color="#83A4D4" offset="0%"></stop>
            <stop stop-color="#FFFFFF" offset="99.94%"></stop>
        </linearGradient>
        <linearGradient x1="60.0385245%" y1="144.490964%" x2="41.1641493%" y2="-33.1472304%" id="linearGradient-23">
            <stop stop-color="#83A4D4" offset="0%"></stop>
            <stop stop-color="#FFFFFF" offset="99.94%"></stop>
        </linearGradient>
        <linearGradient x1="83.7903344%" y1="144.490964%" x2="20.2579446%" y2="-33.1472304%" id="linearGradient-24">
            <stop stop-color="#83A4D4" offset="0%"></stop>
            <stop stop-color="#FFFFFF" offset="99.94%"></stop>
        </linearGradient>
        <linearGradient x1="55.7840356%" y1="144.490964%" x2="44.9089256%" y2="-33.1472304%" id="linearGradient-25">
            <stop stop-color="#83A4D4" offset="0%"></stop>
            <stop stop-color="#FFFFFF" offset="99.94%"></stop>
        </linearGradient>
        <linearGradient x1="129.360586%" y1="144.490964%" x2="-19.8527248%" y2="-33.1472304%" id="linearGradient-26">
            <stop stop-color="#83A4D4" offset="0%"></stop>
            <stop stop-color="#FFFFFF" offset="99.94%"></stop>
        </linearGradient>
        <linearGradient x1="71.5654847%" y1="144.490964%" x2="31.0181861%" y2="-33.1472304%" id="linearGradient-27">
            <stop stop-color="#83A4D4" offset="0%"></stop>
            <stop stop-color="#FFFFFF" offset="99.94%"></stop>
        </linearGradient>
    </defs>
    <g id="Page-2" stroke="none" stroke-width="1" fill="none" fill-rule="evenodd">
        <g id="Page-principal" transform="translate(-199.000000, -565.000000)">
            <g id="Group-2" transform="translate(213.000000, 579.000000)">
                <g id="Group">
                    <g id="Oval">
                        <use fill="black" fill-opacity="1" filter="url(#filter-2)" xlink:href="#path-1"></use>
                        <use fill="#000000" fill-rule="evenodd" xlink:href="#path-1"></use>
                    </g>
                </g>
                <g id="finger" transform="translate(19.000000, 19.000000)" fill-rule="nonzero">
                    <g id="Group">
                        <path d="M30.1658261,55.4993913 C16.4169565,55.4304348 5.28843478,44.1905217 5.35208696,30.4416522 C5.42104348,16.6927826 16.6609565,5.56426087 30.4098261,5.62791304 C44.1586957,5.69686957 55.2872174,16.9367826 55.2235652,30.6856522 C55.1546087,44.4398261 43.9146957,55.5683478 30.1658261,55.4993913 Z M30.393913,8.32252174 C18.1249565,8.26417391 8.09973913,18.193913 8.03608696,30.4628696 C7.97773913,42.7318261 17.9074783,52.7570435 30.1764348,52.8206957 C42.4453913,52.8790435 52.4706087,42.9493043 52.5342609,30.6803478 C52.5926087,18.4113913 42.6628696,8.38086957 30.393913,8.32252174 Z" id="Shape" fill="url(#linearGradient-3)"></path>
                        <path d="M30.1393043,60.7506957 C13.4995652,60.6711304 0.0265217391,47.0654783 0.106086957,30.4204348 L2.42408696,30.4310435 C2.34982609,45.7977391 14.7885217,58.3584348 30.1552174,58.4326957 C45.521913,58.5069565 58.0826087,46.0682609 58.1568696,30.7015652 C58.2311304,15.3348696 45.7924348,2.77417391 30.4310435,2.69991304 L30.4416522,0.387217391 C47.0813913,0.466782609 60.5544348,14.0724348 60.4748696,30.7174783 C60.3846957,47.3572174 46.7790435,60.8302609 30.1393043,60.7506957 Z" id="Path" fill="url(#linearGradient-4)"></path>
                        <path d="M20.7346957,4.42382609 L19.9284348,2.2066087 C11.7809565,5.17704348 5.27252174,11.5475652 2.12704348,19.6048696 L4.32834783,20.4641739 C7.22452174,13.0327826 13.2237391,7.16086957 20.7346957,4.42382609 Z" id="Path" fill="url(#linearGradient-5)"></path>
                        <g transform="translate(13.791304, 13.791304)" id="Path" class="fingerPrint">
                            <path d="M2.41878261,22.8564348 C2.12704348,22.8564348 1.85121739,22.6866957 1.72921739,22.4002609 C0.907043478,20.4535652 0.488,18.3848696 0.488,16.2525217 C0.488,15.8387826 0.822173913,15.5046087 1.23591304,15.5046087 C1.64965217,15.5046087 1.98382609,15.8387826 1.98382609,16.2525217 C1.98382609,18.1833043 2.36043478,20.0557391 3.10834783,21.8167826 C3.26747826,22.1986957 3.09243478,22.6336522 2.71052174,22.7927826 C2.61504348,22.8352174 2.51956522,22.8564348 2.41878261,22.8564348 Z" fill="url(#linearGradient-6)"></path>
                            <path d="M29.6937391,24.6068696 C29.5876522,24.6068696 29.4815652,24.5856522 29.3754783,24.537913 C29.0041739,24.3628696 28.8450435,23.9173043 29.020087,23.546 C29.6566087,22.188087 30.0756522,20.7453043 30.2613043,19.2653913 C30.3143478,18.8569565 30.6856522,18.5652174 31.094087,18.6182609 C31.5025217,18.6713043 31.7942609,19.0426087 31.7412174,19.4510435 C31.5343478,21.090087 31.0728696,22.6813913 30.3673913,24.1825217 C30.240087,24.4477391 29.9748696,24.6068696 29.6937391,24.6068696 Z" fill="url(#linearGradient-7)"></path>
                            <path d="M31.3327826,16.9951304 C30.9190435,16.9951304 30.5848696,16.6609565 30.5848696,16.2472174 C30.5848696,10.4866957 27.1582609,5.31495652 21.8486087,3.06591304 C21.472,2.90678261 21.2916522,2.46652174 21.4507826,2.08991304 C21.609913,1.71330435 22.0501739,1.53295652 22.4267826,1.69208696 C28.288087,4.16921739 32.070087,9.882 32.070087,16.241913 C32.0806957,16.6609565 31.7465217,16.9951304 31.3327826,16.9951304 Z" fill="url(#linearGradient-8)"></path>
                            <path d="M2.06869565,12.0514783 C1.98913043,12.0514783 1.90426087,12.0355652 1.82469565,12.0090435 C1.43747826,11.8711304 1.2306087,11.4467826 1.36321739,11.0595652 C3.56982609,4.72086957 9.56373913,0.456173913 16.2843478,0.456173913 C16.698087,0.456173913 17.0322609,0.790347826 17.0322609,1.20408696 C17.0322609,1.61782609 16.698087,1.952 16.2843478,1.952 C10.2002609,1.952 4.7686087,5.80826087 2.77417391,11.5528696 C2.66808696,11.8552174 2.37634783,12.0514783 2.06869565,12.0514783 Z" fill="url(#linearGradient-9)"></path>
                            <path d="M4.33365217,18.4644348 C3.96234783,18.4644348 3.63878261,18.1886087 3.59634783,17.8066957 C3.53269565,17.2921739 3.50086957,16.7670435 3.50086957,16.2472174 C3.50086957,11.712 5.93556522,7.47382609 9.86078261,5.19295652 C10.2161739,4.98608696 10.6723478,5.10808696 10.8792174,5.46347826 C11.086087,5.81886957 10.964087,6.27504348 10.6086957,6.48191304 C7.13965217,8.49756522 4.98608696,12.2424348 4.98608696,16.2472174 C4.98608696,16.7086957 5.0126087,17.1701739 5.07095652,17.6263478 C5.11869565,18.0347826 4.82695652,18.406087 4.41852174,18.4538261 C4.39730435,18.4644348 4.36547826,18.4644348 4.33365217,18.4644348 Z" fill="url(#linearGradient-10)"></path>
                            <path d="M23.683913,7.50034783 C23.5247826,7.50034783 23.3603478,7.44730435 23.2277391,7.34121739 C21.228,5.78173913 18.8304348,4.95956522 16.2896522,4.95956522 C15.7433043,4.95956522 15.1916522,4.99669565 14.655913,5.07626087 C14.2474783,5.1346087 13.8708696,4.85347826 13.8125217,4.44504348 C13.7541739,4.0366087 14.0353043,3.66 14.4437391,3.60165217 C15.0484348,3.51147826 15.6743478,3.46904348 16.2896522,3.46904348 C19.1646087,3.46904348 21.8804348,4.4026087 24.1453913,6.16895652 C24.4689565,6.42356522 24.5273043,6.89034783 24.2726957,7.21391304 C24.1241739,7.39956522 23.9066957,7.50034783 23.683913,7.50034783 Z" fill="url(#linearGradient-11)"></path>
                            <path d="M24.2037391,29.7945217 C24.0393043,29.7945217 23.8695652,29.7414783 23.7316522,29.6247826 C23.4133913,29.3648696 23.3656522,28.8927826 23.6255652,28.5745217 C27.4977391,23.8483478 29.3595652,15.6531304 25.7685217,10.110087 C25.5457391,9.76530435 25.6412174,9.30382609 25.986,9.08104348 C26.3307826,8.85826087 26.7922609,8.95373913 27.0150435,9.29852174 C28.8503478,12.1257391 29.5558261,15.8387826 28.9988696,19.7427826 C28.4896522,23.302 26.9513913,26.8612174 24.7766087,29.5133913 C24.6333913,29.7043478 24.415913,29.7945217 24.2037391,29.7945217 Z" fill="url(#linearGradient-12)"></path>
                            <path d="M17.0587826,21.5303478 C16.6609565,21.5303478 16.3267826,21.2173913 16.3161739,20.8142609 C16.2631304,19.3767826 16.0562609,17.9870435 15.7061739,16.6768696 C15.600087,16.2790435 15.8334783,15.8706087 16.2313043,15.7645217 C16.6291304,15.6584348 17.0375652,15.8918261 17.1436522,16.2896522 C17.5202609,17.705913 17.7430435,19.2070435 17.8013913,20.755913 C17.8173043,21.1696522 17.4937391,21.5144348 17.0853043,21.5303478 C17.0746957,21.5303478 17.064087,21.5303478 17.0587826,21.5303478 Z" fill="url(#linearGradient-13)"></path>
                            <path d="M15.3242609,32.0435652 C15.234087,32.0435652 15.1386087,32.0276522 15.0484348,31.9905217 C14.6665217,31.8366957 14.4808696,31.4017391 14.6346957,31.0198261 C15.6266087,28.548 16.241913,25.8958261 16.4222609,23.3550435 C16.4487826,22.9466087 16.8041739,22.6336522 17.217913,22.6654783 C17.6263478,22.692 17.9393043,23.0526957 17.9074783,23.4611304 C17.7165217,26.1557391 17.064087,28.9617391 16.0191304,31.5767826 C15.9024348,31.8685217 15.6213043,32.0435652 15.3242609,32.0435652 Z" fill="url(#linearGradient-14)"></path>
                            <path d="M4.514,26.367913 C4.44504348,26.367913 4.37608696,26.3573043 4.30713043,26.3413913 C3.90930435,26.23 3.68121739,25.8162609 3.79791304,25.4184348 C4.20634783,23.9862609 4.32304348,22.4108696 4.13208696,20.862 C4.07904348,20.4535652 4.37078261,20.0822609 4.77921739,20.0292174 C5.18765217,19.9761739 5.55895652,20.267913 5.612,20.6763478 C5.82947826,22.4214783 5.69686957,24.2037391 5.23008696,25.8215652 C5.1346087,26.1557391 4.83756522,26.367913 4.514,26.367913 Z" fill="url(#linearGradient-15)"></path>
                            <path d="M25.4025217,16.9951304 C24.9887826,16.9951304 24.6546087,16.6609565 24.6546087,16.2472174 C24.6546087,13.4836522 23.2913913,10.9004348 21.0105217,9.33565217 C20.6710435,9.10226087 20.5861739,8.64078261 20.8195652,8.30130435 C21.0529565,7.96182609 21.5144348,7.87695652 21.853913,8.11034783 C24.5432174,9.95095652 26.1451304,12.9956522 26.1451304,16.2525217 C26.1504348,16.6609565 25.8162609,16.9951304 25.4025217,16.9951304 Z" fill="url(#linearGradient-16)"></path>
                            <path d="M7.16617391,16.9951304 C6.75243478,16.9951304 6.41826087,16.6609565 6.41826087,16.2472174 C6.41826087,10.8102609 10.842087,6.38113043 16.2843478,6.38113043 C16.6238261,6.38113043 16.9633043,6.39704348 17.2974783,6.43417391 C17.705913,6.4766087 18.0029565,6.8426087 17.9658261,7.25104348 C17.9233913,7.65947826 17.5573913,7.95652174 17.1489565,7.9193913 C16.8625217,7.89286957 16.576087,7.87695652 16.2896522,7.87695652 C11.6748696,7.87695652 7.91408696,11.6324348 7.91408696,16.2525217 C7.91408696,16.6609565 7.57991304,16.9951304 7.16617391,16.9951304 Z" fill="url(#linearGradient-17)"></path>
                            <path d="M6.93278261,28.7866957 C6.84791304,28.7866957 6.75773913,28.7707826 6.67286957,28.7389565 C6.28565217,28.5957391 6.09469565,28.166087 6.23791304,27.7788696 C6.8426087,26.1663478 7.15026087,24.4636522 7.15026087,22.7238261 C7.15026087,21.5833913 7.01765217,20.4535652 6.75243478,19.3555652 C6.65695652,18.9524348 6.90626087,18.5546087 7.30408696,18.4591304 C7.70191304,18.3636522 8.10504348,18.6076522 8.20052174,19.0107826 C8.49226087,20.2201739 8.63547826,21.472 8.63547826,22.7238261 C8.63547826,24.644 8.296,26.5217391 7.62765217,28.304 C7.52156522,28.6010435 7.23513043,28.7866957 6.93278261,28.7866957 Z" fill="url(#linearGradient-18)"></path>
                            <path d="M18.2681739,32.0966087 C18.0294783,32.0966087 17.796087,31.9852174 17.6528696,31.7730435 C17.4194783,31.4335652 17.5043478,30.972087 17.8438261,30.7386957 C21.6046087,28.1501739 24.018087,24.1931304 24.6386957,19.5889565 C24.6917391,19.1805217 25.0683478,18.894087 25.4767826,18.9471304 C25.8852174,19.0001739 26.1716522,19.3767826 26.1186087,19.7852174 C25.4396522,24.8084348 22.8033913,29.1367826 18.6925217,31.964 C18.559913,32.0541739 18.4113913,32.0966087 18.2681739,32.0966087 Z" fill="url(#linearGradient-19)"></path>
                            <path d="M10.9216522,14.2050435 C10.8049565,14.2050435 10.6882609,14.1785217 10.5768696,14.1201739 C10.2108696,13.9292174 10.0729565,13.4783478 10.2586087,13.1123478 C11.4361739,10.858 13.7435652,9.45765217 16.2843478,9.45765217 C17.9817391,9.45765217 19.6048696,10.0835652 20.8566957,11.2293043 C21.1590435,11.5051304 21.1855652,11.9772174 20.9044348,12.2848696 C20.6286087,12.5872174 20.1565217,12.6137391 19.8488696,12.3326087 C18.8728696,11.4414783 17.6051304,10.9534783 16.2790435,10.9534783 C14.2952174,10.9534783 12.4970435,12.0461739 11.574087,13.8072174 C11.452087,14.0565217 11.1921739,14.2050435 10.9216522,14.2050435 Z" fill="url(#linearGradient-20)"></path>
                            <path d="M11.1921739,24.1984348 C10.7837391,24.1984348 10.4495652,23.8642609 10.4442609,23.4558261 C10.4389565,21.3234783 10.1525217,19.2070435 9.58495652,17.1595652 C9.47356522,16.7617391 9.70695652,16.3533043 10.1047826,16.241913 C10.5026087,16.1305217 10.9110435,16.363913 11.0224348,16.7617391 C11.6218261,18.9365217 11.9294783,21.1908696 11.9347826,23.4558261 C11.9347826,23.8642609 11.6006087,24.1984348 11.1921739,24.1984348 C11.1921739,24.1984348 11.1921739,24.1984348 11.1921739,24.1984348 Z" fill="url(#linearGradient-21)"></path>
                            <path d="M9.7706087,30.5477391 C9.66982609,30.5477391 9.56373913,30.5265217 9.46295652,30.4787826 C9.08634783,30.3090435 8.92191304,29.8687826 9.09165217,29.4921739 C9.57965217,28.4153913 9.92443478,27.2802609 10.1153913,26.1186087 C10.1843478,25.7101739 10.5662609,25.4343478 10.9693913,25.5033043 C11.3778261,25.5669565 11.6536522,25.9541739 11.5846957,26.3573043 C11.3725217,27.6515652 10.9906087,28.9086957 10.4495652,30.1074783 C10.3275652,30.3833043 10.0570435,30.5477391 9.7706087,30.5477391 Z" fill="url(#linearGradient-22)"></path>
                            <path d="M22.9678261,20.862 C22.951913,20.862 22.936,20.862 22.920087,20.862 C22.5116522,20.8354783 22.1986957,20.480087 22.2252174,20.0716522 C22.3366087,18.315913 22.097913,16.592 21.5250435,14.9476522 C21.3871304,14.5604348 21.594,14.136087 21.9812174,13.9981739 C22.3684348,13.8602609 22.7927826,14.0671304 22.9306957,14.4543478 C23.5725217,16.2896522 23.8377391,18.2098261 23.7157391,20.1671304 C23.683913,20.5543478 23.3603478,20.862 22.9678261,20.862 Z" fill="url(#linearGradient-23)"></path>
                            <path d="M12.4015652,31.5396522 C12.3007826,31.5396522 12.1946957,31.5184348 12.0992174,31.476 C11.7226087,31.3062609 11.5528696,30.866 11.7226087,30.4893913 C12.0726957,29.7043478 12.3697391,28.8874783 12.6084348,28.06 C12.7251304,27.6621739 13.1388696,27.4393913 13.5313913,27.5507826 C13.9292174,27.6674783 14.1573043,28.075913 14.0406087,28.4737391 C13.7806957,29.3648696 13.4624348,30.2453913 13.0805217,31.094087 C12.9585217,31.3752174 12.6826957,31.5396522 12.4015652,31.5396522 Z" fill="url(#linearGradient-24)"></path>
                            <path d="M13.8125217,26.6808696 C13.7753913,26.6808696 13.7382609,26.6755652 13.7011304,26.6702609 C13.2926957,26.6066087 13.0115652,26.23 13.0752174,25.8215652 C13.2502609,24.6546087 13.3033043,23.4611304 13.2290435,22.2729565 C13.191913,21.7053913 13.1282609,21.1378261 13.038087,20.5808696 C12.9691304,20.1724348 13.2449565,19.7905217 13.6533913,19.7215652 C14.0565217,19.6526087 14.4437391,19.9284348 14.5126957,20.3368696 C14.6134783,20.9415652 14.6824348,21.5621739 14.7248696,22.1774783 C14.8044348,23.4717391 14.7513913,24.7713043 14.5604348,26.0443478 C14.4914783,26.4156522 14.1732174,26.6808696 13.8125217,26.6808696 Z" fill="url(#linearGradient-25)"></path>
                            <path d="M20.358087,21.8114783 C19.9443478,21.8114783 19.6101739,21.4773043 19.6101739,21.0635652 C19.6101739,18.5652174 18.9153043,13.8337391 16.2843478,13.8337391 C14.9529565,13.8337391 13.8708696,14.9158261 13.8708696,16.2472174 C13.8708696,16.2949565 13.8708696,16.3373913 13.8761739,16.3798261 C13.8973913,16.7882609 13.5844348,17.1436522 13.176,17.1648696 C12.7622609,17.186087 12.4121739,16.8731304 12.3909565,16.4646957 C12.3856522,16.3904348 12.3856522,16.3214783 12.3856522,16.2472174 C12.3856522,14.0936522 14.136087,12.3432174 16.2896522,12.3432174 C19.8435652,12.3432174 21.106,17.0375652 21.106,21.0635652 C21.1006957,21.4773043 20.7665217,21.8114783 20.358087,21.8114783 Z" fill="url(#linearGradient-26)"></path>
                            <path d="M18.9312174,28.5214783 C18.8304348,28.5214783 18.7243478,28.5002609 18.6288696,28.4578261 C18.2522609,28.288087 18.0825217,27.8478261 18.2522609,27.4712174 C18.8145217,26.2034783 19.2123478,24.8667826 19.4245217,23.4929565 C19.4881739,23.0845217 19.870087,22.8086957 20.2732174,22.8723478 C20.6816522,22.936 20.9574783,23.317913 20.8938261,23.7210435 C20.6604348,25.2221739 20.2307826,26.6914783 19.6101739,28.075913 C19.4934783,28.3570435 19.2176522,28.5214783 18.9312174,28.5214783 Z" fill="url(#linearGradient-27)"></path>
                        </g>
                    </g>
                </g>
            </g>
        </g>
    </g>
</svg>
