<?xml version="1.0" encoding="utf-8"?>
<!-- Generator: Adobe Illustrator 23.0.2, SVG Export Plug-In . SVG Version: 6.00 Build 0)  -->
<svg version="1.1" id="Capa_1" xmlns="http://www.w3.org/2000/svg" xmlns:xlink="http://www.w3.org/1999/xlink" x="0px"
     y="0px"
     viewBox="0 0 282 163" style="enable-background:new 0 0 282 163;" xml:space="preserve">
<style type="text/css">
	.st0{fill:#FFFFFF;}
</style>
    <g>
	<g>
		<path class="st0" d="M89.75,129.84c0.4,0.74-0.34,1.71-0.74,2.31c-0.6,0.91-1.31,1.74-2.08,2.55c-0.57,0.57-1.17,1.27-1.91,1.71
			c-0.67,0.4-1.64,0.3-0.84-0.54c0.23-0.13,1.17-2.48,1.64-2.45c-0.07,0.07-0.34,0.64-0.5,0.94c0.91-1.24,3.35-4.9,1.44-5.77
			c-0.77-0.34-1.91,0-2.68,0.27c-0.87,0.3-1.71,0.77-2.45,1.34c1.04-0.77,2.25-1.31,3.56-1.54c0.57-0.1,1.34-0.23,1.81,0.17
			c0.5,0.5,0.2,1.04,0.13,1.54c0-0.84,0.27-1.64-0.97-1.74c-1.04-0.03-2.11,0.34-3.02,0.77c-1.58,0.77-3.02,2.08-3.82,3.66
			c-1.78,3.52,0.87,7.28,2.25,10.43c-0.67-1.27-1.44-2.52-2.08-3.79c0.47,1.04,0.64,2.01,1.21,3.02c0.77,1.24,1.58,2.38,2.01,3.79
			c0.91,3.02-0.03,5.47-2.35,7.48l0.67-0.47c0.03,1.01-3.02,2.28-3.72,2.55c-2.01,0.81-4.66,0.97-6.67-0.03
			c-2.88-1.48-2.21-5.2-0.81-7.48c0.34-0.54,2.82-3.82,3.56-2.52c0.3,0.54-0.77,1.98-0.97,2.52c-0.27,0.57-0.44,1.17-0.57,1.78
			c-0.23,1.07-0.44,2.35,0.03,3.39c0.54,1.27,1.98,1.27,3.15,0.94c1.61-0.5,3.05-1.68,3.92-3.12c0.43-0.74,0.74-1.58,0.8-2.45
			c0-0.33-0.03-0.64-0.1-0.97c-0.07-0.17-0.27-0.47-0.2-0.7c0,0.14,0.13,0.37,0.2,0.54c-0.07-0.23-0.14-0.44-0.17-0.7
			c0,0.03-0.13-0.23-0.17-0.23c-0.1-0.23-0.2-0.5-0.27-0.74l-0.6-1.51c-0.67-1.74-1.47-3.45-2.21-5.2
			c-0.54-1.28-0.91-2.68-0.97-4.06c-0.04-0.3-0.2-2.35,0.33-2.35c-0.03,0-0.13,0.54-0.1,0.54c0.13-0.6,0.37-1.24,0.7-1.88
			l-0.23,0.33c0.17-1.17,1.58-2.41,2.38-3.15c1.17-1.07,2.65-1.88,4.19-2.28c1.61-0.4,3.05-0.13,4.56,0.5
			c0.6,0.23,1.17,0.5,1.64,0.91C89.31,128.6,89.48,129.21,89.75,129.84z M70.63,148.09c-1.58,2.15-2.38,5.03-0.64,7.21
			C68.69,153.65,69.26,150.07,70.63,148.09z M78.65,136.25c0-0.13,0.03-0.3,0-0.47V136.25z"/>
        <path class="st0" d="M95.86,148.89c-1.24,1.81-2.88,3.56-4.56,4.96c-0.97,0.81-2.25,1.58-3.59,1.41c-0.4-0.07-0.81-0.2-1.07-0.5
			c-0.2-0.2-1.11-1.51-0.94-1.71c0,0,0.13,0.33,0.17,0.37l-0.17-0.57c0,0.2-0.27-0.5-0.27-0.64c-0.07-0.44-0.07-0.91-0.07-1.34
			c0.03-0.84,0.17-1.64,0.2-2.45c0.03-0.74,0.2-1.44,0.43-2.15c0.04-0.17,0.64-2.01,0.84-1.98c0.04,0-0.07,0.3-0.03,0.3
			c0.13-0.34,0.23-0.7,0.4-1.07l-0.13,0.17c-0.03-0.03,1.17-2.48,1.31-2.72c0.54-0.87,1.17-1.64,2.01-2.25
			c0.57-0.44,1.24-0.74,1.98-0.64c0.9,0.13,1.21,0.57,1.54,1.27c0.3,0.67,0.54,1.17,0.47,2.05c-0.04,0.5-0.1,1.17-0.34,1.68
			c-0.23,0.47-1.28,1.11-1.81,0.74c-0.44-0.3-0.1-0.5,0.07-0.77l-0.17,0.13c0,0,0.47-1.71,0.54-1.71c0.04,0-0.1,0.74-0.1,0.77
			c0.14-0.44,0.57-3.42-0.57-2.52c-0.44,0.33-0.7,1.04-0.94,1.47c-0.4,0.84-0.74,1.68-1.04,2.52c0.4-1.07,0.87-2.15,1.47-3.12
			c0.2-0.37,0.44-0.77,0.81-0.97c0.03-0.03,0.3,0.07,0.23,0.1c-0.03,0.03-0.17-0.1-0.23-0.03c-0.77,0.74-1.21,1.71-1.64,2.68
			c-0.9,2.11-1.64,4.33-2.01,6.57c-0.17,1.07-0.34,2.31-0.1,3.35c0.07,0.23,0.13,0.57,0.37,0.7c0.57,0.4,1.47-0.33,1.94-0.67
			c0.7-0.54,1.47-1.07,2.05-1.68c-0.1,0.07-0.2,0.13-0.3,0.17c-0.07,0,0.57-0.81,0.64-0.87c0.34-0.34,0.64-0.7,0.94-1.07
			c0.54-0.67,1.11-1.34,1.64-2.05c0.27-0.34,2.01-3.12,2.68-2.45c0.5,0.57-0.7,1.84-1,2.28C96.93,147.42,96.36,148.12,95.86,148.89z
			 M86.4,147.95c-0.13,0.4-0.13,0.84-0.1,1.24c0-0.37,0-0.8,0.13-1.04C86.51,148.09,86.4,147.95,86.4,147.95z M86.57,147.42
			c-0.17,0.07-0.17,0.23-0.17,0.4c0-0.07,0.07-0.2,0.1-0.3L86.57,147.42z M87.71,144.06c-0.27,0.64-0.7,1.21-0.77,1.78
			c0.04-0.17,0.34-0.37,0.44-0.6c0.13-0.3,0.23-0.67,0.3-1.01C87.68,144.2,87.71,144.13,87.71,144.06z M89.32,145.74
			c-0.17,0.54-0.34,1.07-0.47,1.61L89.32,145.74z M89.46,145.2c-0.03,0.07-0.03,0.13-0.03,0.2c0-0.03,0-0.03,0.03-0.07V145.2z"/>
        <path class="st0" d="M113.04,144.83c0.14-0.03-0.77,1.84-0.9,2.01c-0.5,0.8-1.04,1.61-1.58,2.38c-0.97,1.47-1.88,3.19-3.15,4.43
			c-0.47,0.44-0.81,0.67-1.44,0.64c-0.77-0.03-1.28-0.37-1.78-0.87c-0.1-0.1-1-0.87-0.9-1.11l0.2,0.3c-0.1-0.17-0.17-0.34-0.23-0.54
			v0.14c-0.1,0.1-0.37-1.11-0.37-1.24c-0.03-0.5,0.07-1.01,0.17-1.51c0.23-0.81,0.47-1.61,0.67-2.42c0.23-0.84,0.67-1.64,1.07-2.45
			c0.07-0.13,0.7-1.44,0.84-1.44c0,0.03-0.13,0.33-0.1,0.37l0.51-1.14l-0.1,0.1l0.97-2.35c-1.24,1.01-2.21,2.38-3.19,3.59
			c-0.47,0.57-0.9,1.28-1.47,1.74c-0.2,0.17-0.27,0.07-0.44,0.27c-0.13,0.17-0.23,0.4-0.34,0.6c-0.77,1.28-1.74,2.42-2.55,3.66
			l-0.6,1.07c-0.07,0.17-0.07,0.27-0.2,0.44c-0.43,0.47-1.21,0.3-1.58-0.17c-0.3-0.34-0.34-0.8-0.34-1.21
			c-0.13-1.48,0.2-3.05,0.47-4.49c0.57-3.15,1.34-6.3,2.38-9.36c0.91-2.72,2.28-5.17,3.59-7.71c0-0.03,0.17-0.74,0.34-0.84
			c-0.03,0.03-0.23,0.64-0.23,0.64l0.4-0.77c0,0-0.03,0-0.07-0.03c0-0.6,0.74-1.51,1.07-2.01c0.47-0.77,0.97-1.51,1.51-2.25
			c0.94-1.31,1.84-2.75,3.12-3.72c0.67-0.5,1.47-0.97,2.35-0.91c0.44,0,0.87,0.17,1.17,0.47c0.13,0.13,0.74,1.17,0.54,1.31
			c0,0-0.17-0.5-0.2-0.5c0.2,0.54,0.23,1.14,0.2,1.68c0.03-0.07,0.03-0.1,0.07-0.1c0.17,0-0.57,3.09-0.64,3.35
			c-0.34,1.17-0.81,2.31-1.31,3.42c-1.14,2.35-2.52,4.86-4.22,6.87c-0.34,0.37-0.77,0.64-1.07,0.94c-0.34,0.37-0.57,0.84-0.91,1.24
			c-0.87,1-1.81,1.94-2.78,2.82c-0.57,0.54-0.77,0.84-1.04,1.58c-0.23,0.7-0.44,1.41-0.67,2.08c-0.43,1.34-0.84,2.68-1.21,4.06
			c0.57-0.87,1.17-1.71,1.81-2.55c-0.43,0.5-0.74,0.87-0.74,0.87c-0.07-0.03,4.16-5.2,4.6-5.67c1-1.07,2.85-3.39,4.33-1.58
			c0.84,1.04,0.2,2.28-0.3,3.29c-0.87,1.84-1.94,3.99-2.48,5.87c0.03-0.03,0.2-0.54,0.3-0.47c0.2,0.2-0.4,1.78-0.47,2.08
			c-0.03,0.23-0.27,1.31,0,1.48c0.44,0.3,1.21-0.6,1.51-0.87c1.21-1.17,2.31-2.48,3.42-3.76c0.4-0.5,0.8-1.04,1.27-1.51
			c0.1-0.1,0.34-0.44,0.51-0.44C112.87,144.63,113.24,144.8,113.04,144.83z M101.43,138.6c-0.03,0.17-0.17,0.7-0.1,0.7
			c-0.1-0.03,1.24-3.55,1.38-3.89c0.27-0.7,0.67-1.31,0.9-2.05c0.27-0.77,0.61-1.44,0.97-2.15c0.43-0.94,4.56-8.82,4.29-8.99
			c-0.07-0.03-3.29,6.1-3.59,6.78c-0.67,1.41-1.54,2.75-2.08,4.22c-0.6,1.74-1.44,3.45-1.74,5.27L101.43,138.6z M101.43,138.6
			c0,0,0.03-0.03,0.03-0.07C101.47,138.56,101.43,138.56,101.43,138.6z M109.85,122.1c-1.21,1.91-2.25,3.99-3.29,6
			c-0.94,1.84-1.98,3.76-2.78,5.6c0.1-0.17,0.2-0.33,0.27-0.37c0,0-0.7,1.98-0.81,2.18l-1,2.65c2.41-2.55,4.49-5.4,6.2-8.42
			c-0.67,1.11-1.38,2.21-2.11,3.22l-1.34,1.88l-0.6,0.6l0.27-0.3c0.34-0.4,0.64-0.8,0.94-1.21c0.57-0.8,1.14-1.64,1.68-2.48
			c1.11-1.74,2.11-3.52,2.92-5.4c0.4-0.97,0.8-1.98,1.07-3.02c0.13-0.5,0.57-1.91,0.1-2.31c-0.47-0.4-1.14,0.8-1.41,1.21
			c0.03-0.03,0,0.03-0.04,0.1v-0.03c0,0.03-0.03,0.03-0.03,0.03v0.03C109.88,122.1,109.85,122.1,109.85,122.1z M104.02,135.85
			c-0.1,0.1-0.17,0.23-0.23,0.3C103.85,136.05,103.91,135.95,104.02,135.85z M109.92,122.03h-0.03v0.03L109.92,122.03z"/>
        <path class="st0" d="M122.74,146.11c-0.07,0-0.51,0.14-0.47,0.1c-0.34,0.13-0.27,0.1-0.51,0.4c-0.27,0.4-0.5,0.84-0.74,1.24
			c-0.13,0.13-1.34,1.91-1.58,1.81c0,0,0.27-0.34,0.23-0.37l-0.97,1.14c0.1-0.1,0.17-0.13,0.17-0.1c-0.2,0.57-1.31,1.24-1.81,1.61
			c-0.54,0.4-1.21,0.77-1.91,0.87c-0.67,0.07-1.41-0.07-2.05-0.37c-1.98-0.97-3.15-3.66-2.08-5.7c0.57-1.07,0.97-2.28,1.78-3.35
			c0.47-0.57,0.97-1.14,1.61-1.54c0.27-0.2,0.57-0.37,0.9-0.5c0.23-0.13,0.74-0.17,0.91-0.3c0.2-0.13,0.4-1,0.54-1.27
			c0.14-0.27,0.3-0.54,0.47-0.77c0.47-0.67,1.04-1.34,1.74-1.74c1.14-0.64,2.28,0,3.12,0.84c0,0,0.57,0.37,0.54,0.57l-0.13-0.14
			l0.13,0.27l0.03,0.03c-0.1-0.27,0.3,0.23,0.3,0.23c0.17,0.27,0.27,0.57,0.33,0.87c0.1,0.47,0.07,0.97,0,1.44
			c-0.13,1.24-0.5,2.52-0.87,3.72c1-0.17,2.01-0.4,2.98-0.6c0.23-0.07,0.47-0.23,0.64,0c0.04,0.07,0,0.03,0,0.03
			C127.03,145.77,123.11,146.04,122.74,146.11z M119.58,146.21c-1.47-0.2-3.29-0.84-3.66-2.52c-0.23,0.27-0.7,1.07-1.21,2.08
			l0.2-0.3c-0.07,0.33-3.29,6.24-0.5,5.84h0.03C116.8,150.87,118.61,148.15,119.58,146.21z M121.2,138.66
			c-0.67-1.04-1.91,0.47-2.42,1.14c-0.03,0-0.03,0.03-0.03,0.03l-0.03,0.07v-0.03c-0.03,0.07-0.07,0.1-0.03,0.1
			c-0.17,0.23-0.37,0.44-0.57,0.81c0.03-0.03,0.4-0.64,0.43-0.54c0.1,0.2-0.54,1.27-0.64,1.48c-0.2,0.54-0.37,1.07-0.44,1.64
			c-0.07,0.57-0.13,1.21,0.34,1.61c0.27,0.23,0.7,0.3,1.07,0.34c0.2,0.03,0.64,0.1,0.84,0.03c0.34-0.07,0.23,0.03,0.4-0.3
			c0.5-0.84,0.7-2.08,0.94-3.02C121.23,141.18,121.7,139.53,121.2,138.66z M118.78,139.8l-0.03,0.03
			C118.75,139.84,118.78,139.84,118.78,139.8z"/>
        <path class="st0" d="M135.86,146.11c-0.07,0-0.51,0.14-0.47,0.1c-0.34,0.13-0.27,0.1-0.51,0.4c-0.27,0.4-0.5,0.84-0.74,1.24
			c-0.13,0.13-1.34,1.91-1.58,1.81c0,0,0.27-0.34,0.23-0.37l-0.97,1.14c0.1-0.1,0.17-0.13,0.17-0.1c-0.2,0.57-1.31,1.24-1.81,1.61
			c-0.54,0.4-1.21,0.77-1.91,0.87c-0.67,0.07-1.41-0.07-2.05-0.37c-1.98-0.97-3.15-3.66-2.08-5.7c0.57-1.07,0.97-2.28,1.78-3.35
			c0.47-0.57,0.97-1.14,1.61-1.54c0.27-0.2,0.57-0.37,0.9-0.5c0.23-0.13,0.74-0.17,0.91-0.3c0.2-0.13,0.4-1,0.54-1.27
			c0.14-0.27,0.3-0.54,0.47-0.77c0.47-0.67,1.04-1.34,1.74-1.74c1.14-0.64,2.28,0,3.12,0.84c0,0,0.57,0.37,0.54,0.57l-0.13-0.14
			l0.13,0.27l0.03,0.03c-0.1-0.27,0.3,0.23,0.3,0.23c0.17,0.27,0.27,0.57,0.34,0.87c0.1,0.47,0.07,0.97,0,1.44
			c-0.13,1.24-0.5,2.52-0.87,3.72c1-0.17,2.01-0.4,2.98-0.6c0.23-0.07,0.47-0.23,0.64,0c0.04,0.07,0,0.03,0,0.03
			C140.15,145.77,136.23,146.04,135.86,146.11z M132.71,146.21c-1.47-0.2-3.29-0.84-3.66-2.52c-0.23,0.27-0.7,1.07-1.21,2.08
			l0.2-0.3c-0.07,0.33-3.29,6.24-0.5,5.84h0.03C129.92,150.87,131.73,148.15,132.71,146.21z M134.32,138.66
			c-0.67-1.04-1.91,0.47-2.42,1.14c-0.03,0-0.03,0.03-0.03,0.03l-0.03,0.07v-0.03c-0.04,0.07-0.07,0.1-0.04,0.1
			c-0.17,0.23-0.37,0.44-0.57,0.81c0.03-0.03,0.4-0.64,0.43-0.54c0.1,0.2-0.54,1.27-0.64,1.48c-0.2,0.54-0.37,1.07-0.44,1.64
			c-0.07,0.57-0.13,1.21,0.34,1.61c0.27,0.23,0.7,0.3,1.07,0.34c0.2,0.03,0.64,0.1,0.84,0.03c0.34-0.07,0.23,0.03,0.4-0.3
			c0.5-0.84,0.7-2.08,0.94-3.02C134.35,141.18,134.82,139.53,134.32,138.66z M131.9,139.8l-0.03,0.03
			C131.87,139.84,131.9,139.84,131.9,139.8z"/>
        <path class="st0" d="M150.99,145.3c-0.2,0.74-0.64,1.41-1.04,2.08c-1.01,1.61-1.88,3.32-2.98,4.93c-1.21,1.74-2.52,3.52-4.06,5.03
			c-1.31,1.24-3.12,2.21-4.7,0.77c-1.41-1.31-1.41-3.66-1.31-5.43c0.13-1.88,0.64-3.69,1.07-5.5c0.04-0.07,0-0.87,0.17-1.11
			c-0.04,0.07-0.04,0.3-0.07,0.5c0.07-0.23,0.13-0.47,0.23-0.7h-0.1c-0.1-0.67,0.37-1.71,0.57-2.35c0.23-0.77,0.5-1.58,0.77-2.35
			c0.5-1.44,1.04-2.85,1.51-4.29c0.44-1.44,1.11-2.82,1.78-4.16c0.3-0.64,0.64-1.27,1.01-1.91c0.1-0.17,0.84-1.61,1-1.58l-0.27,0.57
			l1.07-1.84l-0.04,0.03c0.17-0.27,0.4-0.77,0.57-0.97l0.77-1.04c0.47-0.57,1.04-1.37,1.81-1.61c1.47-0.47,2.68,1.07,2.88,2.38
			l0.03,0.03v0.17c0.2,2.05-1,4.46-1.91,6.2c-0.54,1.07-1.11,2.38-1.94,3.25c-0.57,0.64-0.87,1.31-1.34,2.08
			c-1.28,2.05-2.65,4.09-4.16,5.97c-0.37,0.47-0.6,0.77-0.77,1.37c-0.2,0.64-0.37,1.27-0.54,1.94c-0.2,0.67-0.37,1.34-0.54,2.01
			c-0.07,0.3-0.37,1.24-0.33,1.31c-0.1,0.4-0.17,0.84-0.2,1.24l0.27-1.01c0.17,0.27-0.1,1.28-0.13,1.58c-0.07,0.5-0.1,1.04-0.1,1.58
			c0,0.64,0,2.08,0.84,2.21c1.14,0.13,2.35-1.58,2.92-2.28c1.37-1.64,2.52-3.49,3.65-5.3c0.6-0.94,1.17-1.88,1.74-2.85
			c0.37-0.6,0.67-1.44,1.14-1.94C151.06,143.53,151.12,144.77,150.99,145.3z M138.65,147.22c-0.13,0-0.3,0.7-0.4,1.48v-0.03
			c-0.23,1.17-0.37,2.42-0.44,3.62l0.1-1.07v0.1c0-0.23,0.07-0.44,0.1-0.67c0.2-1.01,0.23-2.28,0.64-3.22c0,0,0-0.03,0.03-0.1
			C138.71,147.28,138.71,147.18,138.65,147.22z M142.91,141.48c2.48-3.99,5.3-8.18,6.81-12.68c-0.57,1.61-1.41,3.15-2.18,4.63
			c-0.47,0.84-0.9,1.68-1.41,2.52c-0.3,0.5-0.91,1.27-1.11,1.81c0.27-0.87,1.07-1.88,1.54-2.68l1.41-2.62
			c0.81-1.61,2.01-3.59,2.08-5.47v-0.03c0.07-1.78-1.44,0.23-1.68,0.6c-0.94,1.51-1.61,3.15-2.28,4.76
			C144.85,135.31,143.88,138.53,142.91,141.48z M144.01,132.09c-0.03,0.03-0.03,0.1-0.03,0.14c0.74-1.34,1.61-2.62,2.31-4.03
			c-0.34,0.6-0.94,1.14-1.28,1.78C144.65,130.68,144.31,131.35,144.01,132.09z"/>
        <path class="st0" d="M179.27,129.84c0.4,0.74-0.34,1.71-0.74,2.31c-0.6,0.91-1.31,1.74-2.08,2.55c-0.57,0.57-1.17,1.27-1.91,1.71
			c-0.67,0.4-1.64,0.3-0.84-0.54c0.23-0.13,1.17-2.48,1.64-2.45c-0.07,0.07-0.34,0.64-0.5,0.94c0.91-1.24,3.35-4.9,1.44-5.77
			c-0.77-0.34-1.91,0-2.68,0.27c-0.87,0.3-1.71,0.77-2.45,1.34c1.04-0.77,2.25-1.31,3.56-1.54c0.57-0.1,1.34-0.23,1.81,0.17
			c0.5,0.5,0.2,1.04,0.13,1.54c0-0.84,0.27-1.64-0.97-1.74c-1.04-0.03-2.11,0.34-3.02,0.77c-1.58,0.77-3.02,2.08-3.82,3.66
			c-1.78,3.52,0.87,7.28,2.25,10.43c-0.67-1.27-1.44-2.52-2.08-3.79c0.47,1.04,0.64,2.01,1.21,3.02c0.77,1.24,1.58,2.38,2.01,3.79
			c0.91,3.02-0.03,5.47-2.35,7.48l0.67-0.47c0.03,1.01-3.02,2.28-3.72,2.55c-2.01,0.81-4.66,0.97-6.67-0.03
			c-2.88-1.48-2.21-5.2-0.81-7.48c0.34-0.54,2.82-3.82,3.56-2.52c0.3,0.54-0.77,1.98-0.97,2.52c-0.27,0.57-0.44,1.17-0.57,1.78
			c-0.23,1.07-0.44,2.35,0.03,3.39c0.54,1.27,1.98,1.27,3.15,0.94c1.61-0.5,3.05-1.68,3.92-3.12c0.43-0.74,0.74-1.58,0.8-2.45
			c0-0.33-0.03-0.64-0.1-0.97c-0.07-0.17-0.27-0.47-0.2-0.7c0,0.14,0.13,0.37,0.2,0.54c-0.07-0.23-0.14-0.44-0.17-0.7
			c0,0.03-0.13-0.23-0.17-0.23c-0.1-0.23-0.2-0.5-0.27-0.74l-0.6-1.51c-0.67-1.74-1.47-3.45-2.21-5.2
			c-0.54-1.28-0.91-2.68-0.97-4.06c-0.04-0.3-0.2-2.35,0.33-2.35c-0.03,0-0.13,0.54-0.1,0.54c0.13-0.6,0.37-1.24,0.7-1.88
			l-0.23,0.33c0.17-1.17,1.58-2.41,2.38-3.15c1.17-1.07,2.65-1.88,4.19-2.28c1.61-0.4,3.05-0.13,4.56,0.5
			c0.6,0.23,1.17,0.5,1.64,0.91C178.84,128.6,179.01,129.21,179.27,129.84z M160.16,148.09c-1.58,2.15-2.38,5.03-0.64,7.21
			C158.21,153.65,158.78,150.07,160.16,148.09z M168.17,136.25c0-0.13,0.03-0.3,0-0.47V136.25z"/>
        <path class="st0" d="M190.05,146.18c-0.47,0.8-1.11,1.54-1.74,2.25c-0.97,1.04-2.38,2.75-3.96,2.85c-0.74,0.07-1.51-0.3-1.91-0.97
			c-0.7-1.28,0.04-2.89,0.47-4.06c-0.87,1.04-1.71,2.08-2.55,3.15c-0.23,0.3-2.78,2.88-3.12,2.45c0-0.03,0.3-0.17,0.27-0.2
			c-0.34,0.2-0.7,0.37-1.07,0.37c0.03,0.03,0.1,0.03,0.17,0.03c0.07,0.23-0.9-0.13-1-0.2c-0.37-0.34-0.54-0.87-0.64-1.34
			c-0.17-1.07,0-2.15,0.27-3.19c0.27-1.07,0.54-2.11,1-3.15c0.23-0.54,0.64-0.81,0.87-1.28c0.37-0.84,0.84-1.91,1.58-2.52
			c0.6-0.54,1.68-0.44,2.28,0.03c0.6,0.47,0.27,0.7,0,1.17c0.07-0.1,0.13-0.17,0.2-0.2c0.07,0-0.74,1.64-0.91,1.61
			c0,0,0.1-0.34,0.2-0.54c-0.44,0.77-0.84,1.58-1.21,2.38c0.07-0.1,0.13-0.13,0.2-0.13c-0.07-0.03-1.27,3.08-1.37,3.35
			c-0.13,0.5-0.74,1.98,0.17,1.68c0.97-0.27,1.91-1.61,2.52-2.31c0.81-0.91,1.48-1.88,2.18-2.88c0.74-1.11,1.61-2.95,3.32-2.48
			c1.51,0.44,0.37,2.05-0.1,2.98c0.07-0.07,0.13-0.17,0.17-0.13c0.2,0.23-0.47,1.51-0.57,1.84c-0.2,0.64-0.47,1.37-0.5,2.08
			c-0.03,0.8,0.2,0.57,0.74,0.17c1.14-0.91,2.08-2.05,3.05-3.09c0.07-0.07,1.61-1.84,1.71-1.21
			C190.78,145.1,190.25,145.84,190.05,146.18z M178.55,146.48c-0.37,0.91-1.07,2.25-0.87,3.22
			C177.61,149.4,178.08,147.78,178.55,146.48z M183.04,146.11c-0.1,0.07-0.13,0.17-0.13,0.3
			C182.94,146.31,182.97,146.21,183.04,146.11z M186.49,143.26c-0.33,0.84-1.34,1.91-1.07,2.75c0,0.03,0,0.07-0.03,0.1
			c0.03-0.03,0.07-0.07,0.07-0.1c0.1-0.17,0.13-0.44,0.2-0.64C185.89,144.67,186.22,144,186.49,143.26z"/>
        <path class="st0" d="M196.3,146.44c-0.57,0.84-1.11,1.64-1.74,2.45c-0.67,0.91-1.51,2.35-2.68,2.62c-0.27,0.03-1.54-0.3-1.51-0.5
			h0.07c-0.27-0.13,0,0.17-0.4-0.13c-0.3-0.2-0.5-0.5-0.7-0.8c-0.37-0.5-0.84-0.94-0.97-1.54c-0.03-0.17-0.1-1.37,0.17-1.37
			c0.07,0,0,0.17,0.03,0.17l0.1-0.6c-0.03,0.07-0.03,0.1-0.1,0.14c-0.13-0.03,0.5-2.42,0.57-2.62c0.27-0.7,0.4-1.51,1.07-1.91
			c0.5-0.34,1.14-0.27,1.78,0c0.27,0.1,1.04,0.44,1.04,0.77c0,0.2-0.17,0.23-0.27,0.33c0.03-0.03,0.1-0.03,0.13-0.03
			c0.1,0.07-0.4,0.77-0.47,0.74c-0.07,0,0.04-0.17,0.07-0.27c-0.64,1.04-1.17,2.21-1.58,3.39c0.17-0.44,1-2.31,1.11-2.28
			c0.1,0.03-2.21,4.06-1.07,4.63c0.54,0.27,1.44-0.57,1.81-0.87c0.64-0.5,1.51-1.14,1.98-1.71c-0.07,0.07-0.13,0.07-0.23,0.07
			c-0.13-0.17,1.54-2.38,1.84-2.58c0.23-0.17,0.7-0.3,0.77,0.14C197.23,145.27,196.63,146.01,196.3,146.44z M190.59,148.36
			l-0.07,0.27l0.07-0.2v-0.03C190.63,148.32,190.63,148.32,190.59,148.36z M191.03,140.07c-0.03-0.1-0.13-1.14,0.23-0.97
			c0-0.1,0.4-0.6,0.2-0.17c0.3-0.4,0.57-0.87,0.81-1.37l-0.4,0.6c0.3-0.6,0.77-1.84,0.81-2.08c0-0.03-0.07-0.33,0-0.4
			c-0.7-0.27-0.2-0.67,0.1-0.91c-0.07,0-0.1,0-0.13-0.07c-0.13-0.13,0.27-0.23,0.37-0.27c0.47-0.2,1.07-0.1,1.51,0.13
			c0.37,0.23,0.7,0.74,0.84,1.14c0.13,0.44-0.2,0.94-0.5,1.21c-0.13,0.13-0.37,0.23-0.54,0.37c-0.2,0.23-0.17,0.54-0.33,0.77
			c-0.1,0.17-0.3,0.23-0.4,0.4c-0.13,0.1-0.13,0.2-0.03,0.3c-0.13,0.07-0.23,0.13-0.34,0.23c-0.34,0.54-0.54,0.84-0.94,1.14
			c0.37-0.23,0.6-0.44,0.94-0.87c0.27-0.34,0.57-0.57,0.97-0.74c-0.34,0.37-0.4,0.81-0.81,1.07c-0.4,0.23-0.03-0.23-0.47,0.17
			c0,0,0.2-0.03,0.1,0.03c-0.3,0.27-0.6,0.7-1,0.87c-0.2,0.07-0.34,0.2-0.57,0.1c-0.23-0.13-0.13-0.27-0.2-0.37
			C191.23,140.41,191.03,140.11,191.03,140.07z M191.3,139.1c0.03,0,0.03,0.03,0.03,0.03c0.04-0.03,0.04-0.03,0.04-0.07
			C191.33,139.1,191.33,139.1,191.3,139.1z M191.84,138.23c-0.07,0.13-0.14,0.2-0.14,0.2L191.84,138.23z"/>
        <path class="st0" d="M208.27,135.48c0.03,0.47-0.54,0.84-0.94,0.94c-0.43,0.13-0.94-0.13-1.34-0.07
			c-0.23,0.07-0.17,0.17-0.37,0.23c-0.3,0.1-0.67,0.07-0.97,0.07c-0.44,0-1.38-0.23-1.74,0c-0.07,0.03-0.13,0.1-0.2,0.2l0.1-0.2
			c-0.2,0.03-0.54,0.94-0.77,1.54l0.37-0.74l-0.47,1.28c-0.34,0.7-0.64,1.44-0.94,2.15c-0.6,1.41-1.14,2.78-1.68,4.23
			c-0.91,2.61-1.81,5.37-2.41,8.08c-0.1,0.47-0.67,2.42-0.03,2.68c0.1,0.07,0.8-0.34,0.77-0.3c0.17-0.17,0.37-0.34,0.54-0.54
			c-0.14,0.1-0.51,0.4-0.51,0.34c-0.03-0.2,0.81-0.87,0.94-1.04c0.34-0.33,0.64-0.7,0.94-1.04l1.94-2.38
			c1.21-1.51,2.35-3.05,3.56-4.56c0.27-0.33,0.87-1.51,1.31-1.61c0.54-0.1,0.64,0.44,0.47,0.87c-0.3,0.91-1.21,1.64-1.68,2.45
			c-0.84,1.41-1.84,2.72-2.82,4.06c-1.07,1.44-2.15,2.88-3.32,4.26c-0.54,0.67-1.24,1.61-2.08,2.01c-0.64,0.3-1.47-0.07-2.01-0.47
			c-0.6-0.4-0.94-1-1.07-1.68c-0.03-0.2-0.23-1.27-0.03-1.51v0.5l0.07-0.67c-0.07,0.13-0.07-0.3-0.07-0.37
			c0-0.27,0.07-0.57,0.13-0.84c0.07-0.54,0.2-1.04,0.34-1.58c0.23-1.04,0.5-2.08,0.7-3.15c0.17-1.07,0.54-2.08,0.87-3.09
			c0.07-0.17,0.74-2.21,0.91-2.21c0.03,0-0.07,0.4-0.07,0.44c0.13-0.5,0.34-1.01,0.5-1.51c-0.07,0.17-0.17,0.33-0.17,0.27
			c0-0.4,0.44-1.11,0.57-1.48l0.4-1.17c0.37-1.07,0.74-2.15,1.21-3.15c-0.94,0.07-1.84,0-2.72,0.17c-1.27,0.23-2.88,0.1-4.16-0.07
			c-0.17-0.03-0.97-0.07-0.77-0.44c0.07-0.1,0.81-0.27,0.94-0.3c0.64-0.23,1.31-0.23,1.98-0.27c1.31-0.14,2.58-0.07,3.89-0.23
			c0.34-0.03,0.91,0.07,1.21-0.07c0.3-0.1,0.3-0.34,0.44-0.64c0.23-0.6,0.5-1.21,0.77-1.78c0.3-0.64,0.57-1.31,0.97-1.88
			c0.27-0.37,0.54-0.47,0.74-0.87c0.4-0.91,0.87-1.81,1.51-2.58c0.67-0.87,1.85-1.01,2.89-0.81c0.5,0.1,1.21,0.4,0.97,1.07
			c-0.1,0.27-0.44,0.44-0.64,0.64c0,0.03,0.3-0.3,0.3-0.17c-0.03,0.23-1.28,1.95-1.38,1.91c-0.03,0,0.47-0.84,0.51-0.91
			c-1.28,1.88-2.35,3.92-3.35,5.97c0.1,0,0.2-0.13,0.33-0.37c-0.1,0.2-0.17,0.34-0.17,0.37c1.31-0.07,2.65-0.07,3.99-0.13
			c0.27,0,0.77-0.37,0.81,0.1V135.48z M196.26,156.1c0.04,0.03,0.07,0.07,0.1,0.07L196.26,156.1z M206.26,129
			c-2.68,3.79-4.36,8.28-6.24,12.48c-1.11,2.45-2.05,5-2.78,7.58c-0.34,1.17-0.6,2.35-0.84,3.56l0.17-0.64
			c0.37-1.58,0.91-3.15,1.47-4.66c1.21-3.32,2.35-6.74,3.86-9.93C203.24,134.54,204.45,131.59,206.26,129z M200.69,141.25
			c-0.3,0.67-0.54,1.34-0.81,1.98c0.27-0.6,0.54-1.21,0.77-1.84C200.66,141.35,200.66,141.31,200.69,141.25z M204.01,134.3
			l-0.33,0.74C203.78,134.84,203.91,134.57,204.01,134.3z M204.92,132.53l-0.81,1.54C204.45,133.3,204.75,132.56,204.92,132.53z"/>
        <path class="st0" d="M217.67,145.24l-1.04,1.37l-1.81,2.35c-0.47,0.6-1.04,1.17-1.51,1.78c-0.5,0.67-0.94,1.37-1.51,2.01
			c-0.6,0.64-1.31,1.31-2.11,1.74c-0.57,0.3-1.11,0.34-1.71,0.17c-0.87-0.23-1.64-0.77-2.21-1.44c-0.17-0.2-0.34-0.37-0.37-0.64
			c-0.04-0.2-0.07-0.44-0.07-0.67c-0.03-0.4,0.1-0.7,0.17-1.11c0.07-0.44,0.27-0.84,0.33-1.27c0.07-0.47,0.2-0.91,0.27-1.34
			c0.03-0.4-0.04-0.84,0.07-1.24c0.07-0.27,0.27-0.54,0.37-0.84c-0.1,0.2-0.27,0.4-0.3,0.57c-0.1,0.27-0.17,0.54-0.27,0.77
			c-0.1,0.27-0.13,0.5-0.23,0.77c-0.13,0.3-0.27,0.57-0.3,0.91c-0.03,0.3,0,0.6-0.03,0.91c-0.07,0.3-0.13,0.54-0.13,0.84
			c0,0.1,0.07,0.3,0.07,0.37c0,0.14-0.07,0.3-0.07,0.47c0,0.3,0.07,0.6,0.1,0.94c-0.54-0.94-0.43-1.88-0.27-2.88
			c0.17-1.01,0.3-1.98,0.54-2.95c0.43-1.98,1.34-3.92,2.62-5.5c1.04-1.37,2.41-2.42,4.22-2.08c0.67,0.13,1.41,0.44,1.84,1.01
			c0.47,0.64,0.44,1.44,0.2,2.18c-0.43,1.31-1.54,2.35-2.58,3.22c-0.44,0.37-0.91,0.74-1.41,1.04c-0.34,0.2-0.7,0.34-1.07,0.47
			l-0.57,0.2c-0.23,0.07-0.27,0.03-0.37,0.23c-0.17,0.34-0.07,0.67-0.13,1.01c-0.07,0.44-0.17,0.84-0.27,1.27
			c-0.17,0.81-0.43,1.84-0.23,2.68c0.37,1.71,3.19-0.94,3.69-1.41c0.34-0.3,0.64-0.64,0.94-0.94c0.17-0.2,0.37-0.37,0.5-0.57
			c0,0,0.07-0.17,0.07-0.23c0.4-0.64,0.94-1.24,1.44-1.84c0.6-0.7,1.14-1.44,1.71-2.21c0.3-0.44,1-1.68,1.54-0.77v0.03
			c0.04,0.03,0.04,0.03,0.04,0C217.93,144.87,217.83,145.03,217.67,145.24z M209.05,146.04c1.07-0.57,2.05-1.34,2.82-2.25l0.57-0.74
			c0.1-0.17,0.27-0.27,0.34-0.47c0.03-0.17-0.04-0.3,0-0.5l0.13-0.7c0.03-0.34-0.1-1.21-0.6-1.11c-0.23,0.07-0.47,0.37-0.6,0.54
			l-0.61,0.8c-0.7,1.04-1.07,2.18-1.58,3.25c0,0,0,0.03-0.03,0.1C209.32,145.3,209.21,145.67,209.05,146.04z"/>
	</g>
        <path class="st0" d="M34.98,62.74c2.33,0,4.32,0.75,5.98,2.25c1.65,1.5,2.48,3.31,2.48,5.43c0,1.96-0.71,3.66-2.14,5.1
		c-1.43,1.41-3.21,2.24-5.34,2.48l7.84,8.83h-7.64L28.9,78.1H17.91v8.74h-6.58V62.74H34.98z M17.91,72.79l16.44,0.02
		c0.77,0,1.39-0.22,1.85-0.67c0.5-0.46,0.74-1.02,0.73-1.69c0.01-0.7-0.23-1.26-0.73-1.69c-0.46-0.47-1.07-0.68-1.85-0.65H17.91
		V72.79z"/>
        <path class="st0" d="M76.71,62.74v5.36H53.53v3.94h20.08v5.27H53.53v4.16h23.18v5.36H46.95V62.74H76.71z"/>
        <path class="st0" d="M100.66,62.74l15.3,24.09h-7.09l-3.33-5.28h-16.3l-3.36,5.28h-7.07l15.3-24.09H100.66z M92.48,76.46h9.81
		l-4.89-7.74L92.48,76.46z"/>
        <g>
		<path class="st0" d="M193.95,62.74v24.09h-6.58V62.74H193.95z"/>
            <path class="st0" d="M203.69,62.74v15.92c0,0.77,0.3,1.44,0.89,2c0.6,0.53,1.33,0.8,2.2,0.81h13.42c0.88-0.04,1.61-0.31,2.2-0.83
			c0.6-0.57,0.9-1.23,0.9-1.99V62.74h6.57V79.8c0.01,1.95-0.74,3.6-2.26,4.98c-1.5,1.37-3.33,2.06-5.48,2.06h-17.28
			c-2.15,0-3.98-0.69-5.49-2.06c-1.5-1.37-2.25-3.03-2.25-4.98V62.74H203.69z"/>
            <path class="st0" d="M271.48,62.74v24.09h-6.58V71.57l-9.81,13.1h-5.64l-9.81-13.1v15.27h-6.58V62.74h6.82l12.38,16.88
			l12.38-16.88H271.48z"/>
	</g>
        <path id="XMLID_79_" class="st0" d="M154.06,52.2c0,6.04-4.89,10.93-10.93,10.93c-6.03,0-10.93-4.89-10.93-10.93
		c0-6.03,4.9-10.93,10.93-10.93C149.17,41.27,154.06,46.17,154.06,52.2z"/>
        <path id="XMLID_78_" class="st0" d="M143.13,14.67c10.03,0,19.11,4.08,25.7,10.66l4.08-4.08c-7.63-7.63-18.16-12.35-29.77-12.35
		c-11.61,0-22.14,4.72-29.77,12.35l4.07,4.08C124.01,18.74,133.11,14.67,143.13,14.67z"/>
        <path id="XMLID_77_" class="st0" d="M143.13,26.19c6.84,0,13.05,2.78,17.54,7.28l4.07-4.07c-5.54-5.54-13.19-8.97-21.62-8.97
		c-8.43,0-16.08,3.43-21.62,8.97l4.08,4.07C130.08,28.98,136.29,26.19,143.13,26.19z"/>
        <path id="XMLID_76_" class="st0" d="M143.13,37.72c3.66,0,6.99,1.49,9.4,3.9l4.07-4.07c-3.45-3.45-8.21-5.59-13.47-5.59
		c-5.25,0-10.02,2.14-13.47,5.59l4.07,4.07C136.14,39.21,139.46,37.72,143.13,37.72z"/>
        <g>
		<path class="st0" d="M149.29,47.93h-0.53v-0.95c0-1.03-0.84-1.86-1.86-1.86h-7.52c-1.04,0-1.87,0.83-1.87,1.86v0.95h-0.54
			c-0.22,0-0.39,0.17-0.39,0.39v2.15c0,0.22,0.17,0.39,0.39,0.39h0.54v4.63c-0.21,0.18-0.34,0.46-0.34,0.76v0.72
			c0,0.56,0.46,1.02,1.01,1.02h0.13V59c0,0.17,0.13,0.3,0.29,0.3h1.38c0.16,0,0.29-0.13,0.29-0.3v-1.02h5.69V59
			c0,0.17,0.14,0.3,0.3,0.3h1.37c0.17,0,0.3-0.13,0.3-0.3v-1.02h0.12c0.56,0,1.02-0.46,1.02-1.02v-0.72c0-0.3-0.13-0.57-0.34-0.76
			v-4.63h0.53c0.21,0,0.39-0.17,0.39-0.39v-2.15C149.68,48.1,149.5,47.93,149.29,47.93L149.29,47.93z M147.61,48.08v4.59h-3.97
			v-4.59H147.61z M141.15,46.08h3.95c0.28,0,0.51,0.22,0.51,0.5c0,0.27-0.23,0.49-0.51,0.49h-3.95c-0.28,0-0.5-0.22-0.5-0.49
			C140.65,46.31,140.88,46.08,141.15,46.08L141.15,46.08z M138.66,48.08h3.96v4.59h-3.96V48.08z M140.43,54.71
			c0,0.27-0.22,0.49-0.5,0.49h-0.81c-0.27,0-0.49-0.22-0.49-0.49v-0.54c0-0.27,0.22-0.49,0.49-0.49h0.81c0.27,0,0.5,0.22,0.5,0.49
			V54.71z M145.83,54.71v-0.54c0-0.27,0.22-0.49,0.49-0.49h0.81c0.27,0,0.49,0.22,0.49,0.49v0.54c0,0.27-0.22,0.49-0.49,0.49h-0.81
			C146.05,55.2,145.83,54.98,145.83,54.71L145.83,54.71z M145.83,54.71"/>
	</g>
        <path class="st0" d="M185.51,111.04l-1.99-1.54l1.03-1.33l1.48,1.15v-6.98l-31.49-24.13l31.49-24.27v-7.56l-1.48,1.14l-1.03-1.33
		l1.99-1.54l0.51,0.67v-8.89l-42.35,34.61l-42.19-34.72v8.89l0.51-0.66l1.99,1.54l-1.02,1.33l-1.48-1.14v7.66l31.44,24.27
		l-31.44,24.1v7.12l1.48-1.14l1.02,1.33l-1.99,1.54l-0.51-0.67v8.64l42.19-33.74l42.35,33.85v-8.86L185.51,111.04z M110.64,53.33
		l-3.83-2.96l1.02-1.33l3.84,2.96L110.64,53.33z M118.31,59.24l-3.83-2.96l1.02-1.33l3.83,2.96L118.31,59.24z M125.99,65.15
		l-3.84-2.96l1.03-1.33l3.84,2.96L125.99,65.15z M107.83,106.66l-1.02-1.33l3.83-2.96l1.03,1.33L107.83,106.66z M115.5,100.74
		l-1.02-1.33l3.83-2.96l1.02,1.33L115.5,100.74z M123.17,94.83l-1.03-1.33l3.84-2.96l1.02,1.33L123.17,94.83z M130.84,88.91
		l-1.02-1.33l3.83-2.96l1.03,1.33L130.84,88.91z M133.65,71.07l-3.83-2.96l1.02-1.33l3.84,2.96L133.65,71.07z M138.51,83l-1.02-1.33
		l3.84-2.96l1.02,1.33L138.51,83z M141.32,76.98l-3.83-2.96l1.02-1.33l3.83,2.96L141.32,76.98z M179.68,49.15l1.02,1.33l-3.84,2.96
		l-1.02-1.33L179.68,49.15z M172.01,55.06l1.02,1.33l-3.84,2.96l-1.03-1.33L172.01,55.06z M164.34,60.98l1.02,1.32l-3.83,2.96
		l-1.03-1.33L164.34,60.98z M156.67,66.89l1.03,1.33l-3.84,2.95l-1.02-1.33L156.67,66.89z M149,82.89l-3.84-2.96l1.03-1.33
		l3.84,2.96L149,82.89z M146.18,77.09l-1.03-1.33L149,72.8l1.03,1.33L146.18,77.09z M156.66,88.81l-3.83-2.96l1.02-1.33l3.84,2.96
		L156.66,88.81z M164.34,94.72l-3.84-2.96l1.03-1.33l3.83,2.96L164.34,94.72z M172.01,100.63l-3.84-2.96l1.03-1.33l3.84,2.96
		L172.01,100.63z M179.68,106.55l-3.83-2.96l1.02-1.33l3.84,2.96L179.68,106.55z"/>
</g>
</svg>
