<?xml version="1.0" encoding="utf-8"?>
<!-- Generator: Adobe Illustrator 23.0.2, SVG Export Plug-In . SVG Version: 6.00 Build 0)  -->
<svg version="1.1" id="Layer_1" xmlns="http://www.w3.org/2000/svg" xmlns:xlink="http://www.w3.org/1999/xlink" x="0px"
     y="0px"
     viewBox="0 0 1011.89 327.89" style="enable-background:new 0 0 1011.89 327.89;" xml:space="preserve">
<style type="text/css">
	.st0{opacity:0.31;fill:url(#SVGID_1_);}
	.st1{opacity:0.31;fill:url(#SVGID_2_);}
	.st2{opacity:0.29;}
	.st3{fill:url(#SVGID_3_);}
	.st4{fill:url(#SVGID_4_);}
</style>
    <g>
	<linearGradient id="SVGID_1_" gradientUnits="userSpaceOnUse" x1="129.4146" y1="182.0979" x2="975.5588"
                    y2="182.0979">
		<stop offset="0" style="stop-color:#D1AAFF"/>
        <stop offset="0.9945" style="stop-color:#000000;stop-opacity:0.4"/>
	</linearGradient>
        <path class="st0" d="M974.06,208.22l-9.96-105.15c0.69-0.14,1.21-0.75,1.21-1.48c0-0.84-0.68-1.51-1.51-1.51
		c-0.84,0-1.51,0.68-1.51,1.51c0,0.22,0.05,0.42,0.13,0.61l-40.23,23.14c-0.28-0.38-0.72-0.63-1.22-0.63c-0.79,0-1.43,0.6-1.5,1.37
		l-126.43,1.25c-0.09-0.75-0.72-1.34-1.5-1.34c-0.66,0-1.21,0.42-1.42,1.01L650.79,93.38c0.01-0.07,0.02-0.13,0.02-0.2
		c0-0.84-0.68-1.51-1.51-1.51c-0.82,0-1.49,0.66-1.51,1.47l-92.65,7.22c-0.13-0.7-0.74-1.24-1.49-1.24c-0.84,0-1.51,0.68-1.51,1.51
		c0,0.1,0.01,0.21,0.03,0.31l-41.36,13.17c-0.23-0.53-0.77-0.91-1.38-0.91c-0.74,0-1.35,0.53-1.48,1.23l-102.69-8.7
		c-0.02-0.82-0.69-1.48-1.51-1.48c-0.84,0-1.51,0.68-1.51,1.51c0,0.06,0.01,0.11,0.02,0.17l-82.27,18.23
		c-0.2-0.6-0.76-1.03-1.43-1.03c-0.73,0-1.34,0.52-1.48,1.21l-26.33-2.59c-0.01-0.83-0.68-1.5-1.51-1.5c-0.79,0-1.44,0.61-1.5,1.39
		l-71.49,1.54c-0.1-0.74-0.72-1.32-1.49-1.32c-0.84,0-1.51,0.68-1.51,1.51c0,0.32,0.1,0.62,0.27,0.86l-81.52,70.35
		c-0.27-0.25-0.63-0.41-1.03-0.41c-0.84,0-1.51,0.68-1.51,1.51c0,0.84,0.68,1.51,1.51,1.51c0.78,0,1.41-0.59,1.5-1.34l32.85,0.29
		c0.07,0.77,0.71,1.37,1.5,1.37c0.76,0,1.38-0.56,1.49-1.29l29.13,1.16c0.05,0.79,0.7,1.41,1.5,1.41c0.72,0,1.32-0.51,1.47-1.18
		l100.83,11.81c0,0.01,0,0.01,0,0.02c0,0.84,0.68,1.51,1.51,1.51c0.64,0,1.19-0.4,1.41-0.96l177.74,48.8
		c-0.01,0.08-0.02,0.16-0.02,0.24c0,0.84,0.68,1.51,1.51,1.51c0.72,0,1.32-0.5,1.47-1.18l96.03,11.64c0,0.01,0,0.02,0,0.02
		c0,0.84,0.68,1.51,1.51,1.51c0.84,0,1.51-0.68,1.51-1.51c0-0.17-0.04-0.34-0.09-0.5l98.63-46.52c0.27,0.44,0.74,0.73,1.29,0.73
		c0.61,0,1.13-0.36,1.37-0.89l111.24,37.29c-0.02,0.11-0.04,0.21-0.04,0.33c0,0.84,0.68,1.51,1.51,1.51c0.77,0,1.4-0.58,1.49-1.32
		l121.57,2.61c0.07,0.78,0.71,1.39,1.5,1.39c0.84,0,1.51-0.68,1.51-1.51c0-0.37-0.14-0.71-0.37-0.98l49.61-52.22
		c0.26,0.2,0.57,0.32,0.92,0.32c0.84,0,1.51-0.68,1.51-1.51C975.56,208.91,974.89,208.23,974.06,208.22z M132.17,194.8l81.52-70.35
		c0.02,0.02,0.05,0.04,0.07,0.06l-46.3,70.13c-0.21-0.11-0.44-0.18-0.69-0.18c-0.78,0-1.41,0.59-1.5,1.34l-32.85-0.29
		C132.4,195.25,132.31,195,132.17,194.8z M483.35,257.49c-0.11,0-0.22,0.01-0.33,0.04l-18.96-56.63l-4.3-12.83
		c0.52-0.24,0.89-0.76,0.89-1.37c0-0.08-0.01-0.15-0.02-0.22l75.77-19.72c0.1,0.27,0.28,0.51,0.52,0.68l-52.95,90.2
		C483.78,257.55,483.57,257.49,483.35,257.49z M858.03,162.33l-34.82,10.05c-0.23-0.55-0.77-0.94-1.4-0.94
		c-0.25,0-0.49,0.07-0.7,0.18l-28.6-42.94c0.12-0.1,0.22-0.21,0.3-0.34l65.29,33.19c-0.06,0.17-0.1,0.35-0.1,0.54
		C858.01,162.15,858.02,162.24,858.03,162.33z M798.73,260.26l60.13-96.84c0.2,0.1,0.42,0.16,0.66,0.16c0.51,0,0.95-0.25,1.23-0.64
		l21.84,12.35l28.15,15.92c-0.08,0.18-0.13,0.39-0.13,0.6c0,0.23,0.06,0.45,0.15,0.64L799,260.54
		C798.92,260.43,798.83,260.34,798.73,260.26z M919.76,127.12c0.21,0.28,0.51,0.49,0.86,0.57l-8.44,62.61c-0.01,0-0.03,0-0.04,0
		c-0.51,0-0.95,0.25-1.23,0.64l-49.99-28.28c0.08-0.18,0.13-0.39,0.13-0.6c0-0.22-0.05-0.43-0.14-0.62l43.71-25.49L919.76,127.12z
		 M820.3,172.91c0,0.01,0,0.02,0,0.03c0,0.13,0.02,0.25,0.05,0.36l-135.28,49.24c-0.22-0.45-0.65-0.77-1.17-0.83l0.83-45.8
		l0.34-19.07c0.65-0.06,1.19-0.53,1.34-1.15l88.36,11.36L820.3,172.91z M304.14,208.9l111.36-54.36c0.27,0.43,0.74,0.71,1.28,0.71
		c0.43,0,0.81-0.18,1.09-0.46l39.99,31.11c-0.14,0.23-0.23,0.5-0.23,0.8c0,0.02,0.01,0.04,0.01,0.06l-153.46,22.29
		C304.17,208.99,304.15,208.95,304.14,208.9z M536.96,164.98c-0.39,0.27-0.65,0.73-0.65,1.24c0,0.08,0.01,0.15,0.02,0.22
		l-75.77,19.72c-0.09-0.24-0.24-0.44-0.42-0.61l12.19-17.45l36.37-52.08c0.22,0.12,0.46,0.19,0.73,0.19c0.21,0,0.41-0.04,0.59-0.12
		l0.38,0.7L536.96,164.98z M508.1,115.44c0.09,0.16,0.2,0.29,0.33,0.41l-48.56,69.53c-0.22-0.12-0.46-0.19-0.73-0.19
		c-0.43,0-0.81,0.18-1.09,0.46l-39.99-31.11c0.14-0.23,0.23-0.5,0.23-0.8c0-0.15-0.03-0.3-0.07-0.43l18.69-7.87L508.1,115.44z
		 M318.43,126.13c0.04,0,0.08,0.01,0.12,0.01c0.63,0,1.17-0.39,1.4-0.93l95.35,28.26c-0.02,0.09-0.03,0.18-0.03,0.27
		c0,0.18,0.04,0.35,0.1,0.52l-105.12,51.31l-6.24,3.05c-0.19-0.31-0.49-0.54-0.85-0.64l9.18-49.19L318.43,126.13z M539.31,165.95
		c-0.1-0.54-0.48-0.97-0.98-1.15l15.13-62.68c0.07,0.01,0.13,0.02,0.2,0.02c0.57,0,1.06-0.32,1.32-0.79l128.52,53.56
		c-0.04,0.12-0.06,0.25-0.06,0.38l-2.01,0.15L539.31,165.95z M821.57,174.43c0.08,0.01,0.16,0.02,0.24,0.02
		c0.84,0,1.51-0.68,1.51-1.51c0-0.09-0.01-0.18-0.03-0.26l5.52-1.59l29.3-8.45c0.1,0.25,0.27,0.46,0.47,0.62l-60.13,96.84
		c-0.04-0.02-0.07-0.03-0.11-0.05l21.7-80.01L821.57,174.43z M913.61,192.08c0.02-0.09,0.03-0.17,0.03-0.26
		c0-0.71-0.49-1.3-1.16-1.47l6.43-47.69l2.01-14.92c0.01,0,0.03,0,0.04,0c0.24,0,0.47-0.06,0.67-0.16l34.95,54.99l16.52,25.99
		c-0.2,0.16-0.36,0.37-0.46,0.61l-27.27-7.89L913.61,192.08z M919.59,126.85l-39.93,23.28l-18.93,11.04
		c-0.28-0.37-0.72-0.62-1.22-0.62c-0.53,0-1,0.28-1.27,0.69l-65.29-33.19c0.05-0.12,0.08-0.26,0.09-0.39l126.43-1.25
		C919.49,126.56,919.53,126.71,919.59,126.85z M790.14,128.04c0.22,0.57,0.76,0.98,1.41,0.98c0.25,0,0.49-0.07,0.7-0.18l28.6,42.94
		c-0.25,0.21-0.43,0.49-0.51,0.81L711.6,158.61l-25.15-3.23c0-0.01,0-0.02,0-0.03c0-0.08-0.01-0.15-0.02-0.22l47.27-12.34
		L790.14,128.04z M649.29,94.7c0.22,0,0.42-0.05,0.61-0.13l16.47,28.73l17.68,30.83c-0.18,0.13-0.33,0.3-0.44,0.5L555.1,101.06
		c0.04-0.12,0.06-0.25,0.07-0.39l92.65-7.22C647.94,94.16,648.55,94.7,649.29,94.7z M507.98,115.14l-89.88,37.87
		c-0.26-0.47-0.75-0.79-1.32-0.79c-0.08,0-0.16,0.01-0.24,0.02l-12.25-45.1c0.48-0.19,0.84-0.61,0.94-1.12l102.68,8.7
		C507.92,114.88,507.94,115.01,507.98,115.14z M318.11,126.07l-15.28,81.84c-0.04,0-0.08-0.01-0.12-0.01
		c-0.02,0-0.05,0.01-0.07,0.01l-13.04-84.7c0.55-0.15,0.98-0.59,1.1-1.15l26.33,2.59C317.04,125.32,317.49,125.89,318.11,126.07z
		 M287.96,122.59l-67.7,56.6l-20.31,16.98c-0.16-0.16-0.36-0.27-0.58-0.35l15.2-70.98c0.05,0.01,0.1,0.02,0.16,0.02
		c0.79,0,1.44-0.61,1.5-1.39l71.49-1.54C287.75,122.18,287.83,122.4,287.96,122.59z M167.73,194.81l46.3-70.13
		c0.07,0.04,0.15,0.07,0.22,0.09l-8.75,40.85l-6.45,30.13c-0.05-0.01-0.1-0.02-0.16-0.02c-0.76,0-1.39,0.56-1.49,1.3l-29.13-1.16
		C168.25,195.45,168.05,195.07,167.73,194.81z M539.28,166.62c0.03-0.11,0.05-0.23,0.05-0.35l58.5-4.33l85.62-6.33
		c0.12,0.65,0.64,1.14,1.3,1.23l-1.17,64.87c-0.53,0.05-0.97,0.36-1.21,0.81l-137.69-53.79L539.28,166.62z M799.17,260.81
		l25.65-15.62l86.11-52.45c0.28,0.36,0.71,0.6,1.2,0.6c0.02,0,0.03,0,0.05-0.01l9.82,69.34c-0.6,0.15-1.05,0.65-1.13,1.27
		l-121.57-2.61C799.29,261.14,799.24,260.97,799.17,260.81z M922.37,262.61c-0.02,0-0.03,0-0.05,0.01l-9.82-69.34
		c0.47-0.12,0.85-0.45,1.03-0.89l59.03,17.08c-0.02,0.09-0.03,0.17-0.03,0.26c0,0.37,0.14,0.71,0.37,0.98l-49.61,52.22
		C923.03,262.74,922.72,262.61,922.37,262.61z M962.58,102.48c0.27,0.37,0.71,0.62,1.2,0.63l9.96,105.15
		c-0.13,0.03-0.25,0.07-0.37,0.13l-51.46-80.98c0.35-0.28,0.58-0.7,0.58-1.18c0-0.22-0.05-0.42-0.13-0.61L962.58,102.48z
		 M790.05,127.31c-0.01,0.07-0.02,0.13-0.02,0.2c0,0.08,0.01,0.15,0.02,0.22l-53.53,13.98l-50.18,13.1
		c-0.22-0.57-0.76-0.98-1.41-0.98c-0.22,0-0.42,0.05-0.61,0.13l-34.15-59.55c0.24-0.18,0.43-0.43,0.54-0.72L790.05,127.31z
		 M552.27,101.24c0.17,0.38,0.49,0.67,0.88,0.81l-15.13,62.68c-0.06-0.01-0.13-0.02-0.2-0.02c-0.21,0-0.41,0.04-0.59,0.12
		l-26.95-48.88c0.39-0.27,0.65-0.73,0.65-1.24c0-0.1-0.01-0.21-0.03-0.3L552.27,101.24z M402.31,106.23c0.2,0.6,0.76,1.03,1.43,1.03
		c0.08,0,0.16-0.01,0.24-0.02l11.77,43.35l0.47,1.75c-0.38,0.15-0.69,0.45-0.85,0.83l-95.35-28.26c0.02-0.09,0.03-0.18,0.03-0.27
		c0-0.06-0.01-0.11-0.02-0.17L402.31,106.23z M200.41,197.27c0-0.01,0-0.01,0-0.02c0-0.31-0.09-0.6-0.26-0.84l88.01-73.58
		c0.27,0.26,0.64,0.43,1.05,0.43c0.02,0,0.05-0.01,0.07-0.01l3.1,20.16l9.94,64.54c-0.54,0.14-0.96,0.58-1.09,1.13L200.41,197.27z
		 M304.21,209.66c0.01-0.08,0.02-0.16,0.02-0.24c0-0.02-0.01-0.04-0.01-0.06l153.46-22.29c0.17,0.65,0.76,1.14,1.46,1.14
		c0.11,0,0.22-0.01,0.33-0.04l23.25,69.46c-0.35,0.16-0.63,0.46-0.78,0.82L304.21,209.66z M484.86,259.03c0-0.01,0-0.01,0-0.02
		c0-0.5-0.24-0.94-0.62-1.21l2.48-4.23l50.47-85.97c0.19,0.09,0.4,0.14,0.62,0.14c0.15,0,0.3-0.03,0.44-0.07l43.37,102.03
		c-0.37,0.21-0.64,0.56-0.74,0.98L484.86,259.03z M583.66,270.23c-0.27-0.44-0.74-0.73-1.29-0.73c-0.15,0-0.3,0.03-0.44,0.07
		l-43.37-102.03c0.26-0.14,0.47-0.36,0.61-0.62l21.06,8.23l122.04,47.67c-0.03,0.13-0.06,0.26-0.06,0.4c0,0.17,0.04,0.34,0.09,0.5
		L583.66,270.23z M685.19,223.54c0.02-0.11,0.04-0.21,0.04-0.33c0-0.13-0.02-0.25-0.05-0.36l135.28-49.24
		c0.17,0.34,0.45,0.61,0.81,0.74l-23.22,85.61c-0.08-0.01-0.16-0.02-0.24-0.02c-0.61,0-1.13,0.36-1.37,0.89L685.19,223.54z"/>
        <linearGradient id="SVGID_2_" gradientUnits="userSpaceOnUse" x1="-12.6983" y1="171.3183" x2="925.9991"
                        y2="171.3183">
		<stop offset="0" style="stop-color:#D1AAFF"/>
            <stop offset="0.9945" style="stop-color:#000000;stop-opacity:0.4"/>
	</linearGradient>
        <path class="st1" d="M924.34,200.3L913.29,83.65c0.77-0.15,1.35-0.83,1.35-1.65c0-0.93-0.75-1.68-1.68-1.68s-1.68,0.75-1.68,1.68
		c0,0.24,0.05,0.47,0.15,0.68l-44.63,25.67c-0.31-0.42-0.8-0.7-1.36-0.7c-0.87,0-1.58,0.67-1.66,1.52l-140.26,1.39
		c-0.1-0.84-0.8-1.49-1.66-1.49c-0.73,0-1.34,0.47-1.58,1.12L565.7,72.89c0.01-0.07,0.02-0.14,0.02-0.22c0-0.93-0.75-1.68-1.68-1.68
		c-0.91,0-1.65,0.73-1.67,1.63l-102.78,8c-0.14-0.78-0.83-1.37-1.65-1.37c-0.93,0-1.68,0.75-1.68,1.68c0,0.12,0.01,0.23,0.03,0.34
		l-45.88,14.61c-0.26-0.59-0.85-1-1.54-1c-0.82,0-1.5,0.59-1.65,1.36l-113.92-9.66c-0.02-0.91-0.76-1.64-1.68-1.64
		c-0.93,0-1.68,0.75-1.68,1.68c0,0.06,0.01,0.12,0.02,0.19l-91.27,20.22c-0.22-0.66-0.84-1.15-1.59-1.15
		c-0.81,0-1.49,0.58-1.65,1.34l-29.21-2.87c-0.01-0.92-0.75-1.67-1.68-1.67c-0.88,0-1.59,0.68-1.67,1.54l-79.31,1.7
		c-0.11-0.83-0.8-1.47-1.66-1.47c-0.93,0-1.68,0.75-1.68,1.68c0,0.36,0.11,0.68,0.3,0.96l-90.44,78.04c-0.3-0.28-0.7-0.46-1.15-0.46
		c-0.93,0-1.68,0.75-1.68,1.68c0,0.93,0.75,1.68,1.68,1.68c0.86,0,1.56-0.65,1.66-1.49l36.45,0.33c0.08,0.85,0.79,1.52,1.66,1.52
		c0.84,0,1.54-0.63,1.65-1.44l32.31,1.29c0.06,0.87,0.78,1.57,1.67,1.57c0.8,0,1.47-0.56,1.64-1.31l111.86,13.1
		c0,0.01,0,0.01,0,0.02c0,0.93,0.75,1.68,1.68,1.68c0.71,0,1.32-0.44,1.56-1.07l197.18,54.14c-0.01,0.09-0.03,0.18-0.03,0.27
		c0,0.93,0.75,1.68,1.68,1.68c0.8,0,1.46-0.56,1.63-1.3l106.53,12.92c0,0.01,0,0.02,0,0.03c0,0.93,0.75,1.68,1.68,1.68
		s1.68-0.75,1.68-1.68c0-0.19-0.04-0.38-0.1-0.55L600.8,217.8c0.29,0.48,0.82,0.81,1.43,0.81c0.68,0,1.26-0.4,1.52-0.98
		l123.41,41.37c-0.03,0.12-0.04,0.24-0.04,0.36c0,0.93,0.75,1.68,1.68,1.68c0.85,0,1.55-0.64,1.66-1.47l134.87,2.9
		c0.07,0.86,0.79,1.54,1.67,1.54c0.93,0,1.68-0.75,1.68-1.68c0-0.42-0.16-0.79-0.41-1.08l55.04-57.93c0.28,0.22,0.63,0.35,1.02,0.35
		c0.93,0,1.68-0.75,1.68-1.68C926,201.06,925.26,200.31,924.34,200.3z M-9.64,185.4l90.44-78.04c0.03,0.02,0.05,0.05,0.08,0.07
		l-51.37,77.8c-0.23-0.12-0.49-0.19-0.77-0.19c-0.86,0-1.56,0.65-1.66,1.49l-36.45-0.33C-9.38,185.91-9.48,185.63-9.64,185.4z
		 M457.72,82.6c0.07,0.01,0.14,0.02,0.22,0.02c0.64,0,1.18-0.36,1.47-0.88l122.61,51.1l19.96,8.32c-0.04,0.14-0.07,0.28-0.07,0.42
		l-7.53,0.56l-152.35,11.27c-0.11-0.6-0.53-1.08-1.09-1.28l0.89-3.69L457.72,82.6z M795.62,149.38l-38.63,11.14
		c-0.25-0.61-0.85-1.05-1.55-1.05c-0.28,0-0.54,0.08-0.77,0.2l-31.73-47.64c0.13-0.11,0.25-0.23,0.34-0.37l72.43,36.82
		c-0.07,0.19-0.11,0.39-0.11,0.6C795.59,149.19,795.6,149.29,795.62,149.38z M721.86,112.44c0.28,0,0.54-0.08,0.77-0.2l31.73,47.64
		c-0.27,0.23-0.48,0.54-0.56,0.9l-148.54-19.1c0-0.01,0-0.02,0-0.04c0-0.09-0.01-0.17-0.03-0.25l115.05-30.04
		C720.53,111.98,721.14,112.44,721.86,112.44z M865.04,110.96l-1.35,10l-8.02,59.46c-0.02,0-0.03,0-0.05,0
		c-0.56,0-1.06,0.28-1.36,0.71l-55.46-31.37c0.09-0.2,0.14-0.43,0.14-0.67c0-0.25-0.06-0.48-0.15-0.69l65.3-38.08
		C864.32,110.64,864.66,110.87,865.04,110.96z M857.28,182.39c0.02-0.1,0.03-0.19,0.03-0.29c0-0.79-0.55-1.45-1.28-1.63l0.83-6.17
		l8.54-63.29c0.02,0,0.03,0,0.05,0c0.27,0,0.52-0.07,0.74-0.18l57.09,89.84c-0.22,0.18-0.4,0.41-0.51,0.67l-14.24-4.12
		L857.28,182.39z M379.95,254.96c-0.12,0-0.25,0.02-0.36,0.04l-25.8-77.06c0.58-0.27,0.98-0.85,0.98-1.52
		c0-0.08-0.01-0.17-0.03-0.25l84.06-21.88c0.11,0.3,0.31,0.57,0.57,0.76l-58.74,100.06C380.43,255.02,380.2,254.96,379.95,254.96z
		 M351.42,176.49l-170.24,24.72c-0.01-0.05-0.03-0.11-0.05-0.16l123.54-60.3c0.3,0.47,0.82,0.79,1.42,0.79c0.48,0,0.9-0.2,1.21-0.52
		l44.37,34.51c-0.16,0.26-0.26,0.56-0.26,0.88C351.42,176.44,351.42,176.46,351.42,176.49z M197.12,109.24c0.7,0,1.3-0.43,1.55-1.04
		l105.78,31.35c-0.02,0.1-0.03,0.2-0.03,0.3c0,0.2,0.04,0.39,0.11,0.57l-31.92,15.58l-91.63,44.72c-0.21-0.34-0.55-0.59-0.94-0.71
		l6.63-35.52l10.32-55.28C197.03,109.23,197.08,109.24,197.12,109.24z M407.78,97.82l-53.88,77.14c-0.24-0.13-0.51-0.22-0.81-0.22
		c-0.48,0-0.9,0.2-1.21,0.52l-44.37-34.51c0.16-0.26,0.26-0.56,0.26-0.88c0-0.17-0.03-0.33-0.08-0.48l99.71-42.01
		C407.51,97.54,407.63,97.69,407.78,97.82z M438.7,153.71c0,0.08,0.01,0.17,0.02,0.25l-84.06,21.88c-0.1-0.26-0.26-0.49-0.47-0.67
		l53.88-77.14c0.24,0.13,0.51,0.22,0.81,0.22c0.23,0,0.45-0.05,0.65-0.13l29.89,54.22C438.99,152.63,438.7,153.14,438.7,153.71z
		 M602.44,215.27l1.3-71.97c0.73-0.06,1.32-0.58,1.48-1.28l148.54,19.1c0,0.01,0,0.02,0,0.04c0,0.14,0.02,0.27,0.05,0.4
		l-150.08,54.63C603.49,215.69,603.01,215.34,602.44,215.27z M730.13,258.34c-0.09-0.11-0.19-0.21-0.3-0.3l66.71-107.44
		c0.22,0.11,0.47,0.17,0.73,0.17c0.56,0,1.06-0.28,1.36-0.71l55.46,31.37c-0.09,0.2-0.14,0.43-0.14,0.67c0,0.26,0.06,0.5,0.17,0.72
		l-61.55,37.49L730.13,258.34z M863.91,110.02l-65.3,38.08c-0.31-0.42-0.79-0.69-1.35-0.69c-0.59,0-1.11,0.31-1.41,0.77l-66.2-33.65
		l-6.24-3.17c0.05-0.14,0.08-0.28,0.1-0.44l140.26-1.39C863.8,109.7,863.84,109.87,863.91,110.02z M564.04,74.36
		c0.24,0,0.47-0.05,0.68-0.14l37.88,66.07c-0.2,0.15-0.36,0.34-0.48,0.55L459.54,81.42c0.04-0.14,0.07-0.28,0.07-0.43l102.78-8
		C562.54,73.76,563.22,74.36,564.04,74.36z M407.28,97.04l-99.71,42.01c-0.29-0.52-0.83-0.87-1.46-0.87c-0.09,0-0.18,0.01-0.27,0.03
		l-13.59-50.03c0.53-0.21,0.93-0.67,1.04-1.24l113.92,9.66C407.2,96.75,407.23,96.9,407.28,97.04z M196.64,109.16l-16.95,90.79
		c-0.04,0-0.09-0.01-0.13-0.01c-0.03,0-0.05,0.01-0.08,0.01l-5.68-36.87l-8.79-57.1c0.61-0.16,1.09-0.65,1.22-1.28l29.21,2.87
		C195.45,108.33,195.95,108.96,196.64,109.16z M163.19,105.3l-93.72,78.35l-3.92,3.28c-0.18-0.17-0.4-0.3-0.65-0.38l6.21-28.98
		l10.66-49.76c0.06,0.01,0.12,0.02,0.18,0.02c0.88,0,1.59-0.68,1.67-1.54l79.31-1.7C162.96,104.84,163.05,105.09,163.19,105.3z
		 M29.81,185.43l51.37-77.8c0.08,0.04,0.16,0.08,0.25,0.1l-16.86,78.74c-0.06-0.01-0.12-0.02-0.18-0.02c-0.84,0-1.54,0.63-1.65,1.44
		l-32.31-1.29C30.39,186.13,30.16,185.71,29.81,185.43z M442,154.15c0.03-0.12,0.06-0.25,0.06-0.39l159.88-11.82
		c0.13,0.72,0.71,1.27,1.44,1.36l-0.28,15.72l-1.02,56.25c-0.58,0.05-1.08,0.4-1.34,0.9l-111.71-43.64L442,154.15z M755.17,162.81
		c0.09,0.01,0.17,0.03,0.26,0.03c0.93,0,1.68-0.75,1.68-1.68c0-0.1-0.01-0.2-0.03-0.29l38.63-11.14c0.11,0.27,0.3,0.51,0.53,0.69
		l-66.71,107.44c-0.04-0.02-0.08-0.04-0.12-0.05l14.16-52.22L755.17,162.81z M730.31,258.64l29.19-17.78l94.79-57.74
		c0.31,0.4,0.79,0.66,1.33,0.66c0.02,0,0.04-0.01,0.06-0.01l10.9,76.92c-0.66,0.17-1.16,0.72-1.25,1.41l-134.87-2.9
		C730.45,259.01,730.4,258.81,730.31,258.64z M866.99,260.64c-0.02,0-0.04,0.01-0.06,0.01L859,204.64l-2.96-20.91
		c0.52-0.13,0.95-0.5,1.14-0.99l65.49,18.95c-0.02,0.1-0.03,0.19-0.03,0.29c0,0.42,0.16,0.79,0.41,1.08l-55.04,57.93
		C867.73,260.78,867.38,260.64,866.99,260.64z M911.6,82.99c0.3,0.41,0.79,0.69,1.34,0.69l11.05,116.65
		c-0.15,0.03-0.28,0.08-0.41,0.15l-57.09-89.84c0.39-0.31,0.64-0.78,0.64-1.31c0-0.24-0.05-0.47-0.15-0.68L911.6,82.99z
		 M720.2,110.54c-0.01,0.07-0.02,0.14-0.02,0.22c0,0.09,0.01,0.17,0.03,0.25l-115.05,30.04c-0.24-0.63-0.85-1.09-1.57-1.09
		c-0.24,0-0.47,0.05-0.68,0.14l-37.88-66.07c0.27-0.2,0.48-0.47,0.59-0.79L720.2,110.54z M456.41,81.61
		c0.18,0.42,0.54,0.75,0.97,0.9l-16.78,69.53c-0.07-0.01-0.14-0.02-0.22-0.02c-0.23,0-0.45,0.05-0.65,0.13l-19.74-35.81
		l-10.15-18.41c0.43-0.3,0.72-0.81,0.72-1.38c0-0.12-0.01-0.23-0.03-0.34L456.41,81.61z M290.05,87.15
		c0.22,0.67,0.84,1.15,1.59,1.15c0.09,0,0.18-0.01,0.27-0.03l13.59,50.03c-0.43,0.17-0.77,0.5-0.94,0.92l-105.78-31.35
		c0.02-0.1,0.03-0.2,0.03-0.3c0-0.06-0.01-0.12-0.02-0.19L290.05,87.15z M66.06,188.15c0-0.01,0-0.01,0-0.02
		c0-0.35-0.11-0.67-0.28-0.94l97.64-81.63c0.3,0.29,0.71,0.47,1.17,0.47c0.03,0,0.05-0.01,0.08-0.01l14.47,93.97
		c-0.6,0.16-1.07,0.64-1.21,1.25L66.06,188.15z M181.21,201.89c0.01-0.09,0.03-0.18,0.03-0.27c0-0.02-0.01-0.04-0.01-0.06
		l170.24-24.72c0.19,0.73,0.84,1.27,1.62,1.27c0.12,0,0.25-0.02,0.36-0.04l25.8,77.06c-0.39,0.18-0.7,0.51-0.86,0.91L181.21,201.89z
		 M381.63,256.67c0-0.01,0-0.02,0-0.03c0-0.55-0.27-1.04-0.68-1.35l58.74-100.06c0.21,0.1,0.44,0.15,0.69,0.15
		c0.17,0,0.33-0.03,0.49-0.08l48.12,113.19c-0.41,0.23-0.71,0.62-0.82,1.08L381.63,256.67z M491.23,269.09
		c-0.29-0.48-0.82-0.81-1.43-0.81c-0.17,0-0.33,0.03-0.49,0.08l-48.12-113.19c0.29-0.16,0.52-0.4,0.67-0.69l84.11,32.86l74.64,29.16
		c-0.04,0.14-0.07,0.29-0.07,0.44c0,0.19,0.04,0.38,0.1,0.55L491.23,269.09z M603.87,217.29c0.03-0.12,0.04-0.24,0.04-0.36
		c0-0.14-0.02-0.27-0.05-0.4l60.54-22.04l89.54-32.59c0.18,0.38,0.5,0.67,0.9,0.83l-13.97,51.53l-11.79,43.45
		c-0.09-0.01-0.17-0.03-0.26-0.03c-0.68,0-1.26,0.4-1.52,0.98L603.87,217.29z"/>
        <g class="st2">
		<linearGradient id="SVGID_3_" gradientUnits="userSpaceOnUse" x1="120.4093" y1="182.7989" x2="734.1365"
                        y2="182.7989">
			<stop offset="0" style="stop-color:#D1AAFF"/>
            <stop offset="0.9945" style="stop-color:#000000;stop-opacity:0.4"/>
		</linearGradient>
            <path class="st3" d="M733.04,171.87c-0.56,0-1.01,0.43-1.07,0.97l-23.85-0.21c-0.06-0.55-0.51-0.99-1.08-0.99
			c-0.55,0-0.99,0.41-1.07,0.94l-21.15-0.84c-0.04-0.57-0.5-1.03-1.08-1.03c-0.52,0-0.94,0.37-1.05,0.86L609.53,163
			c0,0,0-0.01,0-0.01c0-0.61-0.49-1.1-1.1-1.1c-0.46,0-0.86,0.29-1.02,0.7l-128.94-35.4c0.01-0.06,0.03-0.11,0.03-0.17
			c0-0.61-0.49-1.1-1.1-1.1c-0.52,0-0.94,0.37-1.05,0.85l-69.67-8.45c0-0.01,0-0.01,0-0.02c0-0.61-0.49-1.1-1.1-1.1
			c-0.61,0-1.1,0.49-1.1,1.1c0,0.13,0.03,0.24,0.07,0.36l-71.56,33.75c-0.19-0.31-0.52-0.54-0.92-0.54c-0.44,0-0.82,0.27-0.99,0.64
			l-80.71-27.05c0.02-0.08,0.05-0.15,0.05-0.23c0-0.61-0.49-1.1-1.1-1.1c-0.56,0-1,0.42-1.07,0.96l-88.2-1.89
			c-0.05-0.56-0.51-1.01-1.08-1.01c-0.61,0-1.1,0.49-1.1,1.1c0,0.27,0.11,0.51,0.27,0.7l-36,37.89c-0.18-0.14-0.4-0.24-0.66-0.24
			c-0.61,0-1.1,0.49-1.1,1.1c0,0.6,0.49,1.09,1.09,1.1l7.23,76.29c-0.5,0.1-0.88,0.52-0.88,1.05c0,0.61,0.49,1.1,1.1,1.1
			s1.1-0.49,1.1-1.1c0-0.16-0.04-0.31-0.1-0.44l29.19-16.79c0.2,0.27,0.51,0.46,0.87,0.46c0.57,0,1.02-0.44,1.08-0.99l91.72-0.91
			c0.07,0.54,0.51,0.97,1.07,0.97c0.48,0,0.87-0.31,1.02-0.73l101.09,24.39c-0.01,0.05-0.03,0.09-0.03,0.14c0,0.61,0.49,1.1,1.1,1.1
			c0.6,0,1.07-0.48,1.09-1.07l67.22-5.24c0.1,0.51,0.52,0.9,1.06,0.9c0.61,0,1.1-0.49,1.1-1.1c0-0.08-0.03-0.14-0.04-0.21
			l30.02-9.56c0.17,0.39,0.55,0.66,1,0.66c0.53,0,0.96-0.39,1.06-0.89l74.5,6.32c0.01,0.6,0.5,1.07,1.09,1.07
			c0.61,0,1.1-0.49,1.1-1.1c0-0.04-0.02-0.08-0.02-0.12l59.69-13.23c0.15,0.43,0.54,0.75,1.03,0.75c0.53,0,0.95-0.38,1.05-0.88
			l19.12,1.88c0.01,0.6,0.49,1.09,1.1,1.09c0.57,0,1.03-0.44,1.08-1.01l51.88-1.11c0.07,0.54,0.51,0.96,1.07,0.96
			c0.61,0,1.1-0.49,1.1-1.1c0-0.23-0.09-0.44-0.21-0.61l59.15-51.04c0.2,0.18,0.46,0.3,0.75,0.3c0.61,0,1.1-0.49,1.1-1.1
			S733.64,171.87,733.04,171.87z M534.76,237.16c-0.35,0.13-0.59,0.44-0.66,0.81l-74.5-6.32c0-0.1-0.03-0.19-0.06-0.29l65.22-27.48
			c0.19,0.34,0.53,0.57,0.95,0.57c0.06,0,0.11-0.02,0.17-0.03l4.67,17.19L534.76,237.16z M596.96,223.39
			c-0.46,0-0.85,0.28-1.01,0.68l-69.18-20.5c0.01-0.07,0.04-0.12,0.04-0.19c0-0.13-0.03-0.25-0.07-0.37l80.79-39.44
			c0.14,0.22,0.35,0.38,0.6,0.46l-8.98,48.08l-2.11,11.3C597.01,223.4,596.98,223.39,596.96,223.39z M607.41,163.36l-13.18,6.43
			l-67.61,33c-0.19-0.31-0.52-0.52-0.91-0.52c-0.31,0-0.59,0.13-0.79,0.34l-0.06-0.05l-28.96-22.53c0.1-0.17,0.18-0.35,0.18-0.57
			c0-0.01-0.01-0.03-0.01-0.04l111.33-16.17C607.4,163.29,607.4,163.32,607.41,163.36z M476.97,128.01c0.14,0.06,0.29,0.1,0.45,0.1
			c0.08,0,0.15-0.03,0.23-0.05l16.87,50.4c-0.38,0.17-0.64,0.55-0.64,0.99c0,0.06,0.02,0.1,0.03,0.16l-14.12,3.67l-40.86,10.64
			c-0.08-0.2-0.21-0.36-0.38-0.48l10.22-17.41L476.97,128.01z M437.54,195.34l-10.98,45.48c-0.05-0.01-0.09-0.03-0.14-0.03
			c-0.41,0-0.76,0.24-0.95,0.58l-93.24-38.86c0.03-0.09,0.05-0.18,0.05-0.27l104.56-7.73C436.92,194.9,437.18,195.21,437.54,195.34z
			 M330.14,202.36l-75.24,19.65c-0.16-0.41-0.55-0.71-1.02-0.71c-0.18,0-0.35,0.06-0.5,0.14l-4.93-7.4l-15.82-23.76
			c0.18-0.15,0.3-0.35,0.35-0.58l97.14,12.49c0,0.01,0,0.02,0,0.02C330.11,202.26,330.13,202.31,330.14,202.36z M248.67,126.09
			l-43.63,70.26c-0.14-0.07-0.3-0.12-0.47-0.12c-0.37,0-0.68,0.19-0.88,0.47l-36.28-20.52c0.06-0.13,0.09-0.28,0.09-0.44
			c0-0.17-0.04-0.32-0.11-0.46l20.92-12.75l60.15-36.64C248.54,125.97,248.6,126.04,248.67,126.09z M160.26,222.28l6.13-45.44
			c0.01,0,0.02,0.01,0.03,0.01c0.37,0,0.68-0.19,0.88-0.47l36.28,20.52c-0.06,0.13-0.09,0.28-0.09,0.44c0,0.16,0.04,0.31,0.1,0.45
			l-32.85,19.15l-9.86,5.75C160.72,222.48,160.51,222.34,160.26,222.28z M232.97,189.18l98.14-35.72c0.16,0.32,0.47,0.54,0.84,0.59
			l-0.85,47.08c-0.47,0.04-0.84,0.38-0.95,0.83l-67.75-8.71l-29.38-3.78c0-0.01,0-0.02,0-0.02
			C233.03,189.35,232.99,189.27,232.97,189.18z M436.82,194.28l-104.56,7.73c-0.09-0.46-0.45-0.82-0.92-0.88l0.85-47.08
			c0.38-0.03,0.7-0.26,0.87-0.58l103.81,40.55C436.85,194.11,436.82,194.19,436.82,194.28z M205.64,197.15l25.28-7.29
			c0.16,0.4,0.55,0.68,1.01,0.68c0.18,0,0.35-0.06,0.5-0.14l20.75,31.16c-0.08,0.07-0.15,0.15-0.21,0.24l-47.38-24.09
			c0.05-0.12,0.08-0.25,0.08-0.39C205.67,197.27,205.65,197.21,205.64,197.15z M165.36,175.56c-0.01,0.06-0.04,0.12-0.04,0.19
			c0,0.52,0.36,0.93,0.84,1.05l-6.13,45.44c-0.01,0-0.02-0.01-0.03-0.01c-0.18,0-0.34,0.05-0.48,0.12l-37.34-58.75
			c0.15-0.12,0.27-0.26,0.34-0.43l8.29,2.4L165.36,175.56z M438.53,195.2c0.28-0.2,0.48-0.51,0.48-0.88c0-0.06-0.02-0.1-0.03-0.16
			l54.98-14.31c0.06,0.17,0.17,0.32,0.31,0.43l-35.23,50.45c-0.16-0.09-0.33-0.15-0.52-0.15c-0.15,0-0.29,0.03-0.43,0.09
			l-11.62-21.07L438.53,195.2z M459.45,231.15c-0.06-0.11-0.14-0.21-0.23-0.29l24.3-34.8l10.93-15.65c0.16,0.09,0.33,0.15,0.52,0.15
			c0.31,0,0.59-0.13,0.79-0.34l29.02,22.58c-0.1,0.17-0.18,0.35-0.18,0.57c0,0.11,0.03,0.21,0.06,0.31l-33.35,14.05L459.45,231.15z
			 M232.1,188.38c-0.06-0.01-0.11-0.03-0.17-0.03c-0.61,0-1.1,0.49-1.1,1.1c0,0.07,0.03,0.12,0.04,0.19l-25.28,7.29
			c-0.07-0.18-0.2-0.32-0.35-0.44l43.63-70.26c0.03,0.01,0.05,0.03,0.08,0.04l-10.38,38.29L232.1,188.38z M248.35,125.71
			l-81.08,49.39c-0.2-0.26-0.5-0.44-0.86-0.44c-0.01,0-0.02,0.01-0.04,0.01l-7.13-50.31c0.43-0.11,0.75-0.46,0.81-0.91l88.2,1.89
			C248.27,125.47,248.3,125.59,248.35,125.71z M158.99,124.4c0.01,0,0.02-0.01,0.04-0.01l7.13,50.31c-0.34,0.09-0.62,0.31-0.75,0.63
			l-42.84-12.4c0.01-0.06,0.04-0.12,0.04-0.19c0-0.27-0.11-0.51-0.27-0.7l36-37.89C158.52,124.3,158.74,124.4,158.99,124.4z
			 M161,222.88l42.71-24.9c0.2,0.27,0.51,0.46,0.87,0.46c0.38,0,0.71-0.21,0.9-0.51l47.38,24.09c-0.03,0.09-0.05,0.19-0.06,0.28
			l-91.72,0.91C161.06,223.08,161.04,222.97,161,222.88z M357.06,246.19c-0.16,0-0.31,0.04-0.44,0.1l-24.78-43.21
			c0.13-0.09,0.24-0.21,0.32-0.35l93.24,38.86c-0.03,0.09-0.05,0.18-0.06,0.28l-67.22,5.24
			C358.02,246.59,357.59,246.19,357.06,246.19z M597.27,223.45l11.09-59.38c0.03,0,0.05,0.02,0.08,0.02c0.02,0,0.03-0.01,0.05-0.01
			l9.46,61.46c-0.4,0.11-0.69,0.42-0.78,0.82l-19.12-1.88C598.05,223.98,597.72,223.58,597.27,223.45z M706.35,173.57l-33.59,50.88
			c-0.05-0.03-0.1-0.05-0.16-0.07l10.52-49.11l0.51-2.39c0.04,0,0.07,0.02,0.11,0.02c0.55,0,0.99-0.41,1.07-0.94l21.15,0.84
			C705.98,173.11,706.12,173.38,706.35,173.57z M619.12,225.97l63.85-53.38c0.12,0.11,0.26,0.19,0.42,0.24l-11.03,51.5
			c-0.04,0-0.07-0.02-0.11-0.02c-0.57,0-1.03,0.44-1.08,1.01l-51.88,1.11C619.28,226.26,619.22,226.11,619.12,225.97z
			 M672.95,224.58l33.59-50.88c0.15,0.08,0.32,0.13,0.5,0.13c0.56,0,1.01-0.43,1.07-0.97l23.85,0.21c0.02,0.19,0.09,0.36,0.19,0.51
			L673,224.62C672.99,224.6,672.96,224.59,672.95,224.58z M682.64,171.79c0,0,0,0.01,0,0.01c0,0.23,0.08,0.42,0.2,0.6l-63.85,53.38
			c-0.2-0.19-0.46-0.31-0.76-0.31c-0.02,0-0.03,0.01-0.05,0.01l-9.46-61.46c0.39-0.1,0.68-0.41,0.77-0.8L682.64,171.79z
			 M607.37,162.81c-0.01,0.06-0.03,0.11-0.03,0.17c0,0.01,0.01,0.03,0.01,0.04l-111.33,16.17c-0.12-0.47-0.53-0.83-1.04-0.83
			c-0.08,0-0.15,0.03-0.23,0.05l-16.87-50.4c0.26-0.12,0.46-0.33,0.56-0.59L607.37,162.81z M476.32,127c0,0.01,0,0.01,0,0.02
			c0,0.36,0.19,0.67,0.46,0.87l-38.41,65.44c-0.14-0.06-0.29-0.1-0.45-0.1c-0.11,0-0.21,0.03-0.31,0.06l-31.47-74.03
			c0.26-0.15,0.45-0.4,0.52-0.7L476.32,127z M404.68,118.87c0.19,0.31,0.52,0.54,0.92,0.54c0.11,0,0.21-0.03,0.31-0.06l31.47,74.03
			c-0.19,0.1-0.34,0.26-0.44,0.44l-103.81-40.55c0.03-0.09,0.06-0.18,0.06-0.28c0-0.13-0.03-0.24-0.07-0.36L404.68,118.87z
			 M331.04,152.75c-0.02,0.08-0.05,0.15-0.05,0.23c0,0.09,0.03,0.17,0.05,0.26l-98.14,35.72c-0.12-0.25-0.32-0.44-0.58-0.54
			l10.64-39.23l6.21-22.89c0.06,0.01,0.11,0.03,0.17,0.03c0.44,0,0.82-0.27,0.99-0.64L331.04,152.75z M129.81,240.56
			c-0.2-0.27-0.5-0.46-0.86-0.46l-7.23-76.29c0.09-0.02,0.18-0.04,0.27-0.08l37.34,58.75c-0.25,0.2-0.42,0.5-0.42,0.85
			c0,0.16,0.04,0.31,0.1,0.44L129.81,240.56z M254.95,222.53c0.01-0.05,0.03-0.09,0.03-0.14c0-0.06-0.02-0.1-0.03-0.16l75.24-19.65
			c0.16,0.41,0.55,0.71,1.02,0.71c0.16,0,0.31-0.04,0.44-0.1l24.78,43.21c-0.18,0.13-0.32,0.3-0.39,0.51L254.95,222.53z
			 M427.43,241.45c-0.12-0.27-0.35-0.48-0.64-0.58l10.98-45.48c0.05,0.01,0.09,0.03,0.14,0.03c0.15,0,0.29-0.03,0.43-0.09
			l19.55,35.47c-0.28,0.2-0.48,0.51-0.48,0.88c0,0.08,0.03,0.14,0.04,0.21L427.43,241.45z M536.19,237.83
			c-0.15-0.43-0.54-0.75-1.03-0.75c-0.06,0-0.11,0.02-0.17,0.03l-1.96-7.21l-6.93-25.52c0.28-0.11,0.5-0.32,0.62-0.6l69.18,20.5
			c-0.01,0.07-0.04,0.12-0.04,0.19c0,0.04,0.02,0.08,0.02,0.12L536.19,237.83z"/>
            <linearGradient id="SVGID_4_" gradientUnits="userSpaceOnUse" x1="120.4093" y1="182.7989" x2="734.1365"
                            y2="182.7989">
			<stop offset="0" style="stop-color:#D1AAFF"/>
                <stop offset="0.9945" style="stop-color:#000000;stop-opacity:0.4"/>
		</linearGradient>
            <path class="st4" d="M733.04,171.87c-0.56,0-1.01,0.43-1.07,0.97l-23.85-0.21c-0.06-0.55-0.51-0.99-1.08-0.99
			c-0.55,0-0.99,0.41-1.07,0.94l-21.15-0.84c-0.04-0.57-0.5-1.03-1.08-1.03c-0.52,0-0.94,0.37-1.05,0.86L609.53,163
			c0,0,0-0.01,0-0.01c0-0.61-0.49-1.1-1.1-1.1c-0.46,0-0.86,0.29-1.02,0.7l-128.94-35.4c0.01-0.06,0.03-0.11,0.03-0.17
			c0-0.61-0.49-1.1-1.1-1.1c-0.52,0-0.94,0.37-1.05,0.85l-69.67-8.45c0-0.01,0-0.01,0-0.02c0-0.61-0.49-1.1-1.1-1.1
			c-0.61,0-1.1,0.49-1.1,1.1c0,0.13,0.03,0.24,0.07,0.36l-71.56,33.75c-0.19-0.31-0.52-0.54-0.92-0.54c-0.44,0-0.82,0.27-0.99,0.64
			l-80.71-27.05c0.02-0.08,0.05-0.15,0.05-0.23c0-0.61-0.49-1.1-1.1-1.1c-0.56,0-1,0.42-1.07,0.96l-88.2-1.89
			c-0.05-0.56-0.51-1.01-1.08-1.01c-0.61,0-1.1,0.49-1.1,1.1c0,0.27,0.11,0.51,0.27,0.7l-36,37.89c-0.18-0.14-0.4-0.24-0.66-0.24
			c-0.61,0-1.1,0.49-1.1,1.1c0,0.6,0.49,1.09,1.09,1.1l7.23,76.29c-0.5,0.1-0.88,0.52-0.88,1.05c0,0.61,0.49,1.1,1.1,1.1
			s1.1-0.49,1.1-1.1c0-0.16-0.04-0.31-0.1-0.44l29.19-16.79c0.2,0.27,0.51,0.46,0.87,0.46c0.57,0,1.02-0.44,1.08-0.99l91.72-0.91
			c0.07,0.54,0.51,0.97,1.07,0.97c0.48,0,0.87-0.31,1.02-0.73l101.09,24.39c-0.01,0.05-0.03,0.09-0.03,0.14c0,0.61,0.49,1.1,1.1,1.1
			c0.6,0,1.07-0.48,1.09-1.07l67.22-5.24c0.1,0.51,0.52,0.9,1.06,0.9c0.61,0,1.1-0.49,1.1-1.1c0-0.08-0.03-0.14-0.04-0.21
			l30.02-9.56c0.17,0.39,0.55,0.66,1,0.66c0.53,0,0.96-0.39,1.06-0.89l74.5,6.32c0.01,0.6,0.5,1.07,1.09,1.07
			c0.61,0,1.1-0.49,1.1-1.1c0-0.04-0.02-0.08-0.02-0.12l59.69-13.23c0.15,0.43,0.54,0.75,1.03,0.75c0.53,0,0.95-0.38,1.05-0.88
			l19.12,1.88c0.01,0.6,0.49,1.09,1.1,1.09c0.57,0,1.03-0.44,1.08-1.01l51.88-1.11c0.07,0.54,0.51,0.96,1.07,0.96
			c0.61,0,1.1-0.49,1.1-1.1c0-0.23-0.09-0.44-0.21-0.61l59.15-51.04c0.2,0.18,0.46,0.3,0.75,0.3c0.61,0,1.1-0.49,1.1-1.1
			S733.64,171.87,733.04,171.87z M534.76,237.16c-0.35,0.13-0.59,0.44-0.66,0.81l-74.5-6.32c0-0.1-0.03-0.19-0.06-0.29l65.22-27.48
			c0.19,0.34,0.53,0.57,0.95,0.57c0.06,0,0.11-0.02,0.17-0.03l4.67,17.19L534.76,237.16z M596.96,223.39
			c-0.46,0-0.85,0.28-1.01,0.68l-69.18-20.5c0.01-0.07,0.04-0.12,0.04-0.19c0-0.13-0.03-0.25-0.07-0.37l80.79-39.44
			c0.14,0.22,0.35,0.38,0.6,0.46l-8.98,48.08l-2.11,11.3C597.01,223.4,596.98,223.39,596.96,223.39z M607.41,163.36l-13.18,6.43
			l-67.61,33c-0.19-0.31-0.52-0.52-0.91-0.52c-0.31,0-0.59,0.13-0.79,0.34l-0.06-0.05l-28.96-22.53c0.1-0.17,0.18-0.35,0.18-0.57
			c0-0.01-0.01-0.03-0.01-0.04l111.33-16.17C607.4,163.29,607.4,163.32,607.41,163.36z M476.97,128.01c0.14,0.06,0.29,0.1,0.45,0.1
			c0.08,0,0.15-0.03,0.23-0.05l16.87,50.4c-0.38,0.17-0.64,0.55-0.64,0.99c0,0.06,0.02,0.1,0.03,0.16l-14.12,3.67l-40.86,10.64
			c-0.08-0.2-0.21-0.36-0.38-0.48l10.22-17.41L476.97,128.01z M437.54,195.34l-10.98,45.48c-0.05-0.01-0.09-0.03-0.14-0.03
			c-0.41,0-0.76,0.24-0.95,0.58l-93.24-38.86c0.03-0.09,0.05-0.18,0.05-0.27l104.56-7.73C436.92,194.9,437.18,195.21,437.54,195.34z
			 M330.14,202.36l-75.24,19.65c-0.16-0.41-0.55-0.71-1.02-0.71c-0.18,0-0.35,0.06-0.5,0.14l-4.93-7.4l-15.82-23.76
			c0.18-0.15,0.3-0.35,0.35-0.58l97.14,12.49c0,0.01,0,0.02,0,0.02C330.11,202.26,330.13,202.31,330.14,202.36z M248.67,126.09
			l-43.63,70.26c-0.14-0.07-0.3-0.12-0.47-0.12c-0.37,0-0.68,0.19-0.88,0.47l-36.28-20.52c0.06-0.13,0.09-0.28,0.09-0.44
			c0-0.17-0.04-0.32-0.11-0.46l20.92-12.75l60.15-36.64C248.54,125.97,248.6,126.04,248.67,126.09z M160.26,222.28l6.13-45.44
			c0.01,0,0.02,0.01,0.03,0.01c0.37,0,0.68-0.19,0.88-0.47l36.28,20.52c-0.06,0.13-0.09,0.28-0.09,0.44c0,0.16,0.04,0.31,0.1,0.45
			l-32.85,19.15l-9.86,5.75C160.72,222.48,160.51,222.34,160.26,222.28z M232.97,189.18l98.14-35.72c0.16,0.32,0.47,0.54,0.84,0.59
			l-0.85,47.08c-0.47,0.04-0.84,0.38-0.95,0.83l-67.75-8.71l-29.38-3.78c0-0.01,0-0.02,0-0.02
			C233.03,189.35,232.99,189.27,232.97,189.18z M436.82,194.28l-104.56,7.73c-0.09-0.46-0.45-0.82-0.92-0.88l0.85-47.08
			c0.38-0.03,0.7-0.26,0.87-0.58l103.81,40.55C436.85,194.11,436.82,194.19,436.82,194.28z M205.64,197.15l25.28-7.29
			c0.16,0.4,0.55,0.68,1.01,0.68c0.18,0,0.35-0.06,0.5-0.14l20.75,31.16c-0.08,0.07-0.15,0.15-0.21,0.24l-47.38-24.09
			c0.05-0.12,0.08-0.25,0.08-0.39C205.67,197.27,205.65,197.21,205.64,197.15z M165.36,175.56c-0.01,0.06-0.04,0.12-0.04,0.19
			c0,0.52,0.36,0.93,0.84,1.05l-6.13,45.44c-0.01,0-0.02-0.01-0.03-0.01c-0.18,0-0.34,0.05-0.48,0.12l-37.34-58.75
			c0.15-0.12,0.27-0.26,0.34-0.43l8.29,2.4L165.36,175.56z M438.53,195.2c0.28-0.2,0.48-0.51,0.48-0.88c0-0.06-0.02-0.1-0.03-0.16
			l54.98-14.31c0.06,0.17,0.17,0.32,0.31,0.43l-35.23,50.45c-0.16-0.09-0.33-0.15-0.52-0.15c-0.15,0-0.29,0.03-0.43,0.09
			l-11.62-21.07L438.53,195.2z M459.45,231.15c-0.06-0.11-0.14-0.21-0.23-0.29l24.3-34.8l10.93-15.65c0.16,0.09,0.33,0.15,0.52,0.15
			c0.31,0,0.59-0.13,0.79-0.34l29.02,22.58c-0.1,0.17-0.18,0.35-0.18,0.57c0,0.11,0.03,0.21,0.06,0.31l-33.35,14.05L459.45,231.15z
			 M232.1,188.38c-0.06-0.01-0.11-0.03-0.17-0.03c-0.61,0-1.1,0.49-1.1,1.1c0,0.07,0.03,0.12,0.04,0.19l-25.28,7.29
			c-0.07-0.18-0.2-0.32-0.35-0.44l43.63-70.26c0.03,0.01,0.05,0.03,0.08,0.04l-10.38,38.29L232.1,188.38z M248.35,125.71
			l-81.08,49.39c-0.2-0.26-0.5-0.44-0.86-0.44c-0.01,0-0.02,0.01-0.04,0.01l-7.13-50.31c0.43-0.11,0.75-0.46,0.81-0.91l88.2,1.89
			C248.27,125.47,248.3,125.59,248.35,125.71z M158.99,124.4c0.01,0,0.02-0.01,0.04-0.01l7.13,50.31c-0.34,0.09-0.62,0.31-0.75,0.63
			l-42.84-12.4c0.01-0.06,0.04-0.12,0.04-0.19c0-0.27-0.11-0.51-0.27-0.7l36-37.89C158.52,124.3,158.74,124.4,158.99,124.4z
			 M161,222.88l42.71-24.9c0.2,0.27,0.51,0.46,0.87,0.46c0.38,0,0.71-0.21,0.9-0.51l47.38,24.09c-0.03,0.09-0.05,0.19-0.06,0.28
			l-91.72,0.91C161.06,223.08,161.04,222.97,161,222.88z M357.06,246.19c-0.16,0-0.31,0.04-0.44,0.1l-24.78-43.21
			c0.13-0.09,0.24-0.21,0.32-0.35l93.24,38.86c-0.03,0.09-0.05,0.18-0.06,0.28l-67.22,5.24
			C358.02,246.59,357.59,246.19,357.06,246.19z M597.27,223.45l11.09-59.38c0.03,0,0.05,0.02,0.08,0.02c0.02,0,0.03-0.01,0.05-0.01
			l9.46,61.46c-0.4,0.11-0.69,0.42-0.78,0.82l-19.12-1.88C598.05,223.98,597.72,223.58,597.27,223.45z M706.35,173.57l-33.59,50.88
			c-0.05-0.03-0.1-0.05-0.16-0.07l10.52-49.11l0.51-2.39c0.04,0,0.07,0.02,0.11,0.02c0.55,0,0.99-0.41,1.07-0.94l21.15,0.84
			C705.98,173.11,706.12,173.38,706.35,173.57z M619.12,225.97l63.85-53.38c0.12,0.11,0.26,0.19,0.42,0.24l-11.03,51.5
			c-0.04,0-0.07-0.02-0.11-0.02c-0.57,0-1.03,0.44-1.08,1.01l-51.88,1.11C619.28,226.26,619.22,226.11,619.12,225.97z
			 M672.95,224.58l33.59-50.88c0.15,0.08,0.32,0.13,0.5,0.13c0.56,0,1.01-0.43,1.07-0.97l23.85,0.21c0.02,0.19,0.09,0.36,0.19,0.51
			L673,224.62C672.99,224.6,672.96,224.59,672.95,224.58z M682.64,171.79c0,0,0,0.01,0,0.01c0,0.23,0.08,0.42,0.2,0.6l-63.85,53.38
			c-0.2-0.19-0.46-0.31-0.76-0.31c-0.02,0-0.03,0.01-0.05,0.01l-9.46-61.46c0.39-0.1,0.68-0.41,0.77-0.8L682.64,171.79z
			 M607.37,162.81c-0.01,0.06-0.03,0.11-0.03,0.17c0,0.01,0.01,0.03,0.01,0.04l-111.33,16.17c-0.12-0.47-0.53-0.83-1.04-0.83
			c-0.08,0-0.15,0.03-0.23,0.05l-16.87-50.4c0.26-0.12,0.46-0.33,0.56-0.59L607.37,162.81z M476.32,127c0,0.01,0,0.01,0,0.02
			c0,0.36,0.19,0.67,0.46,0.87l-38.41,65.44c-0.14-0.06-0.29-0.1-0.45-0.1c-0.11,0-0.21,0.03-0.31,0.06l-31.47-74.03
			c0.26-0.15,0.45-0.4,0.52-0.7L476.32,127z M404.68,118.87c0.19,0.31,0.52,0.54,0.92,0.54c0.11,0,0.21-0.03,0.31-0.06l31.47,74.03
			c-0.19,0.1-0.34,0.26-0.44,0.44l-103.81-40.55c0.03-0.09,0.06-0.18,0.06-0.28c0-0.13-0.03-0.24-0.07-0.36L404.68,118.87z
			 M331.04,152.75c-0.02,0.08-0.05,0.15-0.05,0.23c0,0.09,0.03,0.17,0.05,0.26l-98.14,35.72c-0.12-0.25-0.32-0.44-0.58-0.54
			l10.64-39.23l6.21-22.89c0.06,0.01,0.11,0.03,0.17,0.03c0.44,0,0.82-0.27,0.99-0.64L331.04,152.75z M129.81,240.56
			c-0.2-0.27-0.5-0.46-0.86-0.46l-7.23-76.29c0.09-0.02,0.18-0.04,0.27-0.08l37.34,58.75c-0.25,0.2-0.42,0.5-0.42,0.85
			c0,0.16,0.04,0.31,0.1,0.44L129.81,240.56z M254.95,222.53c0.01-0.05,0.03-0.09,0.03-0.14c0-0.06-0.02-0.1-0.03-0.16l75.24-19.65
			c0.16,0.41,0.55,0.71,1.02,0.71c0.16,0,0.31-0.04,0.44-0.1l24.78,43.21c-0.18,0.13-0.32,0.3-0.39,0.51L254.95,222.53z
			 M427.43,241.45c-0.12-0.27-0.35-0.48-0.64-0.58l10.98-45.48c0.05,0.01,0.09,0.03,0.14,0.03c0.15,0,0.29-0.03,0.43-0.09
			l19.55,35.47c-0.28,0.2-0.48,0.51-0.48,0.88c0,0.08,0.03,0.14,0.04,0.21L427.43,241.45z M536.19,237.83
			c-0.15-0.43-0.54-0.75-1.03-0.75c-0.06,0-0.11,0.02-0.17,0.03l-1.96-7.21l-6.93-25.52c0.28-0.11,0.5-0.32,0.62-0.6l69.18,20.5
			c-0.01,0.07-0.04,0.12-0.04,0.19c0,0.04,0.02,0.08,0.02,0.12L536.19,237.83z"/>
	</g>
</g>
</svg>
