<?xml version="1.0" encoding="utf-8"?>
<!-- Generator: Adobe Illustrator 23.0.2, SVG Export Plug-In . SVG Version: 6.00 Build 0)  -->
<svg version="1.1" id="Capa_1" xmlns="http://www.w3.org/2000/svg" xmlns:xlink="http://www.w3.org/1999/xlink" x="0px"
     y="0px"
     viewBox="0 0 547 267" style="enable-background:new 0 0 547 267;" xml:space="preserve">
<style type="text/css">
	.st0{fill:url(#SVGID_1_);}
	.st1{fill:url(#SVGID_2_);}
	.st2{fill:url(#SVGID_3_);}
	.st3{fill:url(#SVGID_4_);}
	.st4{opacity:0.3;fill:#D7DCFD;}
	.st5{fill:url(#SVGID_5_);}
	.st6{fill:url(#SVGID_6_);}
	.st7{fill:url(#SVGID_7_);}
	.st8{fill:url(#SVGID_8_);}
	.st9{fill:url(#SVGID_9_);}
	.st10{fill:url(#SVGID_10_);}
	.st11{fill:url(#SVGID_11_);}
</style>
    <linearGradient id="SVGID_1_" gradientUnits="userSpaceOnUse" x1="300.2995" y1="195.556" x2="362.7463" y2="195.556">
	<stop offset="0" style="stop-color:#000000"/>
        <stop offset="1" style="stop-color:#11002D"/>
</linearGradient>
    <path class="st0" d="M362.75,225.11h-21.13v-9.79c-3.15,4.02-6.33,6.89-9.53,8.6c-3.21,1.71-7.15,2.56-11.82,2.56
	c-6.23,0-11.11-1.91-14.65-5.72c-3.54-3.82-5.31-9.69-5.31-17.62v-38.49h22.74v33.25c0,3.8,0.69,6.49,2.06,8.09s3.3,2.39,5.78,2.39
	c2.71,0,4.92-1.06,6.65-3.19c1.72-2.13,2.58-5.94,2.58-11.45v-29.1h22.63V225.11z"/>
    <linearGradient id="SVGID_2_" gradientUnits="userSpaceOnUse" x1="374.651" y1="183.3704" x2="397.2831" y2="183.3704">
	<stop offset="0" style="stop-color:#000000"/>
        <stop offset="1" style="stop-color:#11002D"/>
</linearGradient>
    <path class="st1" d="M374.65,141.63h22.63v15.77h-22.63V141.63z M374.65,164.64h22.63v60.47h-22.63v-30.24V164.64z"/>
    <linearGradient id="SVGID_3_" gradientUnits="userSpaceOnUse" x1="402.3739" y1="183.5248" x2="478.9449"
                    y2="183.5248">
	<stop offset="0" style="stop-color:#000000"/>
        <stop offset="1" style="stop-color:#11002D"/>
</linearGradient>
    <path class="st2" d="M402.37,141.79h76.57v20.61h-25.69v62.86h-25.19V162.4h-25.69V141.79z"/>
    <linearGradient id="SVGID_4_" gradientUnits="userSpaceOnUse" x1="466.3841" y1="194.8727" x2="534.7809"
                    y2="194.8727">
	<stop offset="0" style="stop-color:#000000"/>
        <stop offset="1" style="stop-color:#11002D"/>
</linearGradient>
    <path class="st3" d="M534.78,200.62h-45.38c0.41,3.72,1.39,6.49,2.95,8.31c2.19,2.62,5.04,3.93,8.56,3.93
	c2.22,0,4.34-0.57,6.34-1.71c1.22-0.72,2.54-1.99,3.95-3.82l22.3,2.11c-3.41,6.07-7.53,10.43-12.34,13.07s-11.73,3.96-20.74,3.96
	c-7.82,0-13.98-1.13-18.46-3.39c-4.49-2.26-8.2-5.85-11.15-10.76c-2.94-4.92-4.42-10.7-4.42-17.34c0-9.45,2.95-17.1,8.87-22.95
	c5.91-5.85,14.08-8.77,24.5-8.77c8.45,0,15.13,1.31,20.02,3.93c4.89,2.62,8.62,6.42,11.18,11.39s3.84,11.45,3.84,19.42V200.62z
	 M511.76,189.52c-0.44-4.48-1.62-7.69-3.53-9.62c-1.91-1.94-4.42-2.9-7.54-2.9c-3.6,0-6.47,1.46-8.62,4.38
	c-1.37,1.82-2.24,4.54-2.61,8.14H511.76z"/>
    <path class="st4"
          d="M340.22,200v-35.46h22.92c-0.05,5.49-0.1,10.97-0.14,16.46C355.41,187.33,347.81,193.67,340.22,200z"/>
    <linearGradient id="SVGID_5_" gradientUnits="userSpaceOnUse" x1="5.9104" y1="73.3426" x2="89.1788" y2="73.3426">
	<stop offset="0" style="stop-color:#000000"/>
        <stop offset="1" style="stop-color:#11002D"/>
</linearGradient>
    <path class="st5" d="M5.91,88.87l26.98-1.69c0.58,4.38,1.77,7.72,3.57,10.02c2.92,3.72,7.1,5.57,12.52,5.57
	c4.05,0,7.17-0.95,9.36-2.85c2.19-1.9,3.29-4.1,3.29-6.61c0-2.38-1.04-4.51-3.13-6.39c-2.09-1.88-6.93-3.65-14.52-5.32
	c-12.44-2.8-21.31-6.51-26.61-11.14c-5.34-4.63-8.01-10.54-8.01-17.72c0-4.72,1.37-9.17,4.1-13.37c2.73-4.19,6.84-7.49,12.33-9.89
	c5.49-2.4,13.01-3.6,22.57-3.6c11.73,0,20.67,2.18,26.83,6.54c6.16,4.36,9.82,11.3,10.99,20.82l-26.73,1.57
	c-0.71-4.13-2.2-7.14-4.48-9.02c-2.28-1.88-5.42-2.82-9.42-2.82c-3.3,0-5.78,0.7-7.45,2.1c-1.67,1.4-2.5,3.1-2.5,5.1
	c0,1.46,0.69,2.78,2.07,3.94c1.34,1.21,4.51,2.34,9.52,3.38c12.4,2.67,21.28,5.37,26.64,8.11c5.36,2.73,9.27,6.13,11.71,10.17
	c2.44,4.05,3.66,8.58,3.66,13.59c0,5.89-1.63,11.31-4.88,16.28c-3.26,4.97-7.81,8.73-13.65,11.3c-5.84,2.57-13.21,3.85-22.1,3.85
	c-15.61,0-26.42-3.01-32.43-9.02C10.1,105.77,6.7,98.14,5.91,88.87z"/>
    <linearGradient id="SVGID_6_" gradientUnits="userSpaceOnUse" x1="98.6953" y1="85.9894" x2="175.5778" y2="85.9894">
	<stop offset="0" style="stop-color:#000000"/>
        <stop offset="1" style="stop-color:#11002D"/>
</linearGradient>
    <path class="st6" d="M151.35,93.19l24.23,2.75c-1.34,5.05-3.53,9.42-6.57,13.12c-3.05,3.69-6.94,6.56-11.68,8.61
	c-4.74,2.04-10.76,3.07-18.06,3.07c-7.05,0-12.93-0.66-17.62-1.97c-4.7-1.31-8.73-3.44-12.11-6.38c-3.38-2.94-6.03-6.39-7.95-10.35
	c-1.92-3.96-2.88-9.22-2.88-15.76c0-6.84,1.17-12.53,3.51-17.08c1.71-3.34,4.05-6.33,7.01-8.98c2.96-2.65,6.01-4.62,9.14-5.91
	c4.97-2.04,11.33-3.06,19.1-3.06c10.85,0,19.13,1.94,24.82,5.82s9.69,9.56,11.99,17.03l-23.98,3.19c-0.75-2.84-2.12-4.98-4.1-6.42
	c-1.98-1.44-4.64-2.16-7.98-2.16c-4.22,0-7.63,1.51-10.24,4.53c-2.61,3.02-3.91,7.59-3.91,13.72c0,5.46,1.29,9.6,3.88,12.44
	c2.59,2.83,5.89,4.25,9.89,4.25c3.34,0,6.15-0.85,8.42-2.57C148.52,99.37,150.22,96.74,151.35,93.19z"/>
    <linearGradient id="SVGID_7_" gradientUnits="userSpaceOnUse" x1="185.0938" y1="73.3425" x2="255.4026" y2="73.3425">
	<stop offset="0" style="stop-color:#000000"/>
        <stop offset="1" style="stop-color:#11002D"/>
</linearGradient>
    <path class="st7" d="M185.09,27.45h25.48v33.81c3.46-3.59,6.91-6.16,10.33-7.7c3.42-1.54,7.47-2.32,12.15-2.32
	c6.93,0,12.39,2.11,16.37,6.32c3.99,4.22,5.98,10.69,5.98,19.41v42.26H229.8V82.67c0-4.17-0.77-7.13-2.32-8.86
	c-1.54-1.73-3.72-2.6-6.51-2.6c-3.09,0-5.59,1.17-7.51,3.51c-1.92,2.34-2.88,6.53-2.88,12.58v31.93h-25.48V27.45z"/>
    <linearGradient id="SVGID_8_" gradientUnits="userSpaceOnUse" x1="267.4863" y1="85.9894" x2="343.8679" y2="85.9894">
	<stop offset="0" style="stop-color:#000000"/>
        <stop offset="1" style="stop-color:#11002D"/>
</linearGradient>
    <path class="st8" d="M267.49,86.18c0-10.14,3.42-18.5,10.27-25.07c6.84-6.57,16.09-9.86,27.74-9.86c13.31,0,23.37,3.86,30.18,11.58
	c5.47,6.22,8.2,13.88,8.2,22.98c0,10.23-3.39,18.61-10.17,25.14c-6.78,6.53-16.16,9.8-28.14,9.8c-10.69,0-19.33-2.71-25.92-8.14
	C271.53,105.88,267.49,97.07,267.49,86.18z M293.03,86.11c0,5.93,1.2,10.31,3.6,13.15c2.4,2.84,5.42,4.26,9.05,4.26
	c3.67,0,6.69-1.4,9.05-4.19c2.36-2.8,3.54-7.28,3.54-13.46c0-5.76-1.19-10.05-3.57-12.87c-2.38-2.82-5.32-4.23-8.83-4.23
	c-3.72,0-6.78,1.43-9.2,4.29C294.24,75.92,293.03,80.27,293.03,86.11z"/>
    <linearGradient id="SVGID_9_" gradientUnits="userSpaceOnUse" x1="353.0089" y1="85.9894" x2="429.3905" y2="85.9894">
	<stop offset="0" style="stop-color:#000000"/>
        <stop offset="1" style="stop-color:#11002D"/>
</linearGradient>
    <path class="st9" d="M353.01,86.18c0-10.14,3.42-18.5,10.27-25.07c6.84-6.57,16.09-9.86,27.74-9.86c13.31,0,23.37,3.86,30.18,11.58
	c5.47,6.22,8.2,13.88,8.2,22.98c0,10.23-3.39,18.61-10.17,25.14c-6.78,6.53-16.16,9.8-28.14,9.8c-10.69,0-19.33-2.71-25.92-8.14
	C357.06,105.88,353.01,97.07,353.01,86.18z M378.55,86.11c0,5.93,1.2,10.31,3.6,13.15c2.4,2.84,5.42,4.26,9.05,4.26
	c3.67,0,6.69-1.4,9.05-4.19c2.36-2.8,3.54-7.28,3.54-13.46c0-5.76-1.19-10.05-3.57-12.87c-2.38-2.82-5.32-4.23-8.83-4.23
	c-3.72,0-6.78,1.43-9.2,4.29C379.76,75.92,378.55,80.27,378.55,86.11z"/>
    <linearGradient id="SVGID_10_" gradientUnits="userSpaceOnUse" x1="442.5385" y1="73.3425" x2="468.0822" y2="73.3425">
	<stop offset="0" style="stop-color:#000000"/>
        <stop offset="1" style="stop-color:#11002D"/>
</linearGradient>
    <path class="st10" d="M442.54,27.45h25.54v91.78h-25.54V27.45z"/>
    <line x1="485.56" y1="14" x2="218.43" y2="259.76"/>
    <path class="st4" d="M373.31,117.27l15.29-14.07c1.35,0.21,5.75,0.73,9.35-1.97c2.46-1.85,4.08-4.86,4.66-6.87
	c0.17-0.59,0.51-2,1.21-3.81c0.28-0.72,1.14-2.85,0.85-2.14c0,0,7.28-6.69,20.86-19.19c6.08,15.86,3.93,32.19-5.73,41.46
	c-2.23,2.14-6.49,5.48-13.59,7.16c-3.51,1.1-8.26,2.18-13.94,2.36C384.12,120.47,377.52,118.75,373.31,117.27z"/>
    <polygon class="st4" points="442.64,53.49 442.64,27.66 468.58,27.66 468.58,29.62 "/>
    <linearGradient id="SVGID_11_" gradientUnits="userSpaceOnUse" x1="208.943" y1="180.0679" x2="292.2114"
                    y2="180.0679">
	<stop offset="0" style="stop-color:#000000"/>
        <stop offset="1" style="stop-color:#11002D"/>
</linearGradient>
    <path class="st11" d="M208.94,195.59l26.98-1.69c0.58,4.38,1.77,7.72,3.57,10.02c2.92,3.72,7.1,5.57,12.52,5.57
	c4.05,0,7.17-0.95,9.36-2.85c2.19-1.9,3.29-4.1,3.29-6.61c0-2.38-1.04-4.51-3.13-6.39c-2.09-1.88-6.93-3.65-14.52-5.32
	c-12.44-2.8-21.31-6.51-26.61-11.14c-5.34-4.63-8.01-10.54-8.01-17.72c0-4.72,1.37-9.17,4.1-13.37c2.73-4.19,6.84-7.49,12.33-9.89
	c5.49-2.4,13.01-3.6,22.57-3.6c11.73,0,20.67,2.18,26.83,6.54c6.16,4.36,9.82,11.3,10.99,20.82l-26.73,1.57
	c-0.71-4.13-2.2-7.14-4.48-9.02c-2.28-1.88-5.42-2.82-9.42-2.82c-3.3,0-5.78,0.7-7.45,2.1c-1.67,1.4-2.5,3.1-2.5,5.1
	c0,1.46,0.69,2.78,2.07,3.94c1.34,1.21,4.51,2.34,9.52,3.38c12.4,2.67,21.28,5.37,26.64,8.11c5.36,2.73,9.27,6.13,11.71,10.17
	c2.44,4.05,3.66,8.58,3.66,13.59c0,5.89-1.63,11.31-4.88,16.28c-3.26,4.97-7.81,8.73-13.65,11.3c-5.84,2.57-13.21,3.85-22.1,3.85
	c-15.61,0-26.42-3.01-32.43-9.02C213.14,212.5,209.74,204.86,208.94,195.59z"/>
    <polyline class="st4" points="330.36,157.2 337,157.2 337,150.25 328.58,158 "/>
</svg>
