<?xml version="1.0" encoding="UTF-8"?>
<svg width="126px" height="126px" viewBox="0 0 126 126" version="1.1" xmlns="http://www.w3.org/2000/svg" xmlns:xlink="http://www.w3.org/1999/xlink">
    <!-- Generator: Sketch 54.1 (76490) - https://sketchapp.com -->
    <title>Group 3</title>
    <desc>Created with Sketch.</desc>
    <defs>
        <circle id="path-1" cx="49" cy="49" r="49"></circle>
        <filter x="-21.4%" y="-21.4%" width="142.9%" height="142.9%" filterUnits="objectBoundingBox" id="filter-2">
            <feOffset dx="0" dy="0" in="SourceAlpha" result="shadowOffsetOuter1"></feOffset>
            <feGaussianBlur stdDeviation="7" in="shadowOffsetOuter1" result="shadowBlurOuter1"></feGaussianBlur>
            <feColorMatrix values="0 0 0 0 0   0 0 0 0 0   0 0 0 0 0  0 0 0 0.5 0" type="matrix" in="shadowBlurOuter1"></feColorMatrix>
        </filter>
        <linearGradient x1="143.5573%" y1="133.910385%" x2="-32.0321491%" y2="-23.5530857%" id="linearGradient-3">
            <stop stop-color="#83A4D4" offset="0%"></stop>
            <stop stop-color="#FFFFFF" offset="99.94%"></stop>
        </linearGradient>
        <linearGradient x1="84.4014023%" y1="144.490964%" x2="19.7976805%" y2="-32.9341285%" id="linearGradient-4">
            <stop stop-color="#83A4D4" offset="0%"></stop>
            <stop stop-color="#FFFFFF" offset="99.94%"></stop>
        </linearGradient>
        <linearGradient x1="85.8497252%" y1="144.490964%" x2="18.566536%" y2="-32.8276734%" id="linearGradient-5">
            <stop stop-color="#83A4D4" offset="0%"></stop>
            <stop stop-color="#FFFFFF" offset="99.94%"></stop>
        </linearGradient>
        <linearGradient x1="50%" y1="0%" x2="50%" y2="100%" id="linearGradient-6">
            <stop stop-color="#A0DBE5" offset="0%"></stop>
            <stop stop-color="#96C4E4" offset="100%"></stop>
        </linearGradient>
        <linearGradient x1="109.261791%" y1="144.490964%" x2="-1.96144043%" y2="-32.8276734%" id="linearGradient-7">
            <stop stop-color="#83A4D4" offset="0%"></stop>
            <stop stop-color="#FFFFFF" offset="99.94%"></stop>
        </linearGradient>
        <linearGradient x1="85.8497252%" y1="144.490964%" x2="18.5261419%" y2="-32.9341285%" id="linearGradient-8">
            <stop stop-color="#83A4D4" offset="0%"></stop>
            <stop stop-color="#FFFFFF" offset="99.94%"></stop>
        </linearGradient>
        <linearGradient x1="109.261791%" y1="144.490964%" x2="-2.02821443%" y2="-32.9341285%" id="linearGradient-9">
            <stop stop-color="#83A4D4" offset="0%"></stop>
            <stop stop-color="#FFFFFF" offset="99.94%"></stop>
        </linearGradient>
        <linearGradient x1="59.7587154%" y1="144.490964%" x2="41.4324469%" y2="-32.9341285%" id="linearGradient-10">
            <stop stop-color="#83A4D4" offset="0%"></stop>
            <stop stop-color="#FFFFFF" offset="99.94%"></stop>
        </linearGradient>
        <linearGradient x1="143.5573%" y1="144.490964%" x2="-32.0321491%" y2="-32.8276734%" id="linearGradient-11">
            <stop stop-color="#83A4D4" offset="0%"></stop>
            <stop stop-color="#FFFFFF" offset="99.94%"></stop>
        </linearGradient>
        <linearGradient x1="143.5573%" y1="144.490964%" x2="-32.137566%" y2="-32.9341285%" id="linearGradient-12">
            <stop stop-color="#83A4D4" offset="0%"></stop>
            <stop stop-color="#FFFFFF" offset="99.94%"></stop>
        </linearGradient>
        <linearGradient x1="143.5573%" y1="134.806295%" x2="-32.0321491%" y2="-24.3384105%" id="linearGradient-13">
            <stop stop-color="#83A4D4" offset="0%"></stop>
            <stop stop-color="#FFFFFF" offset="99.94%"></stop>
        </linearGradient>
    </defs>
    <g id="Page-2" stroke="none" stroke-width="1" fill="none" fill-rule="evenodd">
        <g id="Page-principal" transform="translate(-390.000000, -565.000000)">
            <g id="Group-3" transform="translate(404.000000, 579.000000)">
                <g id="Oval">
                    <use fill="black" fill-opacity="1" filter="url(#filter-2)" xlink:href="#path-1"></use>
                    <use fill="#0B0A0D" fill-rule="evenodd" xlink:href="#path-1"></use>
                </g>
                <g id="school" transform="translate(36.000000, 32.000000)" fill-rule="nonzero">
                    <path d="M15.7942584,12.1738233 C15.7942584,12.846311 15.2157767,13.3913043 14.5023923,13.3913043 C13.7890079,13.3913043 13.2105263,12.846311 13.2105263,12.1738233 C13.2105263,11.5015151 13.7890079,10.9565217 14.5023923,10.9565217 C15.2157767,10.9565217 15.7942584,11.5015151 15.7942584,12.1738233 Z" id="Path" fill="url(#linearGradient-3)"></path>
                    <path d="M11.9186603,22.1414517 L11.9186603,28 L17.0861244,28 L17.0861244,24.8044067 L16.5693323,24.8044067 C16.2839532,24.8044067 16.0527688,24.565898 16.0527688,24.2717686 C16.0527688,23.9776392 16.2839532,23.7391304 16.5693323,23.7391304 L17.0861244,23.7391304 L17.0861244,22.1414517 C17.0845238,20.6712761 15.9286015,19.4801463 14.5023923,19.4782609 C13.0761832,19.4801463 11.920261,20.6712761 11.9186603,22.1414517 Z" id="Path" fill="url(#linearGradient-4)"></path>
                    <path d="M0.291866029,28 L9.33492823,28 L9.33492823,13.3913043 L0.2921014,16.5941557 L0.291866029,28 Z M1.35581109,20.8402591 C1.356988,19.7110124 2.30888929,18.7958473 3.48346578,18.7944895 L6.14309305,18.7944895 C7.31790497,18.7958473 8.26980626,19.7110124 8.27098317,20.8402591 L8.27098317,25.4430143 C8.27098317,25.7254391 8.03277246,25.9544567 7.73901064,25.9544567 L1.88754819,25.9544567 C1.59378636,25.9544567 1.35581109,25.7254391 1.35581109,25.4430143 L1.35581109,20.8402591 Z" id="Shape" fill="url(#linearGradient-5)"></path>
                    <path d="M0.20533133,15.826087 L0.378400728,17.0434783 L0.20533133,15.826087 Z" id="Path" fill="url(#linearGradient-6)"></path>
                    <path d="M6.75119617,22.3999138 L5.88990981,22.3999138 C5.65210331,22.3999138 5.45945717,22.1820666 5.45945717,21.9131513 C5.45945717,21.6440204 5.65210331,21.4261731 5.88990981,21.4261731 L6.75119617,21.4261731 L6.75119617,20.452217 C6.75062451,19.9146019 6.36533227,19.4789073 5.88990981,19.4782609 L3.73688445,19.4782609 C3.26146203,19.4789073 2.87616975,19.9146019 2.87559809,20.452217 L2.87559809,21.4261731 L3.73688445,21.4261731 C3.97469095,21.4261731 4.16752763,21.6440204 4.16752763,21.9131513 C4.16752763,22.1820666 3.97469095,22.3999138 3.73688445,22.3999138 L2.87559809,22.3999138 L2.87559809,24.3478261 L6.75119617,24.3478261 L6.75119617,22.3999138 Z" id="Path" fill="url(#linearGradient-7)"></path>
                    <path d="M18.3779904,28 L27.4210526,28 L27.4210526,16.5941557 L18.3779904,13.3913043 L18.3779904,28 Z M19.4417278,20.8402591 C19.4429047,19.7110124 20.3950662,18.7958473 21.5696733,18.7944895 L24.2293698,18.7944895 C25.4039768,18.7958473 26.3559029,19.7110124 26.3570799,20.8402591 L26.3570799,25.4430143 C26.3570799,25.7254391 26.1190984,25.9544567 25.8253289,25.9544567 L19.9737142,25.9544567 C19.6799447,25.9544567 19.4417278,25.7254391 19.4417278,25.4430143 L19.4417278,20.8402591 Z" id="Shape" fill="url(#linearGradient-8)"></path>
                    <path d="M24.8373206,22.3999138 L23.9760342,22.3999138 C23.7382277,22.3999138 23.545391,22.1820666 23.545391,21.9131513 C23.545391,21.6440204 23.7382277,21.4261731 23.9760342,21.4261731 L24.8373206,21.4261731 L24.8373206,20.452217 C24.8367489,19.9146019 24.4514567,19.4789073 23.9760342,19.4782609 L21.8230088,19.4782609 C21.3475864,19.4789073 20.9622942,19.9146019 20.9617225,20.452217 L20.9617225,21.4261731 L21.8230088,21.4261731 C22.0608153,21.4261731 22.253652,21.6440204 22.253652,21.9131513 C22.253652,22.1820666 22.0608153,22.3999138 21.8230088,22.3999138 L20.9617225,22.3999138 L20.9617225,24.3478261 L24.8373206,24.3478261 L24.8373206,22.3999138 Z" id="Path" fill="url(#linearGradient-9)"></path>
                    <path d="M18.3779904,0.965576172 C18.3777904,0.829071031 18.3237697,0.699188219 18.2291334,0.607757555 C18.1336969,0.517181383 18.0076486,0.472747789 17.8806,0.485137953 L13.8564594,0.914733859 L13.8564594,0.482788086 C13.8564594,0.216186523 13.6539818,0 13.4042862,0 C13.1545906,0 12.9521131,0.216186523 12.9521131,0.482788086 L12.9521131,6.72036745 L9.33492823,9.42376706 L9.33492823,28 L10.2392745,28 L10.2392745,22.6897583 C10.2392745,20.8233337 11.6562169,19.3102417 13.4042862,19.3102417 C15.1523555,19.3102417 16.569298,20.8233337 16.569298,22.6897583 L16.569298,28 L17.4736442,28 L17.4736442,9.42376706 L13.8564594,6.72015378 L13.8564594,4.78173828 L17.9710346,4.3425293 C18.2021231,4.31774902 18.3779904,4.11010742 18.3779904,3.86209108 L18.3779904,0.965576172 Z M15.6649517,13.0344238 C15.6649517,14.3676452 14.6527642,15.4483643 13.4042862,15.4483643 C12.1558082,15.4483643 11.1436207,14.3676452 11.1436207,13.0344238 C11.1436207,11.701416 12.1558082,10.620697 13.4042862,10.620697 C14.652164,10.6221924 15.6635512,11.7020569 15.6649517,13.0344238 Z M17.4736442,3.4250183 L13.8564594,3.81124877 L13.8564594,1.88522337 L17.4736442,1.49920652 L17.4736442,3.4250183 Z" id="Shape" fill="url(#linearGradient-10)"></path>
                </g>
                <path d="M49.8776869,73.9996804 C36.0935359,73.930547 24.9364569,62.6618015 25.0002724,48.8776635 C25.0694059,35.0935254 36.338162,23.9364569 50.1223131,24.0002724 C63.9064641,24.0694058 75.0635431,35.3381514 74.9997276,49.1222894 C74.9305941,62.9117453 63.661838,74.0688139 49.8776869,73.9996804 Z M50.1063592,26.7017933 C37.8059189,26.6432958 27.7549754,36.5985066 27.6911599,48.8989353 C27.6326623,61.199364 37.5878825,71.250298 49.8883229,71.3141134 C62.1887632,71.3726109 72.2397066,61.4174001 72.3035221,49.1169714 C72.3620197,36.8165427 62.4067995,26.7602908 50.1063592,26.7017933 Z" id="Shape" fill="url(#linearGradient-11)" fill-rule="nonzero"></path>
                <path d="M49.8497513,78.9996515 C33.3118536,78.9205659 19.9212702,65.3969186 20.0003485,48.8521992 L22.3041614,48.862744 C22.2303551,64.1368204 34.5929212,76.6218094 49.865567,76.6956227 C65.1382127,76.769436 77.6220322,64.4057117 77.6958386,49.1316352 C77.7696449,33.8575587 65.4070788,21.3725697 50.1397049,21.2987564 L50.1502487,19 C66.6881464,19.0790857 80.0787298,32.6027329 79.9996515,49.1474523 C79.9100295,65.6868993 66.387649,79.0787372 49.8497513,78.9996515 Z" id="Path" fill="url(#linearGradient-12)" fill-rule="nonzero"></path>
                <path d="M41,23.1859384 L40.1767389,21 C31.8574686,23.9285299 25.2118016,30.2091807 22,38.1528181 L24.2477195,39 C27.2049601,31.6734457 33.3306727,25.8843696 41,23.1859384 Z" id="Path" fill="url(#linearGradient-13)" fill-rule="nonzero"></path>
            </g>
        </g>
    </g>
</svg>
