<?xml version="1.0" encoding="UTF-8"?>
<svg width="126px" height="126px" viewBox="0 0 126 126" version="1.1" xmlns="http://www.w3.org/2000/svg" xmlns:xlink="http://www.w3.org/1999/xlink">
    <!-- Generator: Sketch 54.1 (76490) - https://sketchapp.com -->
    <title>Group 3</title>
    <desc>Created with Sketch.</desc>
    <defs>
        <circle id="path-1" cx="49" cy="49" r="49"></circle>
        <filter x="-21.4%" y="-21.4%" width="142.9%" height="142.9%" filterUnits="objectBoundingBox" id="filter-2">
            <feOffset dx="0" dy="0" in="SourceAlpha" result="shadowOffsetOuter1"></feOffset>
            <feGaussianBlur stdDeviation="7" in="shadowOffsetOuter1" result="shadowBlurOuter1"></feGaussianBlur>
            <feColorMatrix values="0 0 0 0 0   0 0 0 0 0   0 0 0 0 0  0 0 0 0.5 0" type="matrix" in="shadowBlurOuter1"></feColorMatrix>
        </filter>
        <linearGradient x1="143.5573%" y1="143.851616%" x2="-31.821505%" y2="-32.0559627%" id="linearGradient-3">
            <stop stop-color="#95C3E3" offset="0%"></stop>
            <stop stop-color="#FFFFFF" offset="99.94%"></stop>
        </linearGradient>
        <linearGradient x1="142.908724%" y1="144.490964%" x2="-31.3588471%" y2="-32.7212822%" id="linearGradient-4">
            <stop stop-color="#95C3E3" offset="0%"></stop>
            <stop stop-color="#FFFFFF" offset="99.94%"></stop>
        </linearGradient>
        <linearGradient x1="143.5573%" y1="141.65912%" x2="-31.9267954%" y2="-30.242169%" id="linearGradient-5">
            <stop stop-color="#95C3E3" offset="0%"></stop>
            <stop stop-color="#FFFFFF" offset="99.94%"></stop>
        </linearGradient>
        <linearGradient x1="114.970347%" y1="144.490964%" x2="-6.89360794%" y2="-32.7212822%" id="linearGradient-6">
            <stop stop-color="#95C3E3" offset="0%"></stop>
            <stop stop-color="#FFFFFF" offset="99.94%"></stop>
        </linearGradient>
    </defs>
    <g id="Page-2" stroke="none" stroke-width="1" fill="none" fill-rule="evenodd">
        <g id="Page-principal" transform="translate(-764.000000, -565.000000)">
            <g id="Group-3" transform="translate(778.000000, 579.000000)">
                <g id="Group-2">
                    <g id="Oval">
                        <use fill="black" fill-opacity="1" filter="url(#filter-2)" xlink:href="#path-1"></use>
                        <use fill="#0B0A0D" fill-rule="evenodd" xlink:href="#path-1"></use>
                    </g>
                    <path d="M49.5590239,73.4143177 C35.8629383,73.3458588 24.7771406,62.1870522 24.8405484,48.5373936 C24.9092402,34.887735 36.1060016,23.8395159 49.8020872,23.9027088 C63.4981728,23.9711677 74.5839705,35.1299743 74.5205627,48.7796329 C74.4518709,62.4345576 63.2551095,73.4827766 49.5590239,73.4143177 Z M49.788653,26.6343996 C37.5920923,26.5766417 27.6260309,36.4059859 27.5627543,48.5508969 C27.5047508,60.6958078 37.3758973,70.619665 49.5724581,70.6826736 C61.7690189,70.7404315 71.7350802,60.9110872 71.7983568,48.7661763 C71.8563603,36.6212654 61.9852138,26.6921575 49.788653,26.6343996 Z" id="Shape" fill="url(#linearGradient-3)" fill-rule="nonzero"></path>
                    <path d="M49.5305851,78.5362363 C33.0233132,78.4570221 19.6575271,64.9113851 19.7364589,48.3397637 L22.0360056,48.3503256 C21.9623359,63.649238 34.3020084,76.1545278 49.5463715,76.2284611 C64.7907345,76.3023944 77.2514359,63.9185665 77.3251055,48.6196541 C77.3987752,33.3207417 65.0591027,20.8154519 49.8200017,20.7415186 L49.830526,18.4390244 C66.337798,18.5182386 79.703584,32.0638756 79.6246522,48.635497 C79.5351961,65.2018374 66.0378571,78.6154506 49.5305851,78.5362363 Z" id="Path" fill="url(#linearGradient-4)" fill-rule="nonzero"></path>
                    <path d="M40.1527778,22.6855912 L39.3565976,20.4878049 C31.3109876,23.4322076 24.883928,29.7468998 21.7777778,37.7335922 L23.9515591,38.5853659 C26.8115221,31.2191012 32.735731,25.398648 40.1527778,22.6855912 Z" id="Path" fill="url(#linearGradient-5)" fill-rule="nonzero"></path>
                    <g id="lock" transform="translate(39.000000, 35.000000)"></g>
                    <path d="M58.4444271,44 L56.7777604,44 L56.7777604,41.9999844 C56.7777604,38.1401562 53.28875,35 49,35 C44.71125,35 41.2222396,38.1401562 41.2222396,41.9999844 L41.2222396,44 L39.5555729,44 C39.2484896,44 39,44.2236406 39,44.5000156 L39,57.0000312 C39,58.1030469 39.9966146,59 41.2222396,59 L56.7778125,59 C58.0033854,59 59,58.1030469 59,56.9999844 L59,44.5000156 C59,44.2236406 58.7515104,44 58.4444271,44 Z M50.6634375,54.4448281 C50.6807812,54.5859219 50.6303646,54.7275312 50.5251042,54.8335156 C50.4198437,54.9394531 50.2690104,55.0000156 50.1111458,55.0000156 L47.8889062,55.0000156 C47.7310417,55.0000156 47.5802083,54.9394531 47.4749479,54.8335156 C47.3696875,54.7275781 47.3192187,54.5859687 47.3366146,54.4448281 L47.6870833,51.6084219 C47.1179687,51.2358594 46.7778125,50.6465 46.7778125,50 C46.7778125,48.8969844 47.7744271,47.9999844 49.0000521,47.9999844 C50.2256771,47.9999844 51.2222917,48.8969375 51.2222917,50 C51.2222917,50.6465 50.8821354,51.2358594 50.3130208,51.6084219 L50.6634375,54.4448281 Z M53.4444271,44 L44.5555729,44 L44.5555729,41.9999844 C44.5555729,39.7944219 46.549375,38 49,38 C51.450625,38 53.4444271,39.7944219 53.4444271,41.9999844 L53.4444271,44 L53.4444271,44 Z" id="Shape" fill="url(#linearGradient-6)" fill-rule="nonzero"></path>
                </g>
            </g>
        </g>
    </g>
</svg>