<?xml version="1.0" encoding="utf-8"?>
<!-- Generator: Adobe Illustrator 23.0.2, SVG Export Plug-In . SVG Version: 6.00 Build 0)  -->
<svg version="1.1" id="Capa_1" xmlns="http://www.w3.org/2000/svg" xmlns:xlink="http://www.w3.org/1999/xlink" x="0px" y="0px"
	 viewBox="0 0 707 245" style="enable-background:new 0 0 707 245;" xml:space="preserve">
<style type="text/css">
	.st0{fill:url(#SVGID_1_);}
	.st1{fill:url(#SVGID_2_);}
	.st2{fill:url(#SVGID_3_);}
	.st3{fill:url(#SVGID_4_);}
	.st4{fill:url(#SVGID_5_);}
	.st5{fill:url(#SVGID_6_);}
	.st6{fill:url(#SVGID_7_);}
	.st7{fill:url(#SVGID_8_);}
	.st8{fill:url(#SVGID_9_);}
	.st9{fill:url(#SVGID_10_);}
	.st10{fill:url(#SVGID_11_);}
	.st11{fill:url(#SVGID_12_);}
	.st12{fill:url(#SVGID_13_);}
	.st13{fill:url(#SVGID_14_);}
	.st14{opacity:0.3;fill:#D7DEFF;}
</style>
<g>
	<g>
		<linearGradient id="SVGID_1_" gradientUnits="userSpaceOnUse" x1="7.741" y1="68.323" x2="81.8612" y2="68.323">
			<stop  offset="0" style="stop-color:#000000"/>
			<stop  offset="1" style="stop-color:#0C002A"/>
		</linearGradient>
		<path class="st0" d="M7.74,82.14l24.02-1.5c0.52,3.9,1.58,6.87,3.18,8.92c2.6,3.31,6.32,4.96,11.15,4.96
			c3.6,0,6.38-0.84,8.33-2.54c1.95-1.69,2.93-3.65,2.93-5.88c0-2.12-0.93-4.01-2.79-5.68c-1.86-1.67-6.17-3.25-12.93-4.74
			c-11.07-2.49-18.97-5.8-23.69-9.92c-4.76-4.12-7.13-9.38-7.13-15.77c0-4.2,1.22-8.16,3.65-11.9c2.43-3.73,6.09-6.67,10.98-8.81
			c4.89-2.14,11.58-3.2,20.09-3.2c10.44,0,18.4,1.94,23.88,5.82c5.48,3.88,8.74,10.06,9.78,18.53l-23.8,1.39
			c-0.63-3.68-1.96-6.35-3.98-8.02c-2.03-1.67-4.82-2.51-8.39-2.51c-2.94,0-5.15,0.62-6.63,1.87c-1.49,1.25-2.23,2.76-2.23,4.54
			c0,1.3,0.61,2.47,1.84,3.51c1.19,1.08,4.01,2.08,8.47,3.01c11.03,2.38,18.94,4.78,23.71,7.22c4.77,2.43,8.25,5.45,10.42,9.06
			c2.17,3.6,3.26,7.63,3.26,12.09c0,5.24-1.45,10.07-4.35,14.49c-2.9,4.42-6.95,7.77-12.15,10.06c-5.2,2.28-11.76,3.43-19.67,3.43
			c-13.9,0-23.52-2.68-28.87-8.03C11.47,97.19,8.45,90.39,7.74,82.14z"/>
		<linearGradient id="SVGID_2_" gradientUnits="userSpaceOnUse" x1="90.3322" y1="79.5803" x2="158.768" y2="79.5803">
			<stop  offset="0" style="stop-color:#000000"/>
			<stop  offset="1" style="stop-color:#0C002A"/>
		</linearGradient>
		<path class="st1" d="M137.2,85.99l21.57,2.45c-1.19,4.5-3.14,8.39-5.85,11.68c-2.71,3.29-6.18,5.84-10.39,7.66
			c-4.22,1.82-9.58,2.73-16.08,2.73c-6.28,0-11.51-0.59-15.69-1.75c-4.18-1.17-7.77-3.06-10.78-5.68c-3.01-2.62-5.37-5.69-7.08-9.21
			c-1.71-3.53-2.56-8.2-2.56-14.03c0-6.09,1.04-11.15,3.12-15.2c1.52-2.97,3.6-5.63,6.24-7.99c2.64-2.36,5.35-4.11,8.14-5.26
			c4.42-1.82,10.09-2.73,17-2.73c9.66,0,17.03,1.73,22.1,5.18c5.07,3.46,8.63,8.51,10.67,15.16l-21.34,2.84
			c-0.67-2.53-1.89-4.43-3.65-5.71c-1.76-1.28-4.13-1.92-7.11-1.92c-3.75,0-6.79,1.34-9.11,4.03c-2.32,2.69-3.48,6.76-3.48,12.21
			c0,4.86,1.15,8.55,3.46,11.07c2.3,2.52,5.24,3.78,8.81,3.78c2.97,0,5.47-0.76,7.5-2.28C134.68,91.49,136.2,89.15,137.2,85.99z"/>
		<linearGradient id="SVGID_3_" gradientUnits="userSpaceOnUse" x1="167.2385" y1="68.3229" x2="229.8228" y2="68.3229">
			<stop  offset="0" style="stop-color:#000000"/>
			<stop  offset="1" style="stop-color:#0C002A"/>
		</linearGradient>
		<path class="st2" d="M167.24,27.47h22.68v30.09c3.08-3.2,6.15-5.48,9.2-6.85c3.05-1.37,6.65-2.06,10.81-2.06
			c6.17,0,11.02,1.88,14.57,5.63c3.55,3.75,5.32,9.51,5.32,17.28v37.62h-22.79V76.63c0-3.71-0.69-6.34-2.06-7.89
			c-1.37-1.54-3.31-2.31-5.8-2.31c-2.75,0-4.98,1.04-6.69,3.12c-1.71,2.08-2.56,5.81-2.56,11.2v28.42h-22.68V27.47z"/>
		<linearGradient id="SVGID_4_" gradientUnits="userSpaceOnUse" x1="240.579" y1="79.5803" x2="308.569" y2="79.5803">
			<stop  offset="0" style="stop-color:#000000"/>
			<stop  offset="1" style="stop-color:#0C002A"/>
		</linearGradient>
		<path class="st3" d="M240.58,79.75c0-9.03,3.05-16.47,9.14-22.32c6.09-5.85,14.32-8.78,24.69-8.78c11.85,0,20.81,3.44,26.86,10.31
			c4.87,5.54,7.3,12.35,7.3,20.45c0,9.1-3.02,16.56-9.06,22.38c-6.04,5.81-14.39,8.72-25.05,8.72c-9.51,0-17.2-2.41-23.07-7.24
			C244.18,97.28,240.58,89.44,240.58,79.75z M263.32,79.69c0,5.28,1.07,9.18,3.2,11.7c2.14,2.53,4.82,3.79,8.05,3.79
			c3.27,0,5.95-1.24,8.05-3.73c2.1-2.49,3.15-6.48,3.15-11.98c0-5.13-1.06-8.94-3.18-11.45c-2.12-2.51-4.74-3.76-7.86-3.76
			c-3.31,0-6.04,1.27-8.19,3.82C264.39,70.62,263.32,74.49,263.32,79.69z"/>
		<linearGradient id="SVGID_5_" gradientUnits="userSpaceOnUse" x1="316.7057" y1="79.5803" x2="384.6957" y2="79.5803">
			<stop  offset="0" style="stop-color:#000000"/>
			<stop  offset="1" style="stop-color:#0C002A"/>
		</linearGradient>
		<path class="st4" d="M316.71,79.75c0-9.03,3.05-16.47,9.14-22.32c6.09-5.85,14.32-8.78,24.69-8.78c11.85,0,20.81,3.44,26.86,10.31
			c4.87,5.54,7.3,12.35,7.3,20.45c0,9.1-3.02,16.56-9.06,22.38c-6.04,5.81-14.39,8.72-25.05,8.72c-9.51,0-17.2-2.41-23.07-7.24
			C320.31,97.28,316.71,89.44,316.71,79.75z M339.44,79.69c0,5.28,1.07,9.18,3.2,11.7c2.14,2.53,4.82,3.79,8.05,3.79
			c3.27,0,5.95-1.24,8.05-3.73c2.1-2.49,3.15-6.48,3.15-11.98c0-5.13-1.06-8.94-3.18-11.45c-2.12-2.51-4.74-3.76-7.86-3.76
			c-3.31,0-6.04,1.27-8.19,3.82C340.52,70.62,339.44,74.49,339.44,79.69z"/>
		<linearGradient id="SVGID_6_" gradientUnits="userSpaceOnUse" x1="396.3991" y1="68.3229" x2="419.1365" y2="68.3229">
			<stop  offset="0" style="stop-color:#000000"/>
			<stop  offset="1" style="stop-color:#0C002A"/>
		</linearGradient>
		<path class="st5" d="M396.4,27.47h22.74v81.7H396.4V27.47z"/>
	</g>
	<g>
		<linearGradient id="SVGID_7_" gradientUnits="userSpaceOnUse" x1="197.9645" y1="163.4306" x2="272.0847" y2="163.4306">
			<stop  offset="0" style="stop-color:#000000"/>
			<stop  offset="1" style="stop-color:#0C002A"/>
		</linearGradient>
		<path class="st6" d="M197.96,177.25l24.02-1.5c0.52,3.9,1.58,6.87,3.18,8.92c2.6,3.31,6.32,4.96,11.15,4.96
			c3.6,0,6.38-0.84,8.33-2.54c1.95-1.69,2.93-3.65,2.93-5.88c0-2.12-0.93-4.01-2.79-5.68c-1.86-1.67-6.17-3.25-12.93-4.74
			c-11.07-2.49-18.97-5.8-23.69-9.92c-4.76-4.12-7.13-9.38-7.13-15.77c0-4.2,1.22-8.16,3.65-11.9c2.43-3.73,6.09-6.67,10.98-8.81
			c4.89-2.14,11.58-3.2,20.09-3.2c10.44,0,18.4,1.94,23.88,5.82c5.48,3.88,8.74,10.06,9.78,18.53l-23.8,1.39
			c-0.63-3.68-1.96-6.35-3.98-8.02c-2.03-1.67-4.82-2.51-8.39-2.51c-2.94,0-5.15,0.62-6.63,1.87c-1.49,1.25-2.23,2.76-2.23,4.54
			c0,1.3,0.61,2.47,1.84,3.51c1.19,1.08,4.01,2.08,8.47,3.01c11.03,2.38,18.94,4.78,23.71,7.22c4.77,2.43,8.25,5.45,10.42,9.06
			c2.17,3.6,3.26,7.64,3.26,12.09c0,5.24-1.45,10.07-4.35,14.49c-2.9,4.42-6.95,7.77-12.15,10.06c-5.2,2.29-11.76,3.43-19.67,3.43
			c-13.9,0-23.52-2.67-28.87-8.02S198.67,185.5,197.96,177.25z"/>
		<linearGradient id="SVGID_8_" gradientUnits="userSpaceOnUse" x1="280.4999" y1="174.6879" x2="348.49" y2="174.6879">
			<stop  offset="0" style="stop-color:#000000"/>
			<stop  offset="1" style="stop-color:#0C002A"/>
		</linearGradient>
		<path class="st7" d="M280.5,174.86c0-9.03,3.05-16.47,9.14-22.32c6.09-5.85,14.32-8.78,24.69-8.78c11.85,0,20.81,3.44,26.86,10.31
			c4.87,5.54,7.3,12.35,7.3,20.45c0,9.1-3.02,16.56-9.06,22.38c-6.04,5.81-14.39,8.72-25.05,8.72c-9.51,0-17.2-2.41-23.07-7.24
			C284.1,192.39,280.5,184.55,280.5,174.86z M303.24,174.8c0,5.28,1.07,9.18,3.2,11.7c2.14,2.53,4.82,3.79,8.05,3.79
			c3.27,0,5.95-1.24,8.05-3.73c2.1-2.49,3.15-6.48,3.15-11.98c0-5.13-1.06-8.94-3.18-11.45c-2.12-2.51-4.74-3.76-7.86-3.76
			c-3.31,0-6.04,1.27-8.19,3.82C304.31,165.72,303.24,169.6,303.24,174.8z"/>
		<linearGradient id="SVGID_9_" gradientUnits="userSpaceOnUse" x1="360.1934" y1="163.4306" x2="382.9308" y2="163.4306">
			<stop  offset="0" style="stop-color:#000000"/>
			<stop  offset="1" style="stop-color:#0C002A"/>
		</linearGradient>
		<path class="st8" d="M360.19,122.58h22.74v81.7h-22.74V122.58z"/>
		<linearGradient id="SVGID_10_" gradientUnits="userSpaceOnUse" x1="397.1975" y1="175.3566" x2="459.7819" y2="175.3566">
			<stop  offset="0" style="stop-color:#000000"/>
			<stop  offset="1" style="stop-color:#0C002A"/>
		</linearGradient>
		<path class="st9" d="M459.78,204.28H438.6v-9.59c-3.16,3.94-6.34,6.74-9.56,8.42c-3.21,1.67-7.16,2.51-11.84,2.51
			c-6.24,0-11.14-1.87-14.68-5.6c-3.55-3.73-5.32-9.48-5.32-17.25V145.1h22.79v32.55c0,3.72,0.69,6.35,2.06,7.91
			c1.37,1.56,3.31,2.34,5.8,2.34c2.71,0,4.93-1.04,6.66-3.12c1.73-2.08,2.59-5.81,2.59-11.2V145.1h22.68V204.28z"/>
		<linearGradient id="SVGID_11_" gradientUnits="userSpaceOnUse" x1="469.8136" y1="164.0993" x2="514.23" y2="164.0993">
			<stop  offset="0" style="stop-color:#000000"/>
			<stop  offset="1" style="stop-color:#0C002A"/>
		</linearGradient>
		<path class="st10" d="M500.91,122.58v22.51h12.48v16.61h-12.48v20.97c0,2.52,0.24,4.19,0.72,5c0.74,1.26,2.04,1.89,3.9,1.89
			c1.67,0,4.01-0.48,7.02-1.45l1.67,15.66c-5.61,1.23-10.85,1.84-15.72,1.84c-5.65,0-9.81-0.72-12.48-2.17
			c-2.68-1.45-4.65-3.65-5.94-6.6c-1.28-2.95-1.92-7.73-1.92-14.33V161.7h-8.36V145.1h8.36v-10.87L500.91,122.58z"/>
		<linearGradient id="SVGID_12_" gradientUnits="userSpaceOnUse" x1="525.0414" y1="163.4306" x2="547.723" y2="163.4306">
			<stop  offset="0" style="stop-color:#000000"/>
			<stop  offset="1" style="stop-color:#0C002A"/>
		</linearGradient>
		<path class="st11" d="M525.04,122.58h22.68v15.44h-22.68V122.58z M525.04,145.1h22.68v59.18h-22.68V145.1z"/>
		<linearGradient id="SVGID_13_" gradientUnits="userSpaceOnUse" x1="559.4265" y1="174.6879" x2="627.4165" y2="174.6879">
			<stop  offset="0" style="stop-color:#000000"/>
			<stop  offset="1" style="stop-color:#0C002A"/>
		</linearGradient>
		<path class="st12" d="M559.43,174.86c0-9.03,3.05-16.47,9.14-22.32c6.09-5.85,14.32-8.78,24.69-8.78
			c11.85,0,20.81,3.44,26.86,10.31c4.87,5.54,7.3,12.35,7.3,20.45c0,9.1-3.02,16.56-9.06,22.38c-6.04,5.81-14.39,8.72-25.05,8.72
			c-9.51,0-17.2-2.41-23.07-7.24C563.03,192.39,559.43,184.55,559.43,174.86z M582.16,174.8c0,5.28,1.07,9.18,3.2,11.7
			c2.14,2.53,4.82,3.79,8.05,3.79c3.27,0,5.95-1.24,8.05-3.73c2.1-2.49,3.15-6.48,3.15-11.98c0-5.13-1.06-8.94-3.18-11.45
			c-2.12-2.51-4.74-3.76-7.86-3.76c-3.31,0-6.04,1.27-8.19,3.82C583.24,165.72,582.16,169.6,582.16,174.8z"/>
		<linearGradient id="SVGID_14_" gradientUnits="userSpaceOnUse" x1="638.3394" y1="174.0192" x2="700.9236" y2="174.0192">
			<stop  offset="0" style="stop-color:#000000"/>
			<stop  offset="1" style="stop-color:#0C002A"/>
		</linearGradient>
		<path class="st13" d="M638.34,145.1h21.12v9.64c3.16-3.94,6.35-6.75,9.59-8.44c3.23-1.69,7.17-2.54,11.81-2.54
			c6.28,0,11.19,1.87,14.74,5.6c3.55,3.73,5.32,9.5,5.32,17.3v37.62h-22.79v-32.55c0-3.71-0.69-6.34-2.06-7.89
			c-1.37-1.54-3.31-2.31-5.8-2.31c-2.75,0-4.98,1.04-6.69,3.12c-1.71,2.08-2.56,5.81-2.56,11.2v28.42h-22.68V145.1z"/>
	</g>
	<line x1="434.7" y1="15.5" x2="196.92" y2="234.26"/>
	<path class="st14" d="M227.74,205.9c14.03-12.91,28.07-25.82,42.1-38.74c0.94,2.49,2.45,7.46,1.73,13.74c0,0-0.18,1.61-0.79,3.91
		c-0.31,1.16-1.29,4.77-3.35,8.1c-2.7,4.35-6.27,6.66-8.3,7.97C247.95,208.11,229.47,206.11,227.74,205.9z"/>
	<path class="st14" d="M334.78,107.43l13.61-12.52c1.2,0.19,5.12,0.65,8.32-1.75c2.19-1.65,3.63-4.32,4.15-6.11
		c0.15-0.53,0.45-1.78,1.08-3.4c0.25-0.64,1.01-2.54,0.76-1.9c0,0,6.48-5.96,18.57-17.08c5.41,14.12,3.5,28.65-5.1,36.91
		c-1.98,1.9-5.78,4.87-12.09,6.38c-3.12,0.98-7.35,1.94-12.4,2.1C344.4,110.27,338.52,108.74,334.78,107.43z"/>
	<polygon class="st14" points="396.49,50.65 396.49,27.66 419.58,27.66 419.58,29.41 	"/>
</g>
</svg>
