<?xml version="1.0" encoding="UTF-8"?>
<svg width="126px" height="126px" viewBox="0 0 126 126" version="1.1" xmlns="http://www.w3.org/2000/svg" xmlns:xlink="http://www.w3.org/1999/xlink">
    <!-- Generator: Sketch 54.1 (76490) - https://sketchapp.com -->
    <title>Group 4</title>
    <desc>Created with Sketch.</desc>
    <defs>
        <circle id="path-1" cx="49" cy="49" r="49"></circle>
        <filter x="-21.4%" y="-21.4%" width="142.9%" height="142.9%" filterUnits="objectBoundingBox" id="filter-2">
            <feOffset dx="0" dy="0" in="SourceAlpha" result="shadowOffsetOuter1"></feOffset>
            <feGaussianBlur stdDeviation="7" in="shadowOffsetOuter1" result="shadowBlurOuter1"></feGaussianBlur>
            <feColorMatrix values="0 0 0 0 0   0 0 0 0 0   0 0 0 0 0  0 0 0 0.5 0" type="matrix" in="shadowBlurOuter1"></feColorMatrix>
        </filter>
        <linearGradient x1="143.5573%" y1="143.851616%" x2="-32.0321491%" y2="-32.2672419%" id="linearGradient-3">
            <stop stop-color="#83A4D4" offset="0%"></stop>
            <stop stop-color="#FFFFFF" offset="99.94%"></stop>
        </linearGradient>
        <linearGradient x1="142.908724%" y1="144.490964%" x2="-31.5681565%" y2="-32.9341285%" id="linearGradient-4">
            <stop stop-color="#83A4D4" offset="0%"></stop>
            <stop stop-color="#FFFFFF" offset="99.94%"></stop>
        </linearGradient>
        <linearGradient x1="143.5573%" y1="141.65912%" x2="-32.137566%" y2="-30.4486363%" id="linearGradient-5">
            <stop stop-color="#83A4D4" offset="0%"></stop>
            <stop stop-color="#FFFFFF" offset="99.94%"></stop>
        </linearGradient>
        <linearGradient x1="143.5573%" y1="131.413219%" x2="-32.0321491%" y2="-21.3641521%" id="linearGradient-6">
            <stop stop-color="#83A4D4" offset="0%"></stop>
            <stop stop-color="#FFFFFF" offset="99.94%"></stop>
        </linearGradient>
    </defs>
    <g id="Page-2" stroke="none" stroke-width="1" fill="none" fill-rule="evenodd">
        <g id="Page-principal" transform="translate(-573.000000, -565.000000)">
            <g id="Group-4" transform="translate(587.000000, 579.000000)">
                <g id="Oval">
                    <use fill="black" fill-opacity="1" filter="url(#filter-2)" xlink:href="#path-1"></use>
                    <use fill="#0B0A0D" fill-rule="evenodd" xlink:href="#path-1"></use>
                </g>
                <path d="M49.5590239,73.4143177 C35.8629383,73.3458588 24.7771406,62.1870522 24.8405484,48.5373936 C24.9092402,34.887735 36.1060016,23.8395159 49.8020872,23.9027088 C63.4981728,23.9711677 74.5839705,35.1299743 74.5205627,48.7796329 C74.4518709,62.4345576 63.2551095,73.4827766 49.5590239,73.4143177 Z M49.788653,26.6343996 C37.5920923,26.5766417 27.6260309,36.4059859 27.5627543,48.5508969 C27.5047508,60.6958078 37.3758973,70.619665 49.5724581,70.6826736 C61.7690189,70.7404315 71.7350802,60.9110872 71.7983568,48.7661763 C71.8563603,36.6212654 61.9852138,26.6921575 49.788653,26.6343996 Z" id="Shape" fill="url(#linearGradient-3)" fill-rule="nonzero"></path>
                <path d="M49.5305851,78.5362363 C33.0233132,78.4570221 19.6575271,64.9113851 19.7364589,48.3397637 L22.0360056,48.3503256 C21.9623359,63.649238 34.3020084,76.1545278 49.5463715,76.2284611 C64.7907345,76.3023944 77.2514359,63.9185665 77.3251055,48.6196541 C77.3987752,33.3207417 65.0591027,20.8154519 49.8200017,20.7415186 L49.830526,18.4390244 C66.337798,18.5182386 79.703584,32.0638756 79.6246522,48.635497 C79.5351961,65.2018374 66.0378571,78.6154506 49.5305851,78.5362363 Z" id="Path" fill="url(#linearGradient-4)" fill-rule="nonzero"></path>
                <path d="M40.1527778,22.6855912 L39.3565976,20.4878049 C31.3109876,23.4322076 24.883928,29.7468998 21.7777778,37.7335922 L23.9515591,38.5853659 C26.8115221,31.2191012 32.735731,25.398648 40.1527778,22.6855912 Z" id="Path" fill="url(#linearGradient-5)" fill-rule="nonzero"></path>
                <path d="M36.850895,42.7374346 L37.7017901,42.7374346 L37.7017901,47.7909519 L36.850895,47.7909519 C36.3805134,47.7909519 36,47.4159634 36,46.9488167 L36,43.5795698 C36,43.1163071 36.3805134,42.7374346 36.850895,42.7374346 Z M62.3713272,42.7374346 L61.5197189,42.7374346 L61.5197189,47.7909519 L62.3713272,47.7909519 C62.8409956,47.7909519 63.2222222,47.4159634 63.2222222,46.9488167 L63.2222222,43.5795698 C63.2222222,43.1163071 62.8420654,42.7374346 62.3713272,42.7374346 Z M59.8193553,41.0535173 L59.8193553,56.2144223 C59.8193553,57.1458909 59.0586851,57.8990458 58.1179218,57.8990458 L58.1179218,59.5836692 C58.1179218,60.5154909 57.3572516,61.2682927 56.4164884,61.2682927 L54.7146983,61.2682927 C53.7742916,61.2682927 53.0132648,60.5137254 53.0132648,59.5836692 L53.0132648,57.8990458 L46.2086008,57.8990458 L46.2086008,59.5836692 C46.2086008,60.5154909 45.447574,61.2682927 44.5071673,61.2682927 L42.8064471,61.2682927 C41.8656839,61.2682927 41.1050136,60.5137254 41.1050136,59.5836692 L41.1050136,57.8990458 C40.164607,57.8990458 39.4035802,57.1444785 39.4035802,56.2144223 L39.4035802,41.0535173 C39.4028669,38.2633487 41.6895136,36 44.5071673,36 L54.7154115,36 C57.5334218,36 59.8193553,38.2626425 59.8193553,41.0535173 Z M46.2086008,39.3692469 L53.013978,39.3692469 L53.013978,37.6846235 L46.2086008,37.6846235 L46.2086008,39.3692469 Z M44.5071673,54.530505 C44.5071673,53.5979771 43.7461405,52.8458816 42.8064471,52.8458816 C41.8660405,52.8458816 41.1050136,53.5990364 41.1050136,54.530505 C41.1050136,55.4609143 41.8660405,56.2151285 42.8064471,56.2151285 C43.7457839,56.2147754 44.5071673,55.4602081 44.5071673,54.530505 Z M58.1179218,54.530505 C58.1179218,53.5979771 57.3572516,52.8458816 56.4164884,52.8458816 C55.4757251,52.8458816 54.7150549,53.5990364 54.7150549,54.530505 C54.7150549,55.4609143 55.476795,56.2151285 56.4164884,56.2151285 C57.3576082,56.2147754 58.1179218,55.4602081 58.1179218,54.530505 Z M58.1179218,41.0535173 L41.1043004,41.0535173 L41.1043004,51.160905 L58.1179218,51.160905 L58.1179218,41.0535173 L58.1179218,41.0535173 Z" id="Shape" fill="url(#linearGradient-6)" fill-rule="nonzero"></path>
            </g>
        </g>
    </g>
</svg>
