<?xml version="1.0" encoding="utf-8"?>
<!-- Generator: Adobe Illustrator 23.0.2, SVG Export Plug-In . SVG Version: 6.00 Build 0)  -->
<svg version="1.1" id="Capa_1" xmlns="http://www.w3.org/2000/svg" xmlns:xlink="http://www.w3.org/1999/xlink" x="0px"
     y="0px"
     viewBox="0 0 186 208" style="enable-background:new 0 0 186 208;" xml:space="preserve">
<style type="text/css">
	.st0{fill:url(#SVGID_1_);}
</style>
    <linearGradient id="SVGID_1_" gradientUnits="userSpaceOnUse" x1="194.3592" y1="207.9138" x2="-55.9957" y2="349.0714"
                    gradientTransform="matrix(1 0 0 1 0 -150)">
	<stop offset="0" style="stop-color:#FF81BB"/>
        <stop offset="1" style="stop-color:#765BE2"/>
</linearGradient>
    <path class="st0" d="M161.64,74.24c33.05,153.49-93.02,143.73-91.85,84.91c0.74-37.57,41.33-30.8,17.78-115.88
	C76.39,2.86,140.31-24.86,161.64,74.24z M9.72,139.62c-1.95,5.1-2.5,11.1,0.18,15.86c3.04,5.4,9.46,7.95,15.59,8.74
	c10.65,1.37,21.78-1.55,30.41-7.96c4.61-3.43,8.59-7.95,10.51-13.38c0.7-1.97,1.12-4.08,0.86-6.15c-0.58-4.62-4.37-8.18-8.34-10.6
	C41.32,115.33,17.64,118.87,9.72,139.62z"/>
</svg>
